<svg version="1.1" viewBox="0.0 0.0 513.0 371.0" fill="none" stroke="none" stroke-linecap="square" stroke-miterlimit="10" width="513" height="371" xmlns:xlink="http://www.w3.org/1999/xlink" xmlns="http://www.w3.org/2000/svg"><path fill="#ffffff" d="M0 0L513.0 0L513.0 371.0L0 371.0L0 0Z" fill-rule="nonzero"/><path fill="#6aa84f" d="M185.115 18.935C242.61722 18.935 296.05283 48.594177 326.46942 97.39311C356.88605 146.19205 359.98145 207.2285 334.6578 258.85425L259.8864 222.17712C272.54822 196.36424 271.00052 165.84602 255.79222 141.44655C240.58391 117.04709 213.8661 102.2175 185.115 102.2175Z" fill-rule="nonzero"/><path fill="#b7b7b7" d="M119.429115 32.433792C140.18286 23.527657 162.53099 18.935 185.115 18.935L185.115 102.2175C173.823 102.2175 162.64893 104.51383 152.27206 108.966896Z" fill-rule="nonzero"/><path fill="#3d85c6" d="M43.76057 97.39311C61.75721 68.52017 88.16394 45.850735 119.429115 32.433792L152.27206 108.966896C136.63947 115.67537 123.436104 127.010086 114.43778 141.44655Z" fill-rule="nonzero"/><path fill="#a64d79" d="M20.470774 160.27744C23.89062 137.95386 31.814442 116.5589 43.76057 97.39311L114.43778 141.44655C108.46472 151.02945 104.50281 161.72693 102.792885 172.88872Z" fill-rule="nonzero"/><path fill="#f1c232" d="M53.39944 287.45544C25.46294 251.36446 13.559614 205.3911 20.470774 160.27744L102.792885 172.88872C99.33731 195.44554 105.28897 218.43222 119.25722 236.47772Z" fill-rule="nonzero"/><path fill="#cc0000" d="M135.25159 344.4262C102.78945 334.24115 74.22477 314.35953 53.39944 287.45544L119.25722 236.47772C129.66989 249.92976 143.95222 259.87057 160.18329 264.9631Z" fill-rule="nonzero"/><path fill="#000000" d="M334.6578 258.85425C298.43457 332.70035 213.73132 369.04938 135.25159 344.4262L160.18329 264.9631C199.42316 277.2747 241.77478 259.1002 259.8864 222.17712Z" fill-rule="nonzero"/><path fill="#ffffff" d="M294.71194 120.109955L292.7432 120.109955L292.7432 112.50058L290.38382 113.21933L290.38382 111.62558L294.50882 110.141205L294.71194 110.141205L294.71194 120.109955ZM304.6182 116.00058Q304.6182 118.06308 303.75882 119.15683Q302.91507 120.25058 301.25882 120.25058Q299.63382 120.25058 298.77444 119.172455Q297.91507 118.09433 297.89944 116.09433L297.89944 114.266205Q297.89944 112.172455 298.75882 111.09433Q299.6182 110.016205 301.2432 110.016205Q302.88382 110.016205 303.7432 111.09433Q304.60257 112.15683 304.6182 114.15683L304.6182 116.00058ZM302.64944 113.984955Q302.64944 112.75058 302.3057 112.18808Q301.96194 111.62558 301.2432 111.62558Q300.5557 111.62558 300.21194 112.15683Q299.88382 112.68808 299.8682 113.828705L299.8682 116.25058Q299.8682 117.46933 300.19632 118.06308Q300.52444 118.65683 301.25882 118.65683Q301.9932 118.65683 302.3057 118.09433Q302.63382 117.516205 302.64944 116.34433L302.64944 113.984955Z" fill-rule="nonzero"/><path fill="#ffffff" d="M241.81204 305.2657L237.96829 314.10944L235.89017 314.10944L239.73392 305.75006L234.79642 305.75006L234.79642 304.1563L241.81204 304.1563L241.81204 305.2657Z" fill-rule="nonzero"/><path fill="#ffffff" d="M107.19713 294.20258L108.244 294.20258Q108.994 294.20258 109.35338 293.82758Q109.72838 293.45258 109.72838 292.8432Q109.72838 292.23383 109.369 291.9057Q109.00963 291.56195 108.38463 291.56195Q107.8065 291.56195 107.41588 291.87445Q107.04088 292.18695 107.04088 292.68695L105.07213 292.68695Q105.07213 291.9057 105.494 291.29633Q105.91588 290.67133 106.66588 290.32758Q107.41588 289.9682 108.33775 289.9682Q109.91588 289.9682 110.8065 290.73383Q111.69713 291.48383 111.69713 292.81195Q111.69713 293.49945 111.27525 294.07758Q110.869 294.64008 110.19713 294.95258Q111.02525 295.24945 111.4315 295.85883Q111.85338 296.45258 111.85338 297.26508Q111.85338 298.5932 110.88463 299.4057Q109.9315 300.20258 108.33775 300.20258Q106.83775 300.20258 105.88463 299.42133Q104.94713 298.62445 104.94713 297.32758L106.91588 297.32758Q106.91588 297.89008 107.33775 298.24945Q107.75963 298.60883 108.38463 298.60883Q109.08775 298.60883 109.47838 298.23383Q109.88463 297.85883 109.88463 297.24945Q109.88463 295.74945 108.244 295.74945L107.19713 295.74945L107.19713 294.20258Z" fill-rule="nonzero"/><path fill="#ffffff" d="M52.91797 221.12952L54.058594 221.12952L54.058594 222.72327L52.91797 222.72327L52.91797 224.87952L50.94922 224.87952L50.94922 222.72327L46.871094 222.72327L46.777344 221.48889L50.933594 214.92639L52.91797 214.92639L52.91797 221.12952ZM48.746094 221.12952L50.94922 221.12952L50.94922 217.61389L50.82422 217.84827L48.746094 221.12952Z" fill-rule="nonzero"/><path fill="#ffffff" d="M59.536823 142.19469L52.7087 142.19469L52.7087 140.83531L55.92745 137.41344Q56.599323 136.67906 56.911823 136.14781Q57.23995 135.60094 57.23995 135.11656Q57.23995 134.46031 56.8962 134.08531Q56.568073 133.69469 55.943073 133.69469Q55.2712 133.69469 54.880573 134.16344Q54.505573 134.61656 54.505573 135.36656L52.5212 135.36656Q52.5212 134.46031 52.943073 133.71031Q53.380573 132.96031 54.17745 132.53844Q54.974323 132.10094 55.974323 132.10094Q57.505573 132.10094 58.349323 132.85094Q59.2087 133.58531 59.2087 134.92906Q59.2087 135.66344 58.818073 136.42906Q58.443073 137.19469 57.5212 138.21031L55.255573 140.60094L59.536823 140.60094L59.536823 142.19469Z" fill-rule="nonzero"/><path fill="#ffffff" d="M96.505104 82.45133L97.55198 82.45133Q98.30198 82.45133 98.661354 82.07633Q99.036354 81.70133 99.036354 81.09196Q99.036354 80.48258 98.67698 80.15446Q98.317604 79.81071 97.692604 79.81071Q97.11448 79.81071 96.723854 80.12321Q96.348854 80.43571 96.348854 80.93571L94.380104 80.93571Q94.380104 80.15446 94.80198 79.54508Q95.223854 78.92008 95.973854 78.57633Q96.723854 78.21696 97.64573 78.21696Q99.223854 78.21696 100.11448 78.98258Q101.005104 79.73258 101.005104 81.06071Q101.005104 81.74821 100.58323 82.32633Q100.17698 82.88883 99.505104 83.20133Q100.33323 83.49821 100.73948 84.10758Q101.161354 84.70133 101.161354 85.51383Q101.161354 86.84196 100.192604 87.65446Q99.23948 88.45133 97.64573 88.45133Q96.14573 88.45133 95.192604 87.67008Q94.255104 86.87321 94.255104 85.57633L96.223854 85.57633Q96.223854 86.13883 96.64573 86.49821Q97.067604 86.85758 97.692604 86.85758Q98.39573 86.85758 98.786354 86.48258Q99.192604 86.10758 99.192604 85.49821Q99.192604 83.99821 97.55198 83.99821L96.505104 83.99821L96.505104 82.45133Z" fill-rule="nonzero"/><path fill="#ffffff" d="M161.02238 55.73278L154.19426 55.73278L154.19426 54.373405L157.41301 50.95153Q158.08488 50.217155 158.39738 49.685905Q158.72551 49.13903 158.72551 48.654655Q158.72551 47.998405 158.38176 47.623405Q158.05363 47.23278 157.42863 47.23278Q156.75676 47.23278 156.36613 47.70153Q155.99113 48.154655 155.99113 48.904655L154.00676 48.904655Q154.00676 47.998405 154.42863 47.248405Q154.86613 46.498405 155.66301 46.07653Q156.45988 45.63903 157.45988 45.63903Q158.99113 45.63903 159.83488 46.38903Q160.69426 47.123405 160.69426 48.467155Q160.69426 49.20153 160.30363 49.967155Q159.92863 50.73278 159.00676 51.748405L156.74113 54.13903L161.02238 54.13903L161.02238 55.73278Z" fill-rule="nonzero"/><path fill="#6aa84f" d="M385.94 27.05C385.94 30.363708 383.25372 33.05 379.94 33.05C376.62628 33.05 373.94 30.363708 373.94 27.05C373.94 23.736292 376.62628 21.05 379.94 21.05C383.25372 21.05 385.94 23.736292 385.94 27.05Z" fill-rule="nonzero"/><path fill="#1a1a1a" d="M402.42438 28.39375Q402.23688 29.971874 401.2525 30.83125Q400.26813 31.690624 398.64313 31.690624Q396.8775 31.690624 395.815 30.425Q394.7525 29.159374 394.7525 27.034374L394.7525 26.08125Q394.7525 24.690624 395.2525 23.64375Q395.7525 22.58125 396.65875 22.01875Q397.565 21.45625 398.7525 21.45625Q400.34625 21.45625 401.29938 22.346874Q402.2525 23.2375 402.42438 24.8L401.09625 24.8Q400.92438 23.6125 400.34625 23.08125Q399.78375 22.534374 398.7525 22.534374Q397.5025 22.534374 396.78375 23.471874Q396.08063 24.39375 396.08063 26.1125L396.08063 27.08125Q396.08063 28.70625 396.7525 29.659374Q397.42438 30.6125 398.64313 30.6125Q399.73688 30.6125 400.315 30.128124Q400.90875 29.628124 401.09625 28.39375L402.42438 28.39375ZM408.47125 31.55Q408.36188 31.33125 408.28375 30.76875Q407.40875 31.690624 406.17438 31.690624Q405.08063 31.690624 404.3775 31.08125Q403.69 30.45625 403.69 29.503124Q403.69 28.346874 404.565 27.70625Q405.44 27.065624 407.03375 27.065624L408.26813 27.065624L408.26813 26.4875Q408.26813 25.815624 407.86188 25.425Q407.47125 25.034374 406.70563 25.034374Q406.01813 25.034374 405.565 25.378124Q405.11188 25.721874 405.11188 26.20625L403.83063 26.20625Q403.83063 25.64375 404.22125 25.128124Q404.6275 24.6125 405.29938 24.315624Q405.97125 24.01875 406.76813 24.01875Q408.04938 24.01875 408.76813 24.659374Q409.5025 25.3 409.53375 26.409374L409.53375 29.815624Q409.53375 30.83125 409.78375 31.440624L409.78375 31.55L408.47125 31.55ZM406.36188 30.58125Q406.95563 30.58125 407.48688 30.284374Q408.03375 29.971874 408.26813 29.471874L408.26813 27.95625L407.26813 27.95625Q404.95563 27.95625 404.95563 29.315624Q404.95563 29.909374 405.34625 30.253124Q405.73688 30.58125 406.36188 30.58125ZM413.08063 24.159374L413.1275 24.971874Q413.94 24.01875 415.315 24.01875Q416.86188 24.01875 417.42438 25.20625Q417.79938 24.675 418.39313 24.346874Q418.98688 24.01875 419.78375 24.01875Q422.22125 24.01875 422.26813 26.596874L422.26813 31.55L421.0025 31.55L421.0025 26.675Q421.0025 25.878124 420.6275 25.4875Q420.26813 25.096874 419.42438 25.096874Q418.70563 25.096874 418.23688 25.51875Q417.78375 25.925 417.70563 26.64375L417.70563 31.55L416.44 31.55L416.44 26.70625Q416.44 25.096874 414.86188 25.096874Q413.61188 25.096874 413.15875 26.14375L413.15875 31.55L411.89313 31.55L411.89313 24.159374L413.08063 24.159374ZM430.14313 27.940624Q430.14313 29.628124 429.36188 30.659374Q428.59625 31.690624 427.28375 31.690624Q425.94 31.690624 425.15875 30.83125L425.15875 34.39375L423.89313 34.39375L423.89313 24.159374L425.04938 24.159374L425.11188 24.971874Q425.89313 24.01875 427.26813 24.01875Q428.59625 24.01875 429.36188 25.01875Q430.14313 26.01875 430.14313 27.815624L430.14313 27.940624ZM428.8775 27.784374Q428.8775 26.534374 428.34625 25.815624Q427.815 25.096874 426.8775 25.096874Q425.73688 25.096874 425.15875 26.1125L425.15875 29.64375Q425.73688 30.659374 426.89313 30.659374Q427.815 30.659374 428.34625 29.940624Q428.8775 29.20625 428.8775 27.784374ZM436.47125 30.815624Q435.72125 31.690624 434.29938 31.690624Q433.11188 31.690624 432.48688 31.003124Q431.8775 30.315624 431.8775 28.971874L431.8775 24.159374L433.1275 24.159374L433.1275 28.925Q433.1275 30.6125 434.5025 30.6125Q435.95563 30.6125 436.42438 29.534374L436.42438 24.159374L437.69 24.159374L437.69 31.55L436.48688 31.55L436.47125 30.815624ZM444.20563 29.58125Q444.20563 29.08125 443.815 28.8Q443.42438 28.503124 442.47125 28.3Q441.51813 28.096874 440.94 27.815624Q440.3775 27.51875 440.11188 27.128124Q439.84625 26.7375 439.84625 26.190624Q439.84625 25.26875 440.61188 24.64375Q441.3775 24.01875 442.58063 24.01875Q443.83063 24.01875 444.61188 24.675Q445.39313 25.315624 445.39313 26.33125L444.1275 26.33125Q444.1275 25.8 443.69 25.425Q443.2525 25.05 442.58063 25.05Q441.89313 25.05 441.5025 25.3625Q441.11188 25.659374 441.11188 26.14375Q441.11188 26.596874 441.47125 26.83125Q441.83063 27.065624 442.76813 27.284374Q443.72125 27.4875 444.315 27.784374Q444.90875 28.08125 445.19 28.503124Q445.47125 28.909374 445.47125 29.503124Q445.47125 30.4875 444.67438 31.096874Q443.8775 31.690624 442.61188 31.690624Q441.73688 31.690624 441.04938 31.378124Q440.36188 31.05 439.97125 30.4875Q439.59625 29.925 439.59625 29.26875L440.86188 29.26875Q440.89313 29.909374 441.36188 30.284374Q441.84625 30.659374 442.61188 30.659374Q443.33063 30.659374 443.76813 30.3625Q444.20563 30.065624 444.20563 29.58125ZM446.59625 27.784374Q446.59625 26.065624 447.39313 25.05Q448.19 24.01875 449.51813 24.01875Q450.86188 24.01875 451.6275 24.971874L451.69 24.159374L452.84625 24.159374L452.84625 31.378124Q452.84625 32.815624 451.98688 33.628124Q451.14313 34.45625 449.70563 34.45625Q448.90875 34.45625 448.14313 34.1125Q447.3775 33.784374 446.97125 33.190624L447.6275 32.425Q448.44 33.425 449.61188 33.425Q450.53375 33.425 451.04938 32.909374Q451.58063 32.39375 451.58063 31.440624L451.58063 30.815624Q450.815 31.690624 449.5025 31.690624Q448.20563 31.690624 447.39313 30.64375Q446.59625 29.596874 446.59625 27.784374ZM447.86188 27.940624Q447.86188 29.190624 448.3775 29.909374Q448.89313 30.6125 449.815 30.6125Q451.01813 30.6125 451.58063 29.51875L451.58063 26.14375Q450.98688 25.096874 449.83063 25.096874Q448.90875 25.096874 448.3775 25.815624Q447.86188 26.51875 447.86188 27.940624ZM458.47125 25.284374Q458.19 25.2375 457.84625 25.2375Q456.61188 25.2375 456.15875 26.3L456.15875 31.55L454.89313 31.55L454.89313 24.159374L456.1275 24.159374L456.14313 25.003124Q456.76813 24.01875 457.90875 24.01875Q458.28375 24.01875 458.47125 24.1125L458.47125 25.284374ZM464.47125 30.815624Q463.72125 31.690624 462.29938 31.690624Q461.11188 31.690624 460.48688 31.003124Q459.8775 30.315624 459.8775 28.971874L459.8775 24.159374L461.1275 24.159374L461.1275 28.925Q461.1275 30.6125 462.5025 30.6125Q463.95563 30.6125 464.42438 29.534374L464.42438 24.159374L465.69 24.159374L465.69 31.55L464.48688 31.55L464.47125 30.815624ZM460.61188 22.175Q460.61188 21.8625 460.79938 21.659374Q460.98688 21.45625 461.36188 21.45625Q461.73688 21.45625 461.92438 21.659374Q462.11188 21.8625 462.11188 22.175Q462.11188 22.4875 461.92438 22.690624Q461.73688 22.89375 461.36188 22.89375Q460.98688 22.89375 460.79938 22.690624Q460.61188 22.4875 460.61188 22.175ZM463.54938 22.190624Q463.54938 21.878124 463.73688 21.675Q463.92438 21.45625 464.29938 21.45625Q464.67438 21.45625 464.86188 21.675Q465.04938 21.878124 465.04938 22.190624Q465.04938 22.503124 464.86188 22.70625Q464.67438 22.909374 464.29938 22.909374Q463.92438 22.909374 463.73688 22.70625Q463.54938 22.503124 463.54938 22.190624ZM469.09625 24.159374L469.1275 25.08125Q469.98688 24.01875 471.34625 24.01875Q473.69 24.01875 473.72125 26.659374L473.72125 31.55L472.45563 31.55L472.45563 26.659374Q472.44 25.8625 472.08063 25.4875Q471.72125 25.096874 470.97125 25.096874Q470.34625 25.096874 469.8775 25.425Q469.42438 25.753124 469.15875 26.284374L469.15875 31.55L467.89313 31.55L467.89313 24.159374L469.09625 24.159374ZM478.97125 31.690624Q477.45563 31.690624 476.51813 30.70625Q475.58063 29.70625 475.58063 28.05L475.58063 27.83125Q475.58063 26.721874 476.0025 25.8625Q476.42438 24.9875 477.17438 24.503124Q477.92438 24.01875 478.815 24.01875Q480.2525 24.01875 481.04938 24.971874Q481.84625 25.909374 481.84625 27.690624L481.84625 28.20625L476.84625 28.20625Q476.86188 29.3 477.47125 29.9875Q478.09625 30.659374 479.03375 30.659374Q479.70563 30.659374 480.15875 30.39375Q480.6275 30.1125 480.98688 29.659374L481.7525 30.253124Q480.83063 31.690624 478.97125 31.690624ZM478.815 25.05Q478.04938 25.05 477.51813 25.6125Q477.0025 26.175 476.8775 27.175L480.58063 27.175L480.58063 27.08125Q480.53375 26.1125 480.065 25.58125Q479.59625 25.05 478.815 25.05Z" fill-rule="nonzero"/><path fill="#1a1a1a" d="M394.84625 44.503124Q394.84625 42.971874 395.2525 41.55Q395.67438 40.128124 396.48688 38.971874Q397.315 37.8 398.20563 37.315624L398.45563 38.159374Q397.45563 38.925 396.815 40.503124Q396.19 42.065624 396.1275 44.003124L396.11188 44.596874Q396.11188 47.2375 397.08063 49.175Q397.65875 50.33125 398.45563 50.9875L398.20563 51.76875Q397.28375 51.253124 396.45563 50.065624Q394.84625 47.7375 394.84625 44.503124ZM402.53375 44.83125L399.19 44.83125L399.19 43.8L402.53375 43.8L402.53375 44.83125ZM410.28375 48.55L403.76813 48.55L403.76813 47.64375L407.20563 43.815624Q407.97125 42.940624 408.26813 42.409374Q408.565 41.8625 408.565 41.26875Q408.565 40.503124 408.08063 40.003124Q407.61188 39.503124 406.83063 39.503124Q405.89313 39.503124 405.36188 40.034374Q404.84625 40.565624 404.84625 41.534374L403.58063 41.534374Q403.58063 40.159374 404.45563 39.315624Q405.34625 38.45625 406.83063 38.45625Q408.22125 38.45625 409.01813 39.190624Q409.83063 39.909374 409.83063 41.128124Q409.83063 42.596874 407.95563 44.628124L405.29938 47.51875L410.28375 47.51875L410.28375 48.55ZM414.815 44.58125Q414.815 46.096874 414.40875 47.503124Q414.01813 48.89375 413.19 50.08125Q412.36188 51.26875 411.47125 51.76875L411.20563 50.9875Q412.2525 50.190624 412.89313 48.4875Q413.53375 46.784374 413.54938 44.721874L413.54938 44.503124Q413.54938 43.065624 413.23688 41.83125Q412.94 40.596874 412.40875 39.628124Q411.8775 38.64375 411.20563 38.096874L411.47125 37.315624Q412.36188 37.815624 413.17438 38.9875Q414.0025 40.159374 414.40875 41.565624Q414.815 42.971874 414.815 44.58125Z" fill-rule="nonzero"/><path fill="#000000" d="M385.94 71.05C385.94 74.36371 383.25372 77.05 379.94 77.05C376.62628 77.05 373.94 74.36371 373.94 71.05C373.94 67.73629 376.62628 65.05 379.94 65.05C383.25372 65.05 385.94 67.73629 385.94 71.05Z" fill-rule="nonzero"/><path fill="#1a1a1a" d="M400.58063 71.15938L396.40875 71.15938L396.40875 75.55L395.09625 75.55L395.09625 65.59688L401.26813 65.59688L401.26813 66.675L396.40875 66.675L396.40875 70.08125L400.58063 70.08125L400.58063 71.15938ZM407.47125 75.55Q407.36188 75.33125 407.28375 74.76875Q406.40875 75.69063 405.17438 75.69063Q404.08063 75.69063 403.3775 75.08125Q402.69 74.45625 402.69 73.50313Q402.69 72.34688 403.565 71.70625Q404.44 71.06563 406.03375 71.06563L407.26813 71.06563L407.26813 70.4875Q407.26813 69.81563 406.86188 69.425Q406.47125 69.03438 405.70563 69.03438Q405.01813 69.03438 404.565 69.37813Q404.11188 69.72188 404.11188 70.20625L402.83063 70.20625Q402.83063 69.64375 403.22125 69.12813Q403.6275 68.6125 404.29938 68.31563Q404.97125 68.01875 405.76813 68.01875Q407.04938 68.01875 407.76813 68.65938Q408.5025 69.3 408.53375 70.40938L408.53375 73.81563Q408.53375 74.83125 408.78375 75.44063L408.78375 75.55L407.47125 75.55ZM405.36188 74.58125Q405.95563 74.58125 406.48688 74.28438Q407.03375 73.97188 407.26813 73.47188L407.26813 71.95625L406.26813 71.95625Q403.95563 71.95625 403.95563 73.31563Q403.95563 73.90938 404.34625 74.25313Q404.73688 74.58125 405.36188 74.58125ZM413.86188 74.65938Q414.53375 74.65938 415.03375 74.25313Q415.54938 73.83125 415.61188 73.22188L416.79938 73.22188Q416.76813 73.84688 416.36188 74.425Q415.95563 75.00313 415.28375 75.34688Q414.61188 75.69063 413.86188 75.69063Q412.34625 75.69063 411.45563 74.69063Q410.565 73.675 410.565 71.925L410.565 71.70625Q410.565 70.62813 410.95563 69.78438Q411.36188 68.94063 412.09625 68.4875Q412.84625 68.01875 413.86188 68.01875Q415.09625 68.01875 415.92438 68.76875Q416.7525 69.50313 416.79938 70.69063L415.61188 70.69063Q415.54938 69.97188 415.065 69.51875Q414.58063 69.05 413.86188 69.05Q412.89313 69.05 412.36188 69.75313Q411.83063 70.44063 411.83063 71.75313L411.83063 71.9875Q411.83063 73.26875 412.36188 73.97188Q412.89313 74.65938 413.86188 74.65938ZM419.15875 69.05Q420.0025 68.01875 421.34625 68.01875Q423.69 68.01875 423.72125 70.65938L423.72125 75.55L422.45563 75.55L422.45563 70.65938Q422.44 69.8625 422.08063 69.4875Q421.72125 69.09688 420.97125 69.09688Q420.34625 69.09688 419.8775 69.425Q419.42438 69.75313 419.15875 70.28438L419.15875 75.55L417.89313 75.55L417.89313 65.05L419.15875 65.05L419.15875 69.05ZM432.44 73.8L433.86188 68.15938L435.1275 68.15938L432.98688 75.55L431.95563 75.55L430.15875 69.94063L428.40875 75.55L427.3775 75.55L425.23688 68.15938L426.48688 68.15938L427.95563 73.69063L429.67438 68.15938L430.69 68.15938L432.44 73.8ZM439.97125 75.69063Q438.45563 75.69063 437.51813 74.70625Q436.58063 73.70625 436.58063 72.05L436.58063 71.83125Q436.58063 70.72188 437.0025 69.8625Q437.42438 68.9875 438.17438 68.50313Q438.92438 68.01875 439.815 68.01875Q441.2525 68.01875 442.04938 68.97188Q442.84625 69.90938 442.84625 71.69063L442.84625 72.20625L437.84625 72.20625Q437.86188 73.3 438.47125 73.9875Q439.09625 74.65938 440.03375 74.65938Q440.70563 74.65938 441.15875 74.39375Q441.6275 74.1125 441.98688 73.65938L442.7525 74.25313Q441.83063 75.69063 439.97125 75.69063ZM439.815 69.05Q439.04938 69.05 438.51813 69.6125Q438.0025 70.175 437.8775 71.175L441.58063 71.175L441.58063 71.08125Q441.53375 70.1125 441.065 69.58125Q440.59625 69.05 439.815 69.05ZM447.47125 69.28438Q447.19 69.2375 446.84625 69.2375Q445.61188 69.2375 445.15875 70.3L445.15875 75.55L443.89313 75.55L443.89313 68.15938L445.1275 68.15938L445.14313 69.00313Q445.76813 68.01875 446.90875 68.01875Q447.28375 68.01875 447.47125 68.1125L447.47125 69.28438ZM450.95563 72.12813L450.17438 72.95625L450.17438 75.55L448.90875 75.55L448.90875 65.05L450.17438 65.05L450.17438 71.39375L450.84625 70.58125L453.14313 68.15938L454.69 68.15938L451.815 71.2375L455.01813 75.55L453.53375 75.55L450.95563 72.12813ZM458.84625 71.50313Q458.84625 69.97188 459.2525 68.55Q459.67438 67.12813 460.48688 65.97188Q461.315 64.8 462.20563 64.31563L462.45563 65.15938Q461.45563 65.925 460.815 67.50313Q460.19 69.06563 460.1275 71.00313L460.11188 71.59688Q460.11188 74.2375 461.08063 76.175Q461.65875 77.33125 462.45563 77.9875L462.20563 78.76875Q461.28375 78.25313 460.45563 77.06563Q458.84625 74.7375 458.84625 71.50313ZM466.53375 71.83125L463.19 71.83125L463.19 70.8L466.53375 70.8L466.53375 71.83125ZM469.61188 69.95625L470.54938 69.95625Q471.45563 69.94063 471.95563 69.4875Q472.47125 69.03438 472.47125 68.25313Q472.47125 66.50313 470.73688 66.50313Q469.90875 66.50313 469.42438 66.97188Q468.94 67.44063 468.94 68.20625L467.67438 68.20625Q467.67438 67.01875 468.53375 66.2375Q469.40875 65.45625 470.73688 65.45625Q472.14313 65.45625 472.94 66.20625Q473.73688 66.95625 473.73688 68.26875Q473.73688 68.925 473.315 69.53438Q472.90875 70.14375 472.17438 70.44063Q473.0025 70.70625 473.44 71.31563Q473.89313 71.90938 473.89313 72.76875Q473.89313 74.1125 473.01813 74.90938Q472.14313 75.69063 470.73688 75.69063Q469.34625 75.69063 468.45563 74.94063Q467.58063 74.175 467.58063 72.925L468.86188 72.925Q468.86188 73.70625 469.36188 74.19063Q469.8775 74.65938 470.73688 74.65938Q471.65875 74.65938 472.14313 74.175Q472.6275 73.69063 472.6275 72.8Q472.6275 71.94063 472.09625 71.47188Q471.565 71.00313 470.54938 70.9875L469.61188 70.9875L469.61188 69.95625ZM478.815 71.58125Q478.815 73.09688 478.40875 74.50313Q478.01813 75.89375 477.19 77.08125Q476.36188 78.26875 475.47125 78.76875L475.20563 77.9875Q476.2525 77.19063 476.89313 75.4875Q477.53375 73.78438 477.54938 71.72188L477.54938 71.50313Q477.54938 70.06563 477.23688 68.83125Q476.94 67.59688 476.40875 66.62813Q475.8775 65.64375 475.20563 65.09688L475.47125 64.31563Q476.36188 64.81563 477.17438 65.9875Q478.0025 67.15938 478.40875 68.56563Q478.815 69.97188 478.815 71.58125Z" fill-rule="nonzero"/><path fill="#cc0000" d="M385.94 98.05C385.94 101.36371 383.25372 104.05 379.94 104.05C376.62628 104.05 373.94 101.36371 373.94 98.05C373.94 94.73629 376.62628 92.05 379.94 92.05C383.25372 92.05 385.94 94.73629 385.94 98.05Z" fill-rule="nonzero"/><path fill="#1a1a1a" d="M399.26813 92.59688L400.58063 92.59688L400.58063 99.64375Q400.58063 101.06563 399.72125 101.87813Q398.86188 102.69063 397.44 102.69063Q395.95563 102.69063 395.1275 101.94063Q394.29938 101.175 394.29938 99.8L395.61188 99.8Q395.61188 100.65938 396.08063 101.14375Q396.54938 101.6125 397.44 101.6125Q398.2525 101.6125 398.7525 101.09688Q399.2525 100.58125 399.26813 99.65938L399.26813 92.59688ZM407.47125 101.81563Q406.72125 102.69063 405.29938 102.69063Q404.11188 102.69063 403.48688 102.00313Q402.8775 101.31563 402.8775 99.97188L402.8775 95.15938L404.1275 95.15938L404.1275 99.925Q404.1275 101.6125 405.5025 101.6125Q406.95563 101.6125 407.42438 100.53438L407.42438 95.15938L408.69 95.15938L408.69 102.55L407.48688 102.55L407.47125 101.81563ZM415.20563 100.58125Q415.20563 100.08125 414.815 99.8Q414.42438 99.50313 413.47125 99.3Q412.51813 99.09688 411.94 98.81563Q411.3775 98.51875 411.11188 98.12813Q410.84625 97.7375 410.84625 97.19063Q410.84625 96.26875 411.61188 95.64375Q412.3775 95.01875 413.58063 95.01875Q414.83063 95.01875 415.61188 95.675Q416.39313 96.31563 416.39313 97.33125L415.1275 97.33125Q415.1275 96.8 414.69 96.425Q414.2525 96.05 413.58063 96.05Q412.89313 96.05 412.5025 96.3625Q412.11188 96.65938 412.11188 97.14375Q412.11188 97.59688 412.47125 97.83125Q412.83063 98.06563 413.76813 98.28438Q414.72125 98.4875 415.315 98.78438Q415.90875 99.08125 416.19 99.50313Q416.47125 99.90938 416.47125 100.50313Q416.47125 101.4875 415.67438 102.09688Q414.8775 102.69063 413.61188 102.69063Q412.73688 102.69063 412.04938 102.37813Q411.36188 102.05 410.97125 101.4875Q410.59625 100.925 410.59625 100.26875L411.86188 100.26875Q411.89313 100.90938 412.36188 101.28438Q412.84625 101.65938 413.61188 101.65938Q414.33063 101.65938 414.76813 101.3625Q415.20563 101.06563 415.20563 100.58125ZM417.565 98.78438Q417.565 97.69063 417.98688 96.83125Q418.42438 95.95625 419.17438 95.4875Q419.94 95.01875 420.92438 95.01875Q422.42438 95.01875 423.36188 96.06563Q424.29938 97.1125 424.29938 98.84688L424.29938 98.94063Q424.29938 100.01875 423.8775 100.87813Q423.47125 101.72188 422.69 102.20625Q421.92438 102.69063 420.94 102.69063Q419.42438 102.69063 418.48688 101.64375Q417.565 100.59688 417.565 98.87813L417.565 98.78438ZM418.83063 98.94063Q418.83063 100.15938 419.39313 100.90938Q419.97125 101.65938 420.94 101.65938Q421.89313 101.65938 422.45563 100.90938Q423.03375 100.14375 423.03375 98.78438Q423.03375 97.56563 422.45563 96.81563Q421.8775 96.05 420.92438 96.05Q419.98688 96.05 419.40875 96.8Q418.83063 97.55 418.83063 98.94063ZM430.20563 100.58125Q430.20563 100.08125 429.815 99.8Q429.42438 99.50313 428.47125 99.3Q427.51813 99.09688 426.94 98.81563Q426.3775 98.51875 426.11188 98.12813Q425.84625 97.7375 425.84625 97.19063Q425.84625 96.26875 426.61188 95.64375Q427.3775 95.01875 428.58063 95.01875Q429.83063 95.01875 430.61188 95.675Q431.39313 96.31563 431.39313 97.33125L430.1275 97.33125Q430.1275 96.8 429.69 96.425Q429.2525 96.05 428.58063 96.05Q427.89313 96.05 427.5025 96.3625Q427.11188 96.65938 427.11188 97.14375Q427.11188 97.59688 427.47125 97.83125Q427.83063 98.06563 428.76813 98.28438Q429.72125 98.4875 430.315 98.78438Q430.90875 99.08125 431.19 99.50313Q431.47125 99.90938 431.47125 100.50313Q431.47125 101.4875 430.67438 102.09688Q429.8775 102.69063 428.61188 102.69063Q427.73688 102.69063 427.04938 102.37813Q426.36188 102.05 425.97125 101.4875Q425.59625 100.925 425.59625 100.26875L426.86188 100.26875Q426.89313 100.90938 427.36188 101.28438Q427.84625 101.65938 428.61188 101.65938Q429.33063 101.65938 429.76813 101.3625Q430.20563 101.06563 430.20563 100.58125ZM435.84625 98.50313Q435.84625 96.97188 436.2525 95.55Q436.67438 94.12813 437.48688 92.97188Q438.315 91.8 439.20563 91.31563L439.45563 92.15938Q438.45563 92.925 437.815 94.50313Q437.19 96.06563 437.1275 98.00313L437.11188 98.59688Q437.11188 101.2375 438.08063 103.175Q438.65875 104.33125 439.45563 104.9875L439.20563 105.76875Q438.28375 105.25313 437.45563 104.06563Q435.84625 101.7375 435.84625 98.50313ZM447.0025 98.3Q447.0025 100.51875 446.23688 101.6125Q445.48688 102.69063 443.8775 102.69063Q442.28375 102.69063 441.51813 101.64375Q440.7525 100.58125 440.72125 98.47188L440.72125 96.78438Q440.72125 94.59688 441.47125 93.53438Q442.23688 92.45625 443.86188 92.45625Q445.47125 92.45625 446.22125 93.4875Q446.98688 94.51875 447.0025 96.65938L447.0025 98.3ZM445.73688 96.58125Q445.73688 94.97188 445.28375 94.2375Q444.84625 93.50313 443.86188 93.50313Q442.89313 93.50313 442.44 94.2375Q442.0025 94.95625 441.98688 96.47188L441.98688 98.50313Q441.98688 100.1125 442.45563 100.89375Q442.92438 101.65938 443.8775 101.65938Q444.815 101.65938 445.26813 100.94063Q445.72125 100.20625 445.73688 98.64375L445.73688 96.58125ZM451.815 98.58125Q451.815 100.09688 451.40875 101.50313Q451.01813 102.89375 450.19 104.08125Q449.36188 105.26875 448.47125 105.76875L448.20563 104.9875Q449.2525 104.19063 449.89313 102.4875Q450.53375 100.78438 450.54938 98.72188L450.54938 98.50313Q450.54938 97.06563 450.23688 95.83125Q449.94 94.59688 449.40875 93.62813Q448.8775 92.64375 448.20563 92.09688L448.47125 91.31563Q449.36188 91.81563 450.17438 92.9875Q451.0025 94.15938 451.40875 95.56563Q451.815 96.97188 451.815 98.58125Z" fill-rule="nonzero"/><path fill="#f1c232" d="M385.94 125.05C385.94 128.36371 383.25372 131.05 379.94 131.05C376.62628 131.05 373.94 128.36371 373.94 125.05C373.94 121.73629 376.62628 119.05 379.94 119.05C383.25372 119.05 385.94 121.73629 385.94 125.05Z" fill-rule="nonzero"/><path fill="#1a1a1a" d="M396.40875 128.47188L401.1275 128.47188L401.1275 129.55L395.09625 129.55L395.09625 119.59688L396.40875 119.59688L396.40875 128.47188ZM410.7525 129.55L409.42438 129.55L409.42438 124.95625L404.40875 124.95625L404.40875 129.55L403.09625 129.55L403.09625 119.59688L404.40875 119.59688L404.40875 123.87813L409.42438 123.87813L409.42438 119.59688L410.7525 119.59688L410.7525 129.55ZM420.44 128.2375Q419.94 128.97188 419.03375 129.33125Q418.1275 129.69063 416.92438 129.69063Q415.70563 129.69063 414.7525 129.12813Q413.815 128.55 413.29938 127.50313Q412.78375 126.44063 412.76813 125.05L412.76813 124.19063Q412.76813 121.94063 413.815 120.70625Q414.8775 119.45625 416.76813 119.45625Q418.33063 119.45625 419.28375 120.25313Q420.23688 121.05 420.44 122.51875L419.1275 122.51875Q418.76813 120.53438 416.78375 120.53438Q415.45563 120.53438 414.76813 121.47188Q414.09625 122.39375 414.09625 124.14375L414.09625 124.95625Q414.09625 126.64375 414.86188 127.62813Q415.6275 128.6125 416.92438 128.6125Q417.67438 128.6125 418.22125 128.45625Q418.78375 128.28438 419.14313 127.89375L419.14313 125.65938L416.83063 125.65938L416.83063 124.59688L420.44 124.59688L420.44 128.2375ZM425.84625 125.50313Q425.84625 123.97188 426.2525 122.55Q426.67438 121.12813 427.48688 119.97188Q428.315 118.8 429.20563 118.31563L429.45563 119.15938Q428.45563 119.925 427.815 121.50313Q427.19 123.06563 427.1275 125.00313L427.11188 125.59688Q427.11188 128.2375 428.08063 130.175Q428.65875 131.33125 429.45563 131.9875L429.20563 132.76875Q428.28375 132.25313 427.45563 131.06563Q425.84625 128.7375 425.84625 125.50313ZM434.51813 124.20625L437.29938 124.20625L437.29938 125.40938L434.51813 125.40938L434.51813 128.55L433.2525 128.55L433.2525 125.40938L430.47125 125.40938L430.47125 124.20625L433.2525 124.20625L433.2525 121.3L434.51813 121.3L434.51813 124.20625ZM442.92438 129.55L441.65875 129.55L441.65875 121.12813L439.09625 122.05L439.09625 120.90938L442.72125 119.55L442.92438 119.55L442.92438 129.55ZM449.815 125.58125Q449.815 127.09688 449.40875 128.50313Q449.01813 129.89375 448.19 131.08125Q447.36188 132.26875 446.47125 132.76875L446.20563 131.9875Q447.2525 131.19063 447.89313 129.4875Q448.53375 127.78438 448.54938 125.72188L448.54938 125.50313Q448.54938 124.06563 448.23688 122.83125Q447.94 121.59688 447.40875 120.62813Q446.8775 119.64375 446.20563 119.09688L446.47125 118.31563Q447.36188 118.81563 448.17438 119.9875Q449.0025 121.15938 449.40875 122.56563Q449.815 123.97188 449.815 125.58125Z" fill-rule="nonzero"/><path fill="#a64d79" d="M385.94 152.05C385.94 155.36371 383.25372 158.05 379.94 158.05C376.62628 158.05 373.94 155.36371 373.94 152.05C373.94 148.7363 376.62628 146.05 379.94 146.05C383.25372 146.05 385.94 148.7363 385.94 152.05Z" fill-rule="nonzero"/><path fill="#1a1a1a" d="M398.03375 152.1125Q396.34625 151.62813 395.565 150.925Q394.79938 150.20625 394.79938 149.175Q394.79938 148.00313 395.73688 147.2375Q396.67438 146.45625 398.19 146.45625Q399.20563 146.45625 400.0025 146.8625Q400.815 147.25313 401.2525 147.95625Q401.70563 148.64375 401.70563 149.47188L400.3775 149.47188Q400.3775 148.56563 399.79938 148.05Q399.23688 147.53438 398.19 147.53438Q397.22125 147.53438 396.67438 147.97188Q396.1275 148.39375 396.1275 149.15938Q396.1275 149.76875 396.64313 150.19063Q397.15875 150.59688 398.39313 150.95625Q399.64313 151.3 400.34625 151.72188Q401.04938 152.14375 401.3775 152.70625Q401.72125 153.26875 401.72125 154.01875Q401.72125 155.2375 400.76813 155.97188Q399.83063 156.69063 398.2525 156.69063Q397.22125 156.69063 396.33063 156.3Q395.45563 155.89375 394.97125 155.22188Q394.48688 154.53438 394.48688 153.65938L395.79938 153.65938Q395.79938 154.56563 396.47125 155.09688Q397.14313 155.6125 398.2525 155.6125Q399.29938 155.6125 399.84625 155.19063Q400.39313 154.76875 400.39313 154.03438Q400.39313 153.3 399.8775 152.90938Q399.3775 152.50313 398.03375 152.1125ZM403.09625 156.55L403.09625 146.59688L405.90875 146.59688Q407.20563 146.59688 408.20563 147.175Q409.20563 147.7375 409.73688 148.8Q410.28375 149.8625 410.29938 151.2375L410.29938 151.87813Q410.29938 153.28438 409.7525 154.34688Q409.20563 155.39375 408.19 155.97188Q407.19 156.53438 405.84625 156.55L403.09625 156.55ZM404.40875 147.675L404.40875 155.47188L405.78375 155.47188Q407.29938 155.47188 408.14313 154.53438Q409.0025 153.59688 409.0025 151.84688L409.0025 151.26875Q409.0025 149.56563 408.20563 148.62813Q407.40875 147.69063 405.94 147.675L404.40875 147.675ZM415.03375 152.1125Q413.34625 151.62813 412.565 150.925Q411.79938 150.20625 411.79938 149.175Q411.79938 148.00313 412.73688 147.2375Q413.67438 146.45625 415.19 146.45625Q416.20563 146.45625 417.0025 146.8625Q417.815 147.25313 418.2525 147.95625Q418.70563 148.64375 418.70563 149.47188L417.3775 149.47188Q417.3775 148.56563 416.79938 148.05Q416.23688 147.53438 415.19 147.53438Q414.22125 147.53438 413.67438 147.97188Q413.1275 148.39375 413.1275 149.15938Q413.1275 149.76875 413.64313 150.19063Q414.15875 150.59688 415.39313 150.95625Q416.64313 151.3 417.34625 151.72188Q418.04938 152.14375 418.3775 152.70625Q418.72125 153.26875 418.72125 154.01875Q418.72125 155.2375 417.76813 155.97188Q416.83063 156.69063 415.2525 156.69063Q414.22125 156.69063 413.33063 156.3Q412.45563 155.89375 411.97125 155.22188Q411.48688 154.53438 411.48688 153.65938L412.79938 153.65938Q412.79938 154.56563 413.47125 155.09688Q414.14313 155.6125 415.2525 155.6125Q416.29938 155.6125 416.84625 155.19063Q417.39313 154.76875 417.39313 154.03438Q417.39313 153.3 416.8775 152.90938Q416.3775 152.50313 415.03375 152.1125ZM422.84625 152.50313Q422.84625 150.97188 423.2525 149.55Q423.67438 148.12813 424.48688 146.97188Q425.315 145.8 426.20563 145.31563L426.45563 146.15938Q425.45563 146.925 424.815 148.50313Q424.19 150.06563 424.1275 152.00313L424.11188 152.59688Q424.11188 155.2375 425.08063 157.175Q425.65875 158.33125 426.45563 158.9875L426.20563 159.76875Q425.28375 159.25313 424.45563 158.06563Q422.84625 155.7375 422.84625 152.50313ZM434.0025 152.3Q434.0025 154.51875 433.23688 155.6125Q432.48688 156.69063 430.8775 156.69063Q429.28375 156.69063 428.51813 155.64375Q427.7525 154.58125 427.72125 152.47188L427.72125 150.78438Q427.72125 148.59688 428.47125 147.53438Q429.23688 146.45625 430.86188 146.45625Q432.47125 146.45625 433.22125 147.4875Q433.98688 148.51875 434.0025 150.65938L434.0025 152.3ZM432.73688 150.58125Q432.73688 148.97188 432.28375 148.2375Q431.84625 147.50313 430.86188 147.50313Q429.89313 147.50313 429.44 148.2375Q429.0025 148.95625 428.98688 150.47188L428.98688 152.50313Q428.98688 154.1125 429.45563 154.89375Q429.92438 155.65938 430.8775 155.65938Q431.815 155.65938 432.26813 154.94063Q432.72125 154.20625 432.73688 152.64375L432.73688 150.58125ZM438.815 152.58125Q438.815 154.09688 438.40875 155.50313Q438.01813 156.89375 437.19 158.08125Q436.36188 159.26875 435.47125 159.76875L435.20563 158.9875Q436.2525 158.19063 436.89313 156.4875Q437.53375 154.78438 437.54938 152.72188L437.54938 152.50313Q437.54938 151.06563 437.23688 149.83125Q436.94 148.59688 436.40875 147.62813Q435.8775 146.64375 435.20563 146.09688L435.47125 145.31563Q436.36188 145.81563 437.17438 146.9875Q438.0025 148.15938 438.40875 149.56563Q438.815 150.97188 438.815 152.58125Z" fill-rule="nonzero"/><path fill="#3d85c6" d="M385.94 179.05C385.94 182.36371 383.25372 185.05 379.94 185.05C376.62628 185.05 373.94 182.36371 373.94 179.05C373.94 175.7363 376.62628 173.05 379.94 173.05C383.25372 173.05 385.94 175.7363 385.94 179.05Z" fill-rule="nonzero"/><path fill="#1a1a1a" d="M398.7525 179.51875L396.40875 179.51875L396.40875 183.55L395.09625 183.55L395.09625 173.59688L398.3775 173.59688Q400.065 173.59688 400.97125 174.3625Q401.8775 175.12813 401.8775 176.59688Q401.8775 177.51875 401.3775 178.20625Q400.8775 178.89375 399.97125 179.2375L402.315 183.47188L402.315 183.55L400.90875 183.55L398.7525 179.51875ZM396.40875 178.45625L398.42438 178.45625Q399.40875 178.45625 399.98688 177.95625Q400.565 177.44063 400.565 176.59688Q400.565 175.675 400.0025 175.19063Q399.45563 174.69063 398.42438 174.675L396.40875 174.675L396.40875 178.45625ZM411.42438 180.39375Q411.23688 181.97188 410.2525 182.83125Q409.26813 183.69063 407.64313 183.69063Q405.8775 183.69063 404.815 182.425Q403.7525 181.15938 403.7525 179.03438L403.7525 178.08125Q403.7525 176.69063 404.2525 175.64375Q404.7525 174.58125 405.65875 174.01875Q406.565 173.45625 407.7525 173.45625Q409.34625 173.45625 410.29938 174.34688Q411.2525 175.2375 411.42438 176.8L410.09625 176.8Q409.92438 175.6125 409.34625 175.08125Q408.78375 174.53438 407.7525 174.53438Q406.5025 174.53438 405.78375 175.47188Q405.08063 176.39375 405.08063 178.1125L405.08063 179.08125Q405.08063 180.70625 405.7525 181.65938Q406.42438 182.6125 407.64313 182.6125Q408.73688 182.6125 409.315 182.12813Q409.90875 181.62813 410.09625 180.39375L411.42438 180.39375ZM413.09625 183.55L413.09625 173.59688L415.90875 173.59688Q417.20563 173.59688 418.20563 174.175Q419.20563 174.7375 419.73688 175.8Q420.28375 176.8625 420.29938 178.2375L420.29938 178.87813Q420.29938 180.28438 419.7525 181.34688Q419.20563 182.39375 418.19 182.97188Q417.19 183.53438 415.84625 183.55L413.09625 183.55ZM414.40875 174.675L414.40875 182.47188L415.78375 182.47188Q417.29938 182.47188 418.14313 181.53438Q419.0025 180.59688 419.0025 178.84688L419.0025 178.26875Q419.0025 176.56563 418.20563 175.62813Q417.40875 174.69063 415.94 174.675L414.40875 174.675ZM425.03375 179.1125Q423.34625 178.62813 422.565 177.925Q421.79938 177.20625 421.79938 176.175Q421.79938 175.00313 422.73688 174.2375Q423.67438 173.45625 425.19 173.45625Q426.20563 173.45625 427.0025 173.8625Q427.815 174.25313 428.2525 174.95625Q428.70563 175.64375 428.70563 176.47188L427.3775 176.47188Q427.3775 175.56563 426.79938 175.05Q426.23688 174.53438 425.19 174.53438Q424.22125 174.53438 423.67438 174.97188Q423.1275 175.39375 423.1275 176.15938Q423.1275 176.76875 423.64313 177.19063Q424.15875 177.59688 425.39313 177.95625Q426.64313 178.3 427.34625 178.72188Q428.04938 179.14375 428.3775 179.70625Q428.72125 180.26875 428.72125 181.01875Q428.72125 182.2375 427.76813 182.97188Q426.83063 183.69063 425.2525 183.69063Q424.22125 183.69063 423.33063 183.3Q422.45563 182.89375 421.97125 182.22188Q421.48688 181.53438 421.48688 180.65938L422.79938 180.65938Q422.79938 181.56563 423.47125 182.09688Q424.14313 182.6125 425.2525 182.6125Q426.29938 182.6125 426.84625 182.19063Q427.39313 181.76875 427.39313 181.03438Q427.39313 180.3 426.8775 179.90938Q426.3775 179.50313 425.03375 179.1125ZM432.84625 179.50313Q432.84625 177.97188 433.2525 176.55Q433.67438 175.12813 434.48688 173.97188Q435.315 172.8 436.20563 172.31563L436.45563 173.15938Q435.45563 173.925 434.815 175.50313Q434.19 177.06563 434.1275 179.00313L434.11188 179.59688Q434.11188 182.2375 435.08063 184.175Q435.65875 185.33125 436.45563 185.9875L436.20563 186.76875Q435.28375 186.25313 434.45563 185.06563Q432.84625 182.7375 432.84625 179.50313ZM441.51813 178.20625L444.29938 178.20625L444.29938 179.40938L441.51813 179.40938L441.51813 182.55L440.2525 182.55L440.2525 179.40938L437.47125 179.40938L437.47125 178.20625L440.2525 178.20625L440.2525 175.3L441.51813 175.3L441.51813 178.20625ZM447.61188 177.95625L448.54938 177.95625Q449.45563 177.94063 449.95563 177.4875Q450.47125 177.03438 450.47125 176.25313Q450.47125 174.50313 448.73688 174.50313Q447.90875 174.50313 447.42438 174.97188Q446.94 175.44063 446.94 176.20625L445.67438 176.20625Q445.67438 175.01875 446.53375 174.2375Q447.40875 173.45625 448.73688 173.45625Q450.14313 173.45625 450.94 174.20625Q451.73688 174.95625 451.73688 176.26875Q451.73688 176.925 451.315 177.53438Q450.90875 178.14375 450.17438 178.44063Q451.0025 178.70625 451.44 179.31563Q451.89313 179.90938 451.89313 180.76875Q451.89313 182.1125 451.01813 182.90938Q450.14313 183.69063 448.73688 183.69063Q447.34625 183.69063 446.45563 182.94063Q445.58063 182.175 445.58063 180.925L446.86188 180.925Q446.86188 181.70625 447.36188 182.19063Q447.8775 182.65938 448.73688 182.65938Q449.65875 182.65938 450.14313 182.175Q450.6275 181.69063 450.6275 180.8Q450.6275 179.94063 450.09625 179.47188Q449.565 179.00313 448.54938 178.9875L447.61188 178.9875L447.61188 177.95625ZM456.815 179.58125Q456.815 181.09688 456.40875 182.50313Q456.01813 183.89375 455.19 185.08125Q454.36188 186.26875 453.47125 186.76875L453.20563 185.9875Q454.2525 185.19063 454.89313 183.4875Q455.53375 181.78438 455.54938 179.72188L455.54938 179.50313Q455.54938 178.06563 455.23688 176.83125Q454.94 175.59688 454.40875 174.62813Q453.8775 173.64375 453.20563 173.09688L453.47125 172.31563Q454.36188 172.81563 455.17438 173.9875Q456.0025 175.15938 456.40875 176.56563Q456.815 177.97188 456.815 179.58125Z" fill-rule="nonzero"/><path fill="#b7b7b7" d="M385.94 206.05C385.94 209.36371 383.25372 212.05 379.94 212.05C376.62628 212.05 373.94 209.36371 373.94 206.05C373.94 202.7363 376.62628 200.05 379.94 200.05C383.25372 200.05 385.94 202.7363 385.94 206.05Z" fill-rule="nonzero"/><path fill="#1a1a1a" d="M396.40875 206.65938L396.40875 210.55L395.09625 210.55L395.09625 200.59688L398.76813 200.59688Q400.39313 200.59688 401.315 201.44063Q402.2525 202.26875 402.2525 203.64375Q402.2525 205.08125 401.34625 205.87813Q400.44 206.65938 398.7525 206.65938L396.40875 206.65938ZM396.40875 205.58125L398.76813 205.58125Q399.815 205.58125 400.3775 205.08125Q400.94 204.58125 400.94 203.65938Q400.94 202.76875 400.3775 202.2375Q399.815 201.69063 398.84625 201.675L396.40875 201.675L396.40875 205.58125ZM409.59625 207.95625L405.42438 207.95625L404.48688 210.55L403.1275 210.55L406.94 200.59688L408.08063 200.59688L411.89313 210.55L410.54938 210.55L409.59625 207.95625ZM405.815 206.87813L409.20563 206.87813L407.5025 202.22188L405.815 206.87813ZM416.7525 206.51875L414.40875 206.51875L414.40875 210.55L413.09625 210.55L413.09625 200.59688L416.3775 200.59688Q418.065 200.59688 418.97125 201.3625Q419.8775 202.12813 419.8775 203.59688Q419.8775 204.51875 419.3775 205.20625Q418.8775 205.89375 417.97125 206.2375L420.315 210.47188L420.315 210.55L418.90875 210.55L416.7525 206.51875ZM414.40875 205.45625L416.42438 205.45625Q417.40875 205.45625 417.98688 204.95625Q418.565 204.44063 418.565 203.59688Q418.565 202.675 418.0025 202.19063Q417.45563 201.69063 416.42438 201.675L414.40875 201.675L414.40875 205.45625ZM428.97125 201.675L425.76813 201.675L425.76813 210.55L424.47125 210.55L424.47125 201.675L421.26813 201.675L421.26813 200.59688L428.97125 200.59688L428.97125 201.675ZM435.72125 205.95625L431.40875 205.95625L431.40875 209.47188L436.42438 209.47188L436.42438 210.55L430.09625 210.55L430.09625 200.59688L436.34625 200.59688L436.34625 201.675L431.40875 201.675L431.40875 204.87813L435.72125 204.87813L435.72125 205.95625ZM439.5025 210.55L438.19 210.55L438.19 200.59688L439.5025 200.59688L439.5025 210.55ZM444.84625 206.50313Q444.84625 204.97188 445.2525 203.55Q445.67438 202.12813 446.48688 200.97188Q447.315 199.8 448.20563 199.31563L448.45563 200.15938Q447.45563 200.925 446.815 202.50313Q446.19 204.06563 446.1275 206.00313L446.11188 206.59688Q446.11188 209.2375 447.08063 211.175Q447.65875 212.33125 448.45563 212.9875L448.20563 213.76875Q447.28375 213.25313 446.45563 212.06563Q444.84625 209.7375 444.84625 206.50313ZM453.51813 205.20625L456.29938 205.20625L456.29938 206.40938L453.51813 206.40938L453.51813 209.55L452.2525 209.55L452.2525 206.40938L449.47125 206.40938L449.47125 205.20625L452.2525 205.20625L452.2525 202.3L453.51813 202.3L453.51813 205.20625ZM464.28375 210.55L457.76813 210.55L457.76813 209.64375L461.20563 205.81563Q461.97125 204.94063 462.26813 204.40938Q462.565 203.8625 462.565 203.26875Q462.565 202.50313 462.08063 202.00313Q461.61188 201.50313 460.83063 201.50313Q459.89313 201.50313 459.36188 202.03438Q458.84625 202.56563 458.84625 203.53438L457.58063 203.53438Q457.58063 202.15938 458.45563 201.31563Q459.34625 200.45625 460.83063 200.45625Q462.22125 200.45625 463.01813 201.19063Q463.83063 201.90938 463.83063 203.12813Q463.83063 204.59688 461.95563 206.62813L459.29938 209.51875L464.28375 209.51875L464.28375 210.55ZM468.815 206.58125Q468.815 208.09688 468.40875 209.50313Q468.01813 210.89375 467.19 212.08125Q466.36188 213.26875 465.47125 213.76875L465.20563 212.9875Q466.2525 212.19063 466.89313 210.4875Q467.53375 208.78438 467.54938 206.72188L467.54938 206.50313Q467.54938 205.06563 467.23688 203.83125Q466.94 202.59688 466.40875 201.62813Q465.8775 200.64375 465.20563 200.09688L465.47125 199.31563Q466.36188 199.81563 467.17438 200.9875Q468.0025 202.15938 468.40875 203.56563Q468.815 204.97188 468.815 206.58125Z" fill-rule="nonzero"/></svg>