<svg version="1.1" viewBox="0.0 0.0 575.0 344.0" fill="none" stroke="none" stroke-linecap="square" stroke-miterlimit="10" width="575" height="344" xmlns:xlink="http://www.w3.org/1999/xlink" xmlns="http://www.w3.org/2000/svg"><path fill="#ffffff" d="M0 0L575.0 0L575.0 344.0L0 344.0L0 0Z" fill-rule="nonzero"/><path stroke="#333333" stroke-width="1.0" stroke-linecap="butt" d="M44.5 305.5L557.5 305.5" fill-rule="nonzero"/><path stroke="#cccccc" stroke-width="1.0" stroke-linecap="butt" d="M44.5 265.5L557.5 265.5" fill-rule="nonzero"/><path stroke="#cccccc" stroke-width="1.0" stroke-linecap="butt" d="M44.5 225.5L557.5 225.5" fill-rule="nonzero"/><path stroke="#cccccc" stroke-width="1.0" stroke-linecap="butt" d="M44.5 185.5L557.5 185.5" fill-rule="nonzero"/><path stroke="#cccccc" stroke-width="1.0" stroke-linecap="butt" d="M44.5 145.5L557.5 145.5" fill-rule="nonzero"/><path stroke="#cccccc" stroke-width="1.0" stroke-linecap="butt" d="M44.5 105.5L557.5 105.5" fill-rule="nonzero"/><path stroke="#cccccc" stroke-width="1.0" stroke-linecap="butt" d="M44.5 64.5L557.5 64.5" fill-rule="nonzero"/><path stroke="#cccccc" stroke-width="1.0" stroke-linecap="butt" d="M44.5 24.5L557.5 24.5" fill-rule="nonzero"/><path stroke="#000000" stroke-width="1.0" stroke-linecap="butt" d="M44.5 305.5L44.5 24.5" fill-rule="nonzero"/><clipPath id="id_0"><path d="M44.2 24.7L557.8 24.7L557.8 305.8L44.2 305.8L44.2 24.7Z" clip-rule="nonzero"/></clipPath><path stroke="#000000" stroke-width="2.0" stroke-linecap="butt" stroke-opacity="0.0" clip-path="url(#id_0)" d="M114.0 306.0L69.0 306.0L69.0 65.0C69.0 63.89543 69.89543 63.0 71.0 63.0L112.0 63.0C113.10457 63.0 114.0 63.89543 114.0 65.0Z" fill-rule="nonzero"/><path fill="#6aa84f" clip-path="url(#id_0)" d="M114.0 306.0L69.0 306.0L69.0 65.0C69.0 63.89543 69.89543 63.0 71.0 63.0L112.0 63.0C113.10457 63.0 114.0 63.89543 114.0 65.0Z" fill-rule="nonzero"/><path stroke="#000000" stroke-width="2.0" stroke-linecap="butt" stroke-opacity="0.0" clip-path="url(#id_0)" d="M184.0 306.0L139.0 306.0L139.0 138.0C139.0 136.89543 139.89543 136.0 141.0 136.0L182.0 136.0C183.10457 136.0 184.0 136.89543 184.0 138.0Z" fill-rule="nonzero"/><path fill="#000000" clip-path="url(#id_0)" d="M184.0 306.0L139.0 306.0L139.0 138.0C139.0 136.89543 139.89543 136.0 141.0 136.0L182.0 136.0C183.10457 136.0 184.0 136.89543 184.0 138.0Z" fill-rule="nonzero"/><path stroke="#000000" stroke-width="2.0" stroke-linecap="butt" stroke-opacity="0.0" clip-path="url(#id_0)" d="M254.0 306.0L209.0 306.0L209.0 213.0C209.0 211.89543 209.89543 211.0 211.0 211.0L252.0 211.0C253.10457 211.0 254.0 211.89543 254.0 213.0Z" fill-rule="nonzero"/><path fill="#f1c232" clip-path="url(#id_0)" d="M254.0 306.0L209.0 306.0L209.0 213.0C209.0 211.89543 209.89543 211.0 211.0 211.0L252.0 211.0C253.10457 211.0 254.0 211.89543 254.0 213.0Z" fill-rule="nonzero"/><path stroke="#000000" stroke-width="2.0" stroke-linecap="butt" stroke-opacity="0.0" clip-path="url(#id_0)" d="M324.0 306.0L279.0 306.0L279.0 227.0C279.0 225.89543 279.89542 225.0 281.0 225.0L322.0 225.0C323.10458 225.0 324.0 225.89543 324.0 227.0Z" fill-rule="nonzero"/><path fill="#cc0000" clip-path="url(#id_0)" d="M324.0 306.0L279.0 306.0L279.0 227.0C279.0 225.89543 279.89542 225.0 281.0 225.0L322.0 225.0C323.10458 225.0 324.0 225.89543 324.0 227.0Z" fill-rule="nonzero"/><path stroke="#000000" stroke-width="2.0" stroke-linecap="butt" stroke-opacity="0.0" clip-path="url(#id_0)" d="M394.0 306.0L349.0 306.0L349.0 233.0C349.0 231.89543 349.89542 231.0 351.0 231.0L392.0 231.0C393.10458 231.0 394.0 231.89543 394.0 233.0Z" fill-rule="nonzero"/><path fill="#3d85c6" clip-path="url(#id_0)" d="M394.0 306.0L349.0 306.0L349.0 233.0C349.0 231.89543 349.89542 231.0 351.0 231.0L392.0 231.0C393.10458 231.0 394.0 231.89543 394.0 233.0Z" fill-rule="nonzero"/><path stroke="#000000" stroke-width="2.0" stroke-linecap="butt" stroke-opacity="0.0" clip-path="url(#id_0)" d="M464.0 306.0L419.0 306.0L419.0 251.0C419.0 249.89543 419.89542 249.0 421.0 249.0L462.0 249.0C463.10458 249.0 464.0 249.89543 464.0 251.0Z" fill-rule="nonzero"/><path fill="#999999" clip-path="url(#id_0)" d="M464.0 306.0L419.0 306.0L419.0 251.0C419.0 249.89543 419.89542 249.0 421.0 249.0L462.0 249.0C463.10458 249.0 464.0 249.89543 464.0 251.0Z" fill-rule="nonzero"/><path stroke="#000000" stroke-width="2.0" stroke-linecap="butt" stroke-opacity="0.0" clip-path="url(#id_0)" d="M534.0 306.0L489.0 306.0L489.0 262.0C489.0 260.89542 489.89542 260.0 491.0 260.0L532.0 260.0C533.10455 260.0 534.0 260.89542 534.0 262.0Z" fill-rule="nonzero"/><path fill="#a64d79" clip-path="url(#id_0)" d="M534.0 306.0L489.0 306.0L489.0 262.0C489.0 260.89542 489.89542 260.0 491.0 260.0L532.0 260.0C533.10455 260.0 534.0 260.89542 534.0 262.0Z" fill-rule="nonzero"/><path fill="#000000" d="M37.2625 306.65936Q37.2625 308.5656 36.60625 309.5031Q35.965626 310.425 34.575 310.425Q33.215626 310.425 32.559376 309.51874Q31.903126 308.6125 31.871876 306.8L31.871876 305.3625Q31.871876 303.47186 32.5125 302.5656Q33.16875 301.64374 34.559376 301.64374Q35.934376 301.64374 36.590626 302.53436Q37.246876 303.40936 37.2625 305.2531L37.2625 306.65936ZM36.16875 305.175Q36.16875 303.8 35.778126 303.175Q35.403126 302.53436 34.559376 302.53436Q33.73125 302.53436 33.340626 303.175Q32.965626 303.8 32.965626 305.09686L32.965626 306.83124Q32.965626 308.20624 33.35625 308.8781Q33.7625 309.53436 34.575 309.53436Q35.371876 309.53436 35.7625 308.90936Q36.153126 308.28436 36.16875 306.95624L36.16875 305.175Z" fill-rule="nonzero"/><path fill="#000000" d="M32.403126 265.8616L32.840626 261.6116L37.215626 261.6116L37.215626 262.6116L33.7625 262.6116L33.496876 264.93973Q34.1375 264.56473 34.934376 264.56473Q36.090626 264.56473 36.778126 265.34598Q37.465626 266.1116 37.465626 267.4241Q37.465626 268.7366 36.746876 269.50223Q36.04375 270.26785 34.7625 270.26785Q33.6375 270.26785 32.91875 269.64285Q32.2 269.00223 32.10625 267.89285L33.121876 267.89285Q33.23125 268.62723 33.653126 269.00223Q34.075 269.37723 34.7625 269.37723Q35.5125 269.37723 35.95 268.8616Q36.3875 268.34598 36.3875 267.43973Q36.3875 266.58035 35.91875 266.06473Q35.45 265.5491 34.66875 265.5491Q33.965626 265.5491 33.559376 265.84598L33.278126 266.08035L32.403126 265.8616Z" fill-rule="nonzero"/><path fill="#000000" d="M28.465626 229.98572L27.3875 229.98572L27.3875 222.76697L25.2 223.56384L25.2 222.57947L28.309376 221.4076L28.465626 221.4076L28.465626 229.98572ZM37.2625 226.3451Q37.2625 228.25134 36.60625 229.18884Q35.965626 230.11072 34.575 230.11072Q33.215626 230.11072 32.559376 229.20447Q31.903126 228.29822 31.871876 226.48572L31.871876 225.04822Q31.871876 223.1576 32.5125 222.25134Q33.16875 221.32947 34.559376 221.32947Q35.934376 221.32947 36.590626 222.2201Q37.246876 223.0951 37.2625 224.93884L37.2625 226.3451ZM36.16875 224.86072Q36.16875 223.48572 35.778126 222.86072Q35.403126 222.2201 34.559376 222.2201Q33.73125 222.2201 33.340626 222.86072Q32.965626 223.48572 32.965626 224.7826L32.965626 226.51697Q32.965626 227.89197 33.35625 228.56384Q33.7625 229.2201 34.575 229.2201Q35.371876 229.2201 35.7625 228.5951Q36.153126 227.9701 36.16875 226.64197L36.16875 224.86072Z" fill-rule="nonzero"/><path fill="#000000" d="M28.465626 189.82857L27.3875 189.82857L27.3875 182.60982L25.2 183.4067L25.2 182.42232L28.309376 181.25044L28.465626 181.25044L28.465626 189.82857ZM32.403126 185.54732L32.840626 181.29732L37.215626 181.29732L37.215626 182.29732L33.7625 182.29732L33.496876 184.62544Q34.1375 184.25044 34.934376 184.25044Q36.090626 184.25044 36.778126 185.0317Q37.465626 185.79732 37.465626 187.10982Q37.465626 188.42232 36.746876 189.18794Q36.04375 189.95357 34.7625 189.95357Q33.6375 189.95357 32.91875 189.32857Q32.2 188.68794 32.10625 187.57857L33.121876 187.57857Q33.23125 188.31294 33.653126 188.68794Q34.075 189.06294 34.7625 189.06294Q35.5125 189.06294 35.95 188.54732Q36.3875 188.0317 36.3875 187.12544Q36.3875 186.26607 35.91875 185.75044Q35.45 185.23482 34.66875 185.23482Q33.965626 185.23482 33.559376 185.5317L33.278126 185.76607L32.403126 185.54732Z" fill-rule="nonzero"/><path fill="#000000" d="M30.496876 149.67143L24.903126 149.67143L24.903126 148.89018L27.85625 145.60893Q28.5125 144.85893 28.7625 144.4058Q29.0125 143.93706 29.0125 143.43706Q29.0125 142.76518 28.60625 142.3433Q28.215626 141.9058 27.528126 141.9058Q26.73125 141.9058 26.278126 142.37456Q25.825 142.82768 25.825 143.6558L24.746876 143.6558Q24.746876 142.4683 25.496876 141.74956Q26.2625 141.01518 27.528126 141.01518Q28.73125 141.01518 29.41875 141.64018Q30.10625 142.26518 30.10625 143.31206Q30.10625 144.56206 28.496876 146.31206L26.215626 148.7808L30.496876 148.7808L30.496876 149.67143ZM37.2625 146.0308Q37.2625 147.93706 36.60625 148.87456Q35.965626 149.79643 34.575 149.79643Q33.215626 149.79643 32.559376 148.89018Q31.903126 147.98393 31.871876 146.17143L31.871876 144.73393Q31.871876 142.8433 32.5125 141.93706Q33.16875 141.01518 34.559376 141.01518Q35.934376 141.01518 36.590626 141.9058Q37.246876 142.7808 37.2625 144.62456L37.2625 146.0308ZM36.16875 144.54643Q36.16875 143.17143 35.778126 142.54643Q35.403126 141.9058 34.559376 141.9058Q33.73125 141.9058 33.340626 142.54643Q32.965626 143.17143 32.965626 144.4683L32.965626 146.20268Q32.965626 147.57768 33.35625 148.24956Q33.7625 148.9058 34.575 148.9058Q35.371876 148.9058 35.7625 148.2808Q36.153126 147.6558 36.16875 146.32768L36.16875 144.54643Z" fill-rule="nonzero"/><path fill="#000000" d="M30.496876 109.51428L24.903126 109.51428L24.903126 108.73303L27.85625 105.45178Q28.5125 104.70178 28.7625 104.24866Q29.0125 103.77991 29.0125 103.27991Q29.0125 102.60803 28.60625 102.18616Q28.215626 101.74866 27.528126 101.74866Q26.73125 101.74866 26.278126 102.21741Q25.825 102.67053 25.825 103.49866L24.746876 103.49866Q24.746876 102.31116 25.496876 101.59241Q26.2625 100.85803 27.528126 100.85803Q28.73125 100.85803 29.41875 101.48303Q30.10625 102.10803 30.10625 103.15491Q30.10625 104.40491 28.496876 106.15491L26.215626 108.62366L30.496876 108.62366L30.496876 109.51428ZM32.403126 105.23303L32.840626 100.98303L37.215626 100.98303L37.215626 101.98303L33.7625 101.98303L33.496876 104.31116Q34.1375 103.93616 34.934376 103.93616Q36.090626 103.93616 36.778126 104.71741Q37.465626 105.48303 37.465626 106.79553Q37.465626 108.10803 36.746876 108.87366Q36.04375 109.63928 34.7625 109.63928Q33.6375 109.63928 32.91875 109.01428Q32.2 108.37366 32.10625 107.26428L33.121876 107.26428Q33.23125 107.99866 33.653126 108.37366Q34.075 108.74866 34.7625 108.74866Q35.5125 108.74866 35.95 108.23303Q36.3875 107.71741 36.3875 106.81116Q36.3875 105.95178 35.91875 105.43616Q35.45 104.92053 34.66875 104.92053Q33.965626 104.92053 33.559376 105.21741L33.278126 105.45178L32.403126 105.23303Z" fill-rule="nonzero"/><path fill="#000000" d="M26.48125 64.560265L27.29375 64.560265Q28.075 64.54464 28.5125 64.154015Q28.95 63.76339 28.95 63.091515Q28.95 61.591515 27.45 61.591515Q26.746876 61.591515 26.325 61.997765Q25.91875 62.404015 25.91875 63.060265L24.825 63.060265Q24.825 62.04464 25.559376 61.372765Q26.309376 60.70089 27.45 60.70089Q28.653126 60.70089 29.340626 61.341515Q30.028126 61.98214 30.028126 63.122765Q30.028126 63.685265 29.66875 64.20089Q29.309376 64.716515 28.684376 64.98214Q29.3875 65.20089 29.7625 65.716515Q30.153126 66.23214 30.153126 66.98214Q30.153126 68.122765 29.403126 68.810265Q28.653126 69.48214 27.45 69.48214Q26.2625 69.48214 25.496876 68.82589Q24.746876 68.16964 24.746876 67.10714L25.840626 67.10714Q25.840626 67.779015 26.278126 68.185265Q26.715626 68.591515 27.465626 68.591515Q28.246876 68.591515 28.653126 68.185265Q29.075 67.76339 29.075 66.997765Q29.075 66.26339 28.621876 65.872765Q28.16875 65.466515 27.29375 65.45089L26.48125 65.45089L26.48125 64.560265ZM37.2625 65.716515Q37.2625 67.622765 36.60625 68.560265Q35.965626 69.48214 34.575 69.48214Q33.215626 69.48214 32.559376 68.57589Q31.903126 67.66964 31.871876 65.85714L31.871876 64.41964Q31.871876 62.529015 32.5125 61.622765Q33.16875 60.70089 34.559376 60.70089Q35.934376 60.70089 36.590626 61.591515Q37.246876 62.466515 37.2625 64.310265L37.2625 65.716515ZM36.16875 64.23214Q36.16875 62.85714 35.778126 62.23214Q35.403126 61.591515 34.559376 61.591515Q33.73125 61.591515 33.340626 62.23214Q32.965626 62.85714 32.965626 64.154015L32.965626 65.88839Q32.965626 67.26339 33.35625 67.935265Q33.7625 68.591515 34.575 68.591515Q35.371876 68.591515 35.7625 67.966515Q36.153126 67.341515 36.16875 66.01339L36.16875 64.23214Z" fill-rule="nonzero"/><path fill="#000000" d="M26.48125 24.403126L27.29375 24.403126Q28.075 24.3875 28.5125 23.996876Q28.95 23.60625 28.95 22.934376Q28.95 21.434376 27.45 21.434376Q26.746876 21.434376 26.325 21.840626Q25.91875 22.246876 25.91875 22.903126L24.825 22.903126Q24.825 21.8875 25.559376 21.215626Q26.309376 20.54375 27.45 20.54375Q28.653126 20.54375 29.340626 21.184376Q30.028126 21.825 30.028126 22.965626Q30.028126 23.528126 29.66875 24.04375Q29.309376 24.559376 28.684376 24.825Q29.3875 25.04375 29.7625 25.559376Q30.153126 26.075 30.153126 26.825Q30.153126 27.965626 29.403126 28.653126Q28.653126 29.325 27.45 29.325Q26.2625 29.325 25.496876 28.66875Q24.746876 28.0125 24.746876 26.95L25.840626 26.95Q25.840626 27.621876 26.278126 28.028126Q26.715626 28.434376 27.465626 28.434376Q28.246876 28.434376 28.653126 28.028126Q29.075 27.60625 29.075 26.840626Q29.075 26.10625 28.621876 25.715626Q28.16875 25.309376 27.29375 25.29375L26.48125 25.29375L26.48125 24.403126ZM32.403126 24.91875L32.840626 20.66875L37.215626 20.66875L37.215626 21.66875L33.7625 21.66875L33.496876 23.996876Q34.1375 23.621876 34.934376 23.621876Q36.090626 23.621876 36.778126 24.403126Q37.465626 25.16875 37.465626 26.48125Q37.465626 27.79375 36.746876 28.559376Q36.04375 29.325 34.7625 29.325Q33.6375 29.325 32.91875 28.7Q32.2 28.059376 32.10625 26.95L33.121876 26.95Q33.23125 27.684376 33.653126 28.059376Q34.075 28.434376 34.7625 28.434376Q35.5125 28.434376 35.95 27.91875Q36.3875 27.403126 36.3875 26.496876Q36.3875 25.6375 35.91875 25.121876Q35.45 24.60625 34.66875 24.60625Q33.965626 24.60625 33.559376 24.903126L33.278126 25.1375L32.403126 24.91875Z" fill-rule="nonzero"/><path fill="#000000" d="M60.132973 321.09686Q59.976723 322.4406 59.132973 323.1906Q58.289223 323.925 56.898598 323.925Q55.382973 323.925 54.476723 322.84686Q53.570473 321.7531 53.570473 319.925L53.570473 319.1125Q53.570473 317.925 53.992348 317.01874Q54.414223 316.1125 55.195473 315.6281Q55.976723 315.14374 56.992348 315.14374Q58.351723 315.14374 59.164223 315.90936Q59.992348 316.675 60.132973 318.0031L59.007973 318.0031Q58.851723 316.9875 58.367348 316.53436Q57.882973 316.08124 56.992348 316.08124Q55.914223 316.08124 55.304848 316.8781Q54.695473 317.675 54.695473 319.14374L54.695473 319.97186Q54.695473 321.3625 55.273598 322.1906Q55.851723 323.0031 56.898598 323.0031Q57.836098 323.0031 58.336098 322.58124Q58.836098 322.14374 59.007973 321.09686L60.132973 321.09686ZM65.60172 323.8Q65.50797 323.6125 65.44547 323.1281Q64.69547 323.925 63.648598 323.925Q62.711098 323.925 62.101723 323.39374Q61.507973 322.8625 61.507973 322.03436Q61.507973 321.05 62.257973 320.5031Q63.007973 319.95624 64.38297 319.95624L65.42985 319.95624L65.42985 319.45624Q65.42985 318.89374 65.0861 318.5656Q64.75797 318.22186 64.0861 318.22186Q63.507973 318.22186 63.117348 318.51874Q62.726723 318.8 62.726723 319.22186L61.632973 319.22186Q61.632973 318.7375 61.961098 318.3Q62.304848 317.8625 62.882973 317.6125Q63.461098 317.34686 64.1486 317.34686Q65.25797 317.34686 65.86735 317.89374Q66.49235 318.4406 66.5236 319.39374L66.5236 322.3156Q66.5236 323.1906 66.74235 323.70624L66.74235 323.8L65.60172 323.8ZM63.804848 322.97186Q64.32047 322.97186 64.7736 322.70624Q65.22672 322.4406 65.42985 322.01874L65.42985 320.72186L64.5861 320.72186Q62.586098 320.72186 62.586098 321.89374Q62.586098 322.39374 62.929848 322.6906Q63.273598 322.97186 63.804848 322.97186ZM69.7111 317.45624L69.74235 318.15936Q70.42985 317.34686 71.61735 317.34686Q72.94547 317.34686 73.42985 318.3625Q73.74235 317.90936 74.24235 317.6281Q74.75797 317.34686 75.44547 317.34686Q77.53922 317.34686 77.57047 319.55L77.57047 323.8L76.49235 323.8L76.49235 319.6125Q76.49235 318.9406 76.17985 318.6125Q75.86735 318.26874 75.13297 318.26874Q74.5236 318.26874 74.11735 318.6281Q73.72672 318.9875 73.66422 319.59686L73.66422 323.8L72.5861 323.8L72.5861 319.64374Q72.5861 318.26874 71.22672 318.26874Q70.16422 318.26874 69.7736 319.175L69.7736 323.8L68.67985 323.8L68.67985 317.45624L69.7111 317.45624ZM85.03922 320.70624Q85.03922 322.14374 84.38297 323.03436Q83.72672 323.925 82.5861 323.925Q81.42985 323.925 80.7736 323.1906L80.7736 326.2375L79.69547 326.2375L79.69547 317.45624L80.67985 317.45624L80.72672 318.15936Q81.3986 317.34686 82.57047 317.34686Q83.7111 317.34686 84.36735 318.20624Q85.03922 319.0656 85.03922 320.59686L85.03922 320.70624ZM83.9611 320.58124Q83.9611 319.5031 83.49235 318.89374Q83.03922 318.26874 82.24235 318.26874Q81.25797 318.26874 80.7736 319.1281L80.7736 322.15936Q81.25797 323.03436 82.25797 323.03436Q83.03922 323.03436 83.49235 322.425Q83.9611 321.8 83.9611 320.58124ZM90.60172 323.175Q89.97672 323.925 88.74235 323.925Q87.72672 323.925 87.19547 323.33124Q86.66422 322.7375 86.66422 321.58124L86.66422 317.45624L87.74235 317.45624L87.74235 321.55Q87.74235 323.0031 88.91422 323.0031Q90.16422 323.0031 90.57047 322.0656L90.57047 317.45624L91.66422 317.45624L91.66422 323.8L90.63297 323.8L90.60172 323.175ZM97.38297 322.1125Q97.38297 321.675 97.03922 321.4406Q96.7111 321.1906 95.88297 321.01874Q95.07047 320.84686 94.5861 320.59686Q94.10172 320.34686 93.86735 320.01874Q93.6486 319.675 93.6486 319.20624Q93.6486 318.425 94.30485 317.89374Q94.9611 317.34686 95.99235 317.34686Q97.07047 317.34686 97.72672 317.90936Q98.3986 318.45624 98.3986 319.3156L97.32047 319.3156Q97.32047 318.8781 96.92985 318.5656Q96.55485 318.2375 95.99235 318.2375Q95.3986 318.2375 95.05485 318.5031Q94.72672 318.7531 94.72672 319.15936Q94.72672 319.55 95.03922 319.7531Q95.35172 319.95624 96.16422 320.14374Q96.97672 320.3156 97.47672 320.5656Q97.97672 320.8156 98.2111 321.175Q98.4611 321.53436 98.4611 322.03436Q98.4611 322.89374 97.7736 323.40936Q97.10172 323.925 96.0236 323.925Q95.25797 323.925 94.66422 323.65936Q94.0861 323.3781 93.75797 322.89374Q93.42985 322.40936 93.42985 321.84686L94.50797 321.84686Q94.53922 322.39374 94.94547 322.72186Q95.35172 323.03436 96.0236 323.03436Q96.63297 323.03436 97.00797 322.78436Q97.38297 322.53436 97.38297 322.1125ZM99.42985 320.58124Q99.42985 319.09686 100.11735 318.22186Q100.80485 317.34686 101.92985 317.34686Q103.0861 317.34686 103.74235 318.15936L103.78922 317.45624L104.78922 317.45624L104.78922 323.64374Q104.78922 324.8781 104.05485 325.58124Q103.32047 326.3 102.10172 326.3Q101.41422 326.3 100.75797 326.0031Q100.10172 325.70624 99.75797 325.20624L100.32047 324.55Q101.00797 325.40936 102.0236 325.40936Q102.80485 325.40936 103.24235 324.95624Q103.69547 324.51874 103.69547 323.70624L103.69547 323.15936Q103.03922 323.925 101.91422 323.925Q100.80485 323.925 100.11735 323.03436Q99.42985 322.1281 99.42985 320.58124ZM100.5236 320.70624Q100.5236 321.76874 100.9611 322.39374Q101.3986 323.0031 102.19547 323.0031Q103.2111 323.0031 103.69547 322.0656L103.69547 319.175Q103.19547 318.26874 102.19547 318.26874Q101.41422 318.26874 100.9611 318.8781Q100.5236 319.4875 100.5236 320.70624ZM109.75797 318.425Q109.50797 318.39374 109.22672 318.39374Q108.1486 318.39374 107.7736 319.3L107.7736 323.8L106.69547 323.8L106.69547 317.45624L107.74235 317.45624L107.75797 318.1906Q108.28922 317.34686 109.2736 317.34686Q109.5861 317.34686 109.75797 317.425L109.75797 318.425ZM114.60172 323.175Q113.97672 323.925 112.74235 323.925Q111.72672 323.925 111.19547 323.33124Q110.66422 322.7375 110.66422 321.58124L110.66422 317.45624L111.74235 317.45624L111.74235 321.55Q111.74235 323.0031 112.91422 323.0031Q114.16422 323.0031 114.57047 322.0656L114.57047 317.45624L115.66422 317.45624L115.66422 323.8L114.63297 323.8L114.60172 323.175ZM111.30485 315.76874Q111.30485 315.5031 111.4611 315.33124Q111.63297 315.14374 111.94547 315.14374Q112.25797 315.14374 112.41422 315.33124Q112.5861 315.5031 112.5861 315.76874Q112.5861 316.03436 112.41422 316.20624Q112.25797 316.3781 111.94547 316.3781Q111.63297 316.3781 111.4611 316.20624Q111.30485 316.03436 111.30485 315.76874ZM113.82047 315.78436Q113.82047 315.51874 113.97672 315.33124Q114.1486 315.14374 114.4611 315.14374Q114.7736 315.14374 114.92985 315.33124Q115.10172 315.51874 115.10172 315.78436Q115.10172 316.03436 114.92985 316.22186Q114.7736 316.39374 114.4611 316.39374Q114.1486 316.39374 113.97672 316.22186Q113.82047 316.03436 113.82047 315.78436ZM118.7111 317.45624L118.74235 318.2531Q119.47672 317.34686 120.6486 317.34686Q122.66422 317.34686 122.67985 319.6125L122.67985 323.8L121.5861 323.8L121.5861 319.59686Q121.5861 318.925 121.2736 318.59686Q120.97672 318.26874 120.32047 318.26874Q119.78922 318.26874 119.38297 318.55Q118.99235 318.83124 118.7736 319.28436L118.7736 323.8L117.69547 323.8L117.69547 317.45624L118.7111 317.45624ZM127.32047 323.925Q126.0236 323.925 125.2111 323.08124Q124.41422 322.22186 124.41422 320.8L124.41422 320.6125Q124.41422 319.65936 124.7736 318.925Q125.13297 318.175 125.7736 317.76874Q126.42985 317.34686 127.17985 317.34686Q128.41422 317.34686 129.10172 318.15936Q129.78922 318.97186 129.78922 320.4875L129.78922 320.9406L125.49235 320.9406Q125.5236 321.8781 126.03922 322.45624Q126.57047 323.03436 127.38297 323.03436Q127.94547 323.03436 128.33609 322.8Q128.74234 322.5656 129.05484 322.175L129.71109 322.6906Q128.91422 323.925 127.32047 323.925ZM127.17985 318.2375Q126.5236 318.2375 126.07047 318.72186Q125.63297 319.1906 125.53922 320.05L128.71109 320.05L128.71109 319.97186Q128.66422 319.14374 128.25797 318.6906Q127.86735 318.2375 127.17985 318.2375Z" fill-rule="nonzero"/><path fill="#000000" d="M140.94803 320.03436L137.35428 320.03436L137.35428 323.8L136.22928 323.8L136.22928 315.26874L141.52615 315.26874L141.52615 316.1906L137.35428 316.1906L137.35428 319.1125L140.94803 319.1125L140.94803 320.03436ZM146.97928 323.8Q146.88553 323.6125 146.82303 323.1281Q146.07303 323.925 145.02615 323.925Q144.08865 323.925 143.47928 323.39374Q142.88553 322.8625 142.88553 322.03436Q142.88553 321.05 143.63553 320.5031Q144.38553 319.95624 145.76053 319.95624L146.8074 319.95624L146.8074 319.45624Q146.8074 318.89374 146.46365 318.5656Q146.13553 318.22186 145.46365 318.22186Q144.88553 318.22186 144.4949 318.51874Q144.10428 318.8 144.10428 319.22186L143.01053 319.22186Q143.01053 318.7375 143.33865 318.3Q143.6824 317.8625 144.26053 317.6125Q144.83865 317.34686 145.52615 317.34686Q146.63553 317.34686 147.2449 317.89374Q147.8699 318.4406 147.90115 319.39374L147.90115 322.3156Q147.90115 323.1906 148.1199 323.70624L148.1199 323.8L146.97928 323.8ZM145.1824 322.97186Q145.69803 322.97186 146.15115 322.70624Q146.60428 322.4406 146.8074 322.01874L146.8074 320.72186L145.96365 320.72186Q143.96365 320.72186 143.96365 321.89374Q143.96365 322.39374 144.3074 322.6906Q144.65115 322.97186 145.1824 322.97186ZM152.60428 323.03436Q153.1824 323.03436 153.6199 322.6906Q154.0574 322.33124 154.10428 321.8L155.13553 321.8Q155.10428 322.34686 154.7449 322.84686Q154.40115 323.33124 153.82303 323.6281Q153.26053 323.925 152.60428 323.925Q151.3074 323.925 150.54178 323.0656Q149.79178 322.1906 149.79178 320.6906L149.79178 320.5031Q149.79178 319.58124 150.1199 318.8625Q150.46365 318.14374 151.08865 317.7531Q151.72928 317.34686 152.60428 317.34686Q153.66678 317.34686 154.3699 317.9875Q155.08865 318.6125 155.13553 319.64374L154.10428 319.64374Q154.0574 319.01874 153.63553 318.6281Q153.21365 318.2375 152.60428 318.2375Q151.77615 318.2375 151.32303 318.83124Q150.8699 319.425 150.8699 320.55L150.8699 320.7531Q150.8699 321.84686 151.32303 322.4406Q151.77615 323.03436 152.60428 323.03436ZM157.15115 318.22186Q157.8699 317.34686 159.02615 317.34686Q161.04178 317.34686 161.0574 319.6125L161.0574 323.8L159.96365 323.8L159.96365 319.59686Q159.96365 318.925 159.65115 318.59686Q159.35428 318.26874 158.69803 318.26874Q158.16678 318.26874 157.76053 318.55Q157.3699 318.83124 157.15115 319.28436L157.15115 323.8L156.07303 323.8L156.07303 314.8L157.15115 314.8L157.15115 318.22186ZM168.6824 322.3L169.90115 317.45624L170.97928 317.45624L169.13553 323.8L168.26053 323.8L166.71365 318.9875L165.21365 323.8L164.33865 323.8L162.4949 317.45624L163.57303 317.45624L164.82303 322.20624L166.3074 317.45624L167.16678 317.45624L168.6824 322.3ZM174.69803 323.925Q173.40115 323.925 172.58865 323.08124Q171.79178 322.22186 171.79178 320.8L171.79178 320.6125Q171.79178 319.65936 172.15115 318.925Q172.51053 318.175 173.15115 317.76874Q173.8074 317.34686 174.5574 317.34686Q175.79178 317.34686 176.47928 318.15936Q177.16678 318.97186 177.16678 320.4875L177.16678 320.9406L172.8699 320.9406Q172.90115 321.8781 173.41678 322.45624Q173.94803 323.03436 174.76053 323.03436Q175.32303 323.03436 175.71365 322.8Q176.1199 322.5656 176.4324 322.175L177.08865 322.6906Q176.29178 323.925 174.69803 323.925ZM174.5574 318.2375Q173.90115 318.2375 173.44803 318.72186Q173.01053 319.1906 172.91678 320.05L176.08865 320.05L176.08865 319.97186Q176.04178 319.14374 175.63553 318.6906Q175.2449 318.2375 174.5574 318.2375ZM181.13553 318.425Q180.88553 318.39374 180.60428 318.39374Q179.52615 318.39374 179.15115 319.3L179.15115 323.8L178.07303 323.8L178.07303 317.45624L179.1199 317.45624L179.13553 318.1906Q179.66678 317.34686 180.65115 317.34686Q180.96365 317.34686 181.13553 317.425L181.13553 318.425ZM183.83865 320.8625L183.15115 321.5656L183.15115 323.8L182.07303 323.8L182.07303 314.8L183.15115 314.8L183.15115 320.2375L183.72928 319.55L185.71365 317.45624L187.02615 317.45624L184.5574 320.1125L187.32303 323.8L186.04178 323.8L183.83865 320.8625Z" fill-rule="nonzero"/><path fill="#000000" d="M221.74745 322.8781L225.79433 322.8781L225.79433 323.8L220.60683 323.8L220.60683 315.26874L221.74745 315.26874L221.74745 322.8781ZM233.16933 323.8L232.04433 323.8L232.04433 319.8625L227.73183 319.8625L227.73183 323.8L226.60683 323.8L226.60683 315.26874L227.73183 315.26874L227.73183 318.9406L232.04433 318.9406L232.04433 315.26874L233.16933 315.26874L233.16933 323.8ZM241.91933 322.675Q241.48183 323.3 240.70058 323.6125Q239.91933 323.925 238.88808 323.925Q237.85683 323.925 237.04433 323.4406Q236.23183 322.9406 235.79433 322.03436Q235.35683 321.1281 235.3412 319.9406L235.3412 319.20624Q235.3412 317.26874 236.23183 316.20624Q237.13808 315.14374 238.76308 315.14374Q240.10683 315.14374 240.91933 315.83124Q241.73183 316.51874 241.91933 317.76874L240.79433 317.76874Q240.4662 316.08124 238.7787 316.08124Q237.63808 316.08124 237.05995 316.8781Q236.48183 317.65936 236.4662 319.175L236.4662 319.8625Q236.4662 321.3 237.12245 322.15936Q237.7787 323.0031 238.9037 323.0031Q239.5287 323.0031 239.99745 322.8625Q240.48183 322.72186 240.79433 322.3781L240.79433 320.47186L238.82558 320.47186L238.82558 319.55L241.91933 319.55L241.91933 322.675Z" fill-rule="nonzero"/><path fill="#000000" d="M289.0625 315.26874L290.20312 315.26874L290.20312 321.3156Q290.20312 322.53436 289.45312 323.2375Q288.71875 323.925 287.5 323.925Q286.23438 323.925 285.51562 323.26874Q284.8125 322.6125 284.8125 321.4406L285.9375 321.4406Q285.9375 322.175 286.32812 322.59686Q286.73438 323.0031 287.5 323.0031Q288.20312 323.0031 288.625 322.5656Q289.0625 322.1125 289.0625 321.33124L289.0625 315.26874ZM296.23438 323.175Q295.60938 323.925 294.375 323.925Q293.35938 323.925 292.82812 323.33124Q292.29688 322.7375 292.29688 321.58124L292.29688 317.45624L293.375 317.45624L293.375 321.55Q293.375 323.0031 294.54688 323.0031Q295.79688 323.0031 296.20312 322.0656L296.20312 317.45624L297.29688 317.45624L297.29688 323.8L296.26562 323.8L296.23438 323.175ZM303.01562 322.1125Q303.01562 321.675 302.67188 321.4406Q302.34375 321.1906 301.51562 321.01874Q300.70312 320.84686 300.21875 320.59686Q299.73438 320.34686 299.5 320.01874Q299.28125 319.675 299.28125 319.20624Q299.28125 318.425 299.9375 317.89374Q300.59375 317.34686 301.625 317.34686Q302.70312 317.34686 303.35938 317.90936Q304.03125 318.45624 304.03125 319.3156L302.95312 319.3156Q302.95312 318.8781 302.5625 318.5656Q302.1875 318.2375 301.625 318.2375Q301.03125 318.2375 300.6875 318.5031Q300.35938 318.7531 300.35938 319.15936Q300.35938 319.55 300.67188 319.7531Q300.98438 319.95624 301.79688 320.14374Q302.60938 320.3156 303.10938 320.5656Q303.60938 320.8156 303.84375 321.175Q304.09375 321.53436 304.09375 322.03436Q304.09375 322.89374 303.40625 323.40936Q302.73438 323.925 301.65625 323.925Q300.89062 323.925 300.29688 323.65936Q299.71875 323.3781 299.39062 322.89374Q299.0625 322.40936 299.0625 321.84686L300.14062 321.84686Q300.17188 322.39374 300.57812 322.72186Q300.98438 323.03436 301.65625 323.03436Q302.26562 323.03436 302.64062 322.78436Q303.01562 322.53436 303.01562 322.1125ZM305.03125 320.5656Q305.03125 319.64374 305.39062 318.89374Q305.76562 318.14374 306.42188 317.7531Q307.07812 317.34686 307.90625 317.34686Q309.20312 317.34686 310.0 318.2375Q310.8125 319.1281 310.8125 320.6281L310.8125 320.70624Q310.8125 321.6281 310.45312 322.3625Q310.09375 323.09686 309.4375 323.51874Q308.78125 323.925 307.92188 323.925Q306.64062 323.925 305.82812 323.03436Q305.03125 322.1281 305.03125 320.64374L305.03125 320.5656ZM306.125 320.70624Q306.125 321.7531 306.60938 322.39374Q307.10938 323.03436 307.92188 323.03436Q308.75 323.03436 309.23438 322.39374Q309.71875 321.7375 309.71875 320.5656Q309.71875 319.53436 309.21875 318.89374Q308.73438 318.2375 307.90625 318.2375Q307.10938 318.2375 306.60938 318.8781Q306.125 319.5031 306.125 320.70624ZM316.01562 322.1125Q316.01562 321.675 315.67188 321.4406Q315.34375 321.1906 314.51562 321.01874Q313.70312 320.84686 313.21875 320.59686Q312.73438 320.34686 312.5 320.01874Q312.28125 319.675 312.28125 319.20624Q312.28125 318.425 312.9375 317.89374Q313.59375 317.34686 314.625 317.34686Q315.70312 317.34686 316.35938 317.90936Q317.03125 318.45624 317.03125 319.3156L315.95312 319.3156Q315.95312 318.8781 315.5625 318.5656Q315.1875 318.2375 314.625 318.2375Q314.03125 318.2375 313.6875 318.5031Q313.35938 318.7531 313.35938 319.15936Q313.35938 319.55 313.67188 319.7531Q313.98438 319.95624 314.79688 320.14374Q315.60938 320.3156 316.10938 320.5656Q316.60938 320.8156 316.84375 321.175Q317.09375 321.53436 317.09375 322.03436Q317.09375 322.89374 316.40625 323.40936Q315.73438 323.925 314.65625 323.925Q313.89062 323.925 313.29688 323.65936Q312.71875 323.3781 312.39062 322.89374Q312.0625 322.40936 312.0625 321.84686L313.14062 321.84686Q313.17188 322.39374 313.57812 322.72186Q313.98438 323.03436 314.65625 323.03436Q315.26562 323.03436 315.64062 322.78436Q316.01562 322.53436 316.01562 322.1125Z" fill-rule="nonzero"/><path fill="#000000" d="M360.00256 320.34686L357.98694 320.34686L357.98694 323.8L356.86194 323.8L356.86194 315.26874L359.69006 315.26874Q361.12756 315.26874 361.8932 315.925Q362.67444 316.58124 362.67444 317.83124Q362.67444 318.6281 362.23694 319.22186Q361.81506 319.8156 361.04944 320.1125L363.04944 323.72186L363.04944 323.8L361.8463 323.8L360.00256 320.34686ZM357.98694 319.425L359.7213 319.425Q360.56506 319.425 361.04944 319.0031Q361.54944 318.5656 361.54944 317.83124Q361.54944 317.05 361.0807 316.6281Q360.61194 316.20624 359.7213 316.1906L357.98694 316.1906L357.98694 319.425ZM370.1432 321.09686Q369.98694 322.4406 369.1432 323.1906Q368.29944 323.925 366.9088 323.925Q365.3932 323.925 364.48694 322.84686Q363.5807 321.7531 363.5807 319.925L363.5807 319.1125Q363.5807 317.925 364.00256 317.01874Q364.42444 316.1125 365.2057 315.6281Q365.98694 315.14374 367.00256 315.14374Q368.36194 315.14374 369.17444 315.90936Q370.00256 316.675 370.1432 318.0031L369.0182 318.0031Q368.86194 316.9875 368.37756 316.53436Q367.8932 316.08124 367.00256 316.08124Q365.92444 316.08124 365.31506 316.8781Q364.7057 317.675 364.7057 319.14374L364.7057 319.97186Q364.7057 321.3625 365.2838 322.1906Q365.86194 323.0031 366.9088 323.0031Q367.8463 323.0031 368.3463 322.58124Q368.8463 322.14374 369.0182 321.09686L370.1432 321.09686ZM371.86194 323.8L371.86194 315.26874L374.2838 315.26874Q375.3932 315.26874 376.23694 315.76874Q377.0963 316.2531 377.56506 317.15936Q378.0338 318.0656 378.0338 319.2531L378.0338 319.78436Q378.0338 321.0031 377.56506 321.90936Q377.11194 322.8156 376.23694 323.3Q375.37756 323.78436 374.23694 323.8L371.86194 323.8ZM372.98694 316.1906L372.98694 322.8781L374.17444 322.8781Q375.4713 322.8781 376.19006 322.08124Q376.92444 321.26874 376.92444 319.76874L376.92444 319.26874Q376.92444 317.8156 376.23694 317.01874Q375.56506 316.20624 374.29944 316.1906L372.98694 316.1906ZM382.37756 320.0031Q380.94006 319.58124 380.2682 318.97186Q379.61194 318.3625 379.61194 317.47186Q379.61194 316.47186 380.4088 315.8156Q381.2213 315.14374 382.5182 315.14374Q383.3932 315.14374 384.0807 315.4875Q384.7682 315.83124 385.1432 316.425Q385.5338 317.01874 385.5338 317.7375L384.3932 317.7375Q384.3932 316.95624 383.8932 316.51874Q383.4088 316.08124 382.5182 316.08124Q381.69006 316.08124 381.2213 316.45624Q380.75256 316.8156 380.75256 317.45624Q380.75256 317.9875 381.19006 318.34686Q381.6432 318.70624 382.7057 319.0031Q383.7682 319.3 384.36194 319.65936Q384.9713 320.01874 385.25256 320.5031Q385.54944 320.9875 385.54944 321.6281Q385.54944 322.675 384.73694 323.3Q383.92444 323.925 382.5807 323.925Q381.69006 323.925 380.92444 323.58124Q380.17444 323.2375 379.75256 322.65936Q379.3463 322.0656 379.3463 321.33124L380.4713 321.33124Q380.4713 322.09686 381.04944 322.55Q381.62756 323.0031 382.5807 323.0031Q383.4713 323.0031 383.94006 322.64374Q384.4088 322.26874 384.4088 321.64374Q384.4088 321.01874 383.9713 320.675Q383.5338 320.33124 382.37756 320.0031Z" fill-rule="nonzero"/><path fill="#000000" d="M422.86447 320.45624L422.86447 323.8L421.73947 323.8L421.73947 315.26874L424.89572 315.26874Q426.28635 315.26874 427.08322 315.9875Q427.8801 316.6906 427.8801 317.8781Q427.8801 319.1125 427.09885 319.78436Q426.33322 320.45624 424.8801 320.45624L422.86447 320.45624ZM422.86447 319.53436L424.89572 319.53436Q425.80197 319.53436 426.27072 319.1125Q426.7551 318.6906 426.7551 317.89374Q426.7551 317.1281 426.27072 316.675Q425.80197 316.20624 424.95822 316.1906L422.86447 316.1906L422.86447 319.53436ZM434.45822 321.5656L430.8801 321.5656L430.08322 323.8L428.92697 323.8L432.17697 315.26874L433.16135 315.26874L436.42697 323.8L435.27072 323.8L434.45822 321.5656ZM431.22385 320.64374L434.1301 320.64374L432.67697 316.65936L431.22385 320.64374ZM440.8801 320.34686L438.86447 320.34686L438.86447 323.8L437.73947 323.8L437.73947 315.26874L440.5676 315.26874Q442.0051 315.26874 442.77072 315.925Q443.55197 316.58124 443.55197 317.83124Q443.55197 318.6281 443.11447 319.22186Q442.6926 319.8156 441.92697 320.1125L443.92697 323.72186L443.92697 323.8L442.72385 323.8L440.8801 320.34686ZM438.86447 319.425L440.59885 319.425Q441.4426 319.425 441.92697 319.0031Q442.42697 318.5656 442.42697 317.83124Q442.42697 317.05 441.95822 316.6281Q441.48947 316.20624 440.59885 316.1906L438.86447 316.1906L438.86447 319.425ZM450.64572 316.1906L447.89572 316.1906L447.89572 323.8L446.78635 323.8L446.78635 316.1906L444.03635 316.1906L444.03635 315.26874L450.64572 315.26874L450.64572 316.1906ZM456.5676 319.8625L452.86447 319.8625L452.86447 322.8781L457.16135 322.8781L457.16135 323.8L451.73947 323.8L451.73947 315.26874L457.11447 315.26874L457.11447 316.1906L452.86447 316.1906L452.86447 318.9406L456.5676 318.9406L456.5676 319.8625ZM459.95822 323.8L458.83322 323.8L458.83322 315.26874L459.95822 315.26874L459.95822 323.8Z" fill-rule="nonzero"/><path fill="#000000" d="M503.13266 320.0031Q501.69516 319.58124 501.0233 318.97186Q500.36703 318.3625 500.36703 317.47186Q500.36703 316.47186 501.1639 315.8156Q501.9764 315.14374 503.2733 315.14374Q504.1483 315.14374 504.8358 315.4875Q505.5233 315.83124 505.8983 316.425Q506.2889 317.01874 506.2889 317.7375L505.1483 317.7375Q505.1483 316.95624 504.6483 316.51874Q504.1639 316.08124 503.2733 316.08124Q502.44516 316.08124 501.9764 316.45624Q501.50766 316.8156 501.50766 317.45624Q501.50766 317.9875 501.94516 318.34686Q502.3983 318.70624 503.4608 319.0031Q504.5233 319.3 505.11703 319.65936Q505.7264 320.01874 506.00766 320.5031Q506.30453 320.9875 506.30453 321.6281Q506.30453 322.675 505.49203 323.3Q504.67953 323.925 503.3358 323.925Q502.44516 323.925 501.67953 323.58124Q500.92953 323.2375 500.50766 322.65936Q500.1014 322.0656 500.1014 321.33124L501.2264 321.33124Q501.2264 322.09686 501.80453 322.55Q502.38266 323.0031 503.3358 323.0031Q504.2264 323.0031 504.69516 322.64374Q505.1639 322.26874 505.1639 321.64374Q505.1639 321.01874 504.7264 320.675Q504.2889 320.33124 503.13266 320.0031ZM507.61703 323.8L507.61703 315.26874L510.0389 315.26874Q511.1483 315.26874 511.99203 315.76874Q512.85144 316.2531 513.3202 317.15936Q513.78894 318.0656 513.78894 319.2531L513.78894 319.78436Q513.78894 321.0031 513.3202 321.90936Q512.86707 322.8156 511.99203 323.3Q511.13266 323.78436 509.99203 323.8L507.61703 323.8ZM508.74203 316.1906L508.74203 322.8781L509.92953 322.8781Q511.2264 322.8781 511.94516 322.08124Q512.67957 321.26874 512.67957 319.76874L512.67957 319.26874Q512.67957 317.8156 511.99203 317.01874Q511.32016 316.20624 510.05453 316.1906L508.74203 316.1906ZM518.1327 320.0031Q516.6952 319.58124 516.0233 318.97186Q515.36707 318.3625 515.36707 317.47186Q515.36707 316.47186 516.16394 315.8156Q516.97644 315.14374 518.2733 315.14374Q519.1483 315.14374 519.8358 315.4875Q520.5233 315.83124 520.8983 316.425Q521.28894 317.01874 521.28894 317.7375L520.1483 317.7375Q520.1483 316.95624 519.6483 316.51874Q519.16394 316.08124 518.2733 316.08124Q517.4452 316.08124 516.97644 316.45624Q516.5077 316.8156 516.5077 317.45624Q516.5077 317.9875 516.9452 318.34686Q517.3983 318.70624 518.4608 319.0031Q519.5233 319.3 520.11707 319.65936Q520.72644 320.01874 521.0077 320.5031Q521.30457 320.9875 521.30457 321.6281Q521.30457 322.675 520.49207 323.3Q519.67957 323.925 518.3358 323.925Q517.4452 323.925 516.67957 323.58124Q515.92957 323.2375 515.5077 322.65936Q515.10144 322.0656 515.10144 321.33124L516.22644 321.33124Q516.22644 322.09686 516.80457 322.55Q517.3827 323.0031 518.3358 323.0031Q519.22644 323.0031 519.6952 322.64374Q520.16394 322.26874 520.16394 321.64374Q520.16394 321.01874 519.72644 320.675Q519.28894 320.33124 518.1327 320.0031Z" fill-rule="nonzero"/></svg>