<svg version="1.1" viewBox="0.0 0.0 575.0 344.0" fill="none" stroke="none" stroke-linecap="square" stroke-miterlimit="10" width="575" height="344" xmlns:xlink="http://www.w3.org/1999/xlink" xmlns="http://www.w3.org/2000/svg"><path fill="#ffffff" d="M0 0L575.0 0L575.0 344.0L0 344.0L0 0Z" fill-rule="nonzero"/><path stroke="#333333" stroke-width="1.0" stroke-linecap="butt" d="M44.5 305.5L557.5 305.5" fill-rule="nonzero"/><path stroke="#cccccc" stroke-width="1.0" stroke-linecap="butt" d="M44.5 265.5L557.5 265.5" fill-rule="nonzero"/><path stroke="#cccccc" stroke-width="1.0" stroke-linecap="butt" d="M44.5 225.5L557.5 225.5" fill-rule="nonzero"/><path stroke="#cccccc" stroke-width="1.0" stroke-linecap="butt" d="M44.5 185.5L557.5 185.5" fill-rule="nonzero"/><path stroke="#cccccc" stroke-width="1.0" stroke-linecap="butt" d="M44.5 145.5L557.5 145.5" fill-rule="nonzero"/><path stroke="#cccccc" stroke-width="1.0" stroke-linecap="butt" d="M44.5 105.5L557.5 105.5" fill-rule="nonzero"/><path stroke="#cccccc" stroke-width="1.0" stroke-linecap="butt" d="M44.5 64.5L557.5 64.5" fill-rule="nonzero"/><path stroke="#cccccc" stroke-width="1.0" stroke-linecap="butt" d="M44.5 24.5L557.5 24.5" fill-rule="nonzero"/><path stroke="#000000" stroke-width="1.0" stroke-linecap="butt" d="M44.5 305.5L44.5 24.5" fill-rule="nonzero"/><clipPath id="id_0"><path d="M44.2 24.7L557.8 24.7L557.8 305.8L44.2 305.8L44.2 24.7Z" clip-rule="nonzero"/></clipPath><path stroke="#000000" stroke-width="2.0" stroke-linecap="butt" stroke-opacity="0.0" clip-path="url(#id_0)" d="M114.0 306.0L69.0 306.0L69.0 49.0C69.0 47.89543 69.89543 47.0 71.0 47.0L112.0 47.0C113.10457 47.0 114.0 47.89543 114.0 49.0Z" fill-rule="nonzero"/><path fill="#000000" clip-path="url(#id_0)" d="M114.0 306.0L69.0 306.0L69.0 49.0C69.0 47.89543 69.89543 47.0 71.0 47.0L112.0 47.0C113.10457 47.0 114.0 47.89543 114.0 49.0Z" fill-rule="nonzero"/><path stroke="#000000" stroke-width="2.0" stroke-linecap="butt" stroke-opacity="0.0" clip-path="url(#id_0)" d="M184.0 306.0L139.0 306.0L139.0 205.0C139.0 203.89543 139.89543 203.0 141.0 203.0L182.0 203.0C183.10457 203.0 184.0 203.89543 184.0 205.0Z" fill-rule="nonzero"/><path fill="#cc0000" clip-path="url(#id_0)" d="M184.0 306.0L139.0 306.0L139.0 205.0C139.0 203.89543 139.89543 203.0 141.0 203.0L182.0 203.0C183.10457 203.0 184.0 203.89543 184.0 205.0Z" fill-rule="nonzero"/><path stroke="#000000" stroke-width="2.0" stroke-linecap="butt" stroke-opacity="0.0" clip-path="url(#id_0)" d="M254.0 306.0L209.0 306.0L209.0 206.0C209.0 204.89543 209.89543 204.0 211.0 204.0L252.0 204.0C253.10457 204.0 254.0 204.89543 254.0 206.0Z" fill-rule="nonzero"/><path fill="#f1c232" clip-path="url(#id_0)" d="M254.0 306.0L209.0 306.0L209.0 206.0C209.0 204.89543 209.89543 204.0 211.0 204.0L252.0 204.0C253.10457 204.0 254.0 204.89543 254.0 206.0Z" fill-rule="nonzero"/><path stroke="#000000" stroke-width="2.0" stroke-linecap="butt" stroke-opacity="0.0" clip-path="url(#id_0)" d="M324.0 306.0L279.0 306.0L279.0 225.0C279.0 223.89543 279.89542 223.0 281.0 223.0L322.0 223.0C323.10458 223.0 324.0 223.89543 324.0 225.0Z" fill-rule="nonzero"/><path fill="#3d85c6" clip-path="url(#id_0)" d="M324.0 306.0L279.0 306.0L279.0 225.0C279.0 223.89543 279.89542 223.0 281.0 223.0L322.0 223.0C323.10458 223.0 324.0 223.89543 324.0 225.0Z" fill-rule="nonzero"/><path stroke="#000000" stroke-width="2.0" stroke-linecap="butt" stroke-opacity="0.0" clip-path="url(#id_0)" d="M394.0 306.0L349.0 306.0L349.0 231.0C349.0 229.89543 349.89542 229.0 351.0 229.0L392.0 229.0C393.10458 229.0 394.0 229.89543 394.0 231.0Z" fill-rule="nonzero"/><path fill="#999999" clip-path="url(#id_0)" d="M394.0 306.0L349.0 306.0L349.0 231.0C349.0 229.89543 349.89542 229.0 351.0 229.0L392.0 229.0C393.10458 229.0 394.0 229.89543 394.0 231.0Z" fill-rule="nonzero"/><path stroke="#000000" stroke-width="2.0" stroke-linecap="butt" stroke-opacity="0.0" clip-path="url(#id_0)" d="M464.0 306.0L419.0 306.0L419.0 251.0C419.0 249.89543 419.89542 249.0 421.0 249.0L462.0 249.0C463.10458 249.0 464.0 249.89543 464.0 251.0Z" fill-rule="nonzero"/><path fill="#a64d79" clip-path="url(#id_0)" d="M464.0 306.0L419.0 306.0L419.0 251.0C419.0 249.89543 419.89542 249.0 421.0 249.0L462.0 249.0C463.10458 249.0 464.0 249.89543 464.0 251.0Z" fill-rule="nonzero"/><path stroke="#000000" stroke-width="2.0" stroke-linecap="butt" stroke-opacity="0.0" clip-path="url(#id_0)" d="M534.0 306.0L489.0 306.0L489.0 263.0C489.0 261.89542 489.89542 261.0 491.0 261.0L532.0 261.0C533.10455 261.0 534.0 261.89542 534.0 263.0Z" fill-rule="nonzero"/><path fill="#6aa84f" clip-path="url(#id_0)" d="M534.0 306.0L489.0 306.0L489.0 263.0C489.0 261.89542 489.89542 261.0 491.0 261.0L532.0 261.0C533.10455 261.0 534.0 261.89542 534.0 263.0Z" fill-rule="nonzero"/><path fill="#000000" d="M37.2625 306.65936Q37.2625 308.5656 36.60625 309.5031Q35.965626 310.425 34.575 310.425Q33.215626 310.425 32.559376 309.51874Q31.903126 308.6125 31.871876 306.8L31.871876 305.3625Q31.871876 303.47186 32.5125 302.5656Q33.16875 301.64374 34.559376 301.64374Q35.934376 301.64374 36.590626 302.53436Q37.246876 303.40936 37.2625 305.2531L37.2625 306.65936ZM36.16875 305.175Q36.16875 303.8 35.778126 303.175Q35.403126 302.53436 34.559376 302.53436Q33.73125 302.53436 33.340626 303.175Q32.965626 303.8 32.965626 305.09686L32.965626 306.83124Q32.965626 308.20624 33.35625 308.8781Q33.7625 309.53436 34.575 309.53436Q35.371876 309.53436 35.7625 308.90936Q36.153126 308.28436 36.16875 306.95624L36.16875 305.175Z" fill-rule="nonzero"/><path fill="#000000" d="M32.403126 265.8616L32.840626 261.6116L37.215626 261.6116L37.215626 262.6116L33.7625 262.6116L33.496876 264.93973Q34.1375 264.56473 34.934376 264.56473Q36.090626 264.56473 36.778126 265.34598Q37.465626 266.1116 37.465626 267.4241Q37.465626 268.7366 36.746876 269.50223Q36.04375 270.26785 34.7625 270.26785Q33.6375 270.26785 32.91875 269.64285Q32.2 269.00223 32.10625 267.89285L33.121876 267.89285Q33.23125 268.62723 33.653126 269.00223Q34.075 269.37723 34.7625 269.37723Q35.5125 269.37723 35.95 268.8616Q36.3875 268.34598 36.3875 267.43973Q36.3875 266.58035 35.91875 266.06473Q35.45 265.5491 34.66875 265.5491Q33.965626 265.5491 33.559376 265.84598L33.278126 266.08035L32.403126 265.8616Z" fill-rule="nonzero"/><path fill="#000000" d="M28.465626 229.98572L27.3875 229.98572L27.3875 222.76697L25.2 223.56384L25.2 222.57947L28.309376 221.4076L28.465626 221.4076L28.465626 229.98572ZM37.2625 226.3451Q37.2625 228.25134 36.60625 229.18884Q35.965626 230.11072 34.575 230.11072Q33.215626 230.11072 32.559376 229.20447Q31.903126 228.29822 31.871876 226.48572L31.871876 225.04822Q31.871876 223.1576 32.5125 222.25134Q33.16875 221.32947 34.559376 221.32947Q35.934376 221.32947 36.590626 222.2201Q37.246876 223.0951 37.2625 224.93884L37.2625 226.3451ZM36.16875 224.86072Q36.16875 223.48572 35.778126 222.86072Q35.403126 222.2201 34.559376 222.2201Q33.73125 222.2201 33.340626 222.86072Q32.965626 223.48572 32.965626 224.7826L32.965626 226.51697Q32.965626 227.89197 33.35625 228.56384Q33.7625 229.2201 34.575 229.2201Q35.371876 229.2201 35.7625 228.5951Q36.153126 227.9701 36.16875 226.64197L36.16875 224.86072Z" fill-rule="nonzero"/><path fill="#000000" d="M28.465626 189.82857L27.3875 189.82857L27.3875 182.60982L25.2 183.4067L25.2 182.42232L28.309376 181.25044L28.465626 181.25044L28.465626 189.82857ZM32.403126 185.54732L32.840626 181.29732L37.215626 181.29732L37.215626 182.29732L33.7625 182.29732L33.496876 184.62544Q34.1375 184.25044 34.934376 184.25044Q36.090626 184.25044 36.778126 185.0317Q37.465626 185.79732 37.465626 187.10982Q37.465626 188.42232 36.746876 189.18794Q36.04375 189.95357 34.7625 189.95357Q33.6375 189.95357 32.91875 189.32857Q32.2 188.68794 32.10625 187.57857L33.121876 187.57857Q33.23125 188.31294 33.653126 188.68794Q34.075 189.06294 34.7625 189.06294Q35.5125 189.06294 35.95 188.54732Q36.3875 188.0317 36.3875 187.12544Q36.3875 186.26607 35.91875 185.75044Q35.45 185.23482 34.66875 185.23482Q33.965626 185.23482 33.559376 185.5317L33.278126 185.76607L32.403126 185.54732Z" fill-rule="nonzero"/><path fill="#000000" d="M30.496876 149.67143L24.903126 149.67143L24.903126 148.89018L27.85625 145.60893Q28.5125 144.85893 28.7625 144.4058Q29.0125 143.93706 29.0125 143.43706Q29.0125 142.76518 28.60625 142.3433Q28.215626 141.9058 27.528126 141.9058Q26.73125 141.9058 26.278126 142.37456Q25.825 142.82768 25.825 143.6558L24.746876 143.6558Q24.746876 142.4683 25.496876 141.74956Q26.2625 141.01518 27.528126 141.01518Q28.73125 141.01518 29.41875 141.64018Q30.10625 142.26518 30.10625 143.31206Q30.10625 144.56206 28.496876 146.31206L26.215626 148.7808L30.496876 148.7808L30.496876 149.67143ZM37.2625 146.0308Q37.2625 147.93706 36.60625 148.87456Q35.965626 149.79643 34.575 149.79643Q33.215626 149.79643 32.559376 148.89018Q31.903126 147.98393 31.871876 146.17143L31.871876 144.73393Q31.871876 142.8433 32.5125 141.93706Q33.16875 141.01518 34.559376 141.01518Q35.934376 141.01518 36.590626 141.9058Q37.246876 142.7808 37.2625 144.62456L37.2625 146.0308ZM36.16875 144.54643Q36.16875 143.17143 35.778126 142.54643Q35.403126 141.9058 34.559376 141.9058Q33.73125 141.9058 33.340626 142.54643Q32.965626 143.17143 32.965626 144.4683L32.965626 146.20268Q32.965626 147.57768 33.35625 148.24956Q33.7625 148.9058 34.575 148.9058Q35.371876 148.9058 35.7625 148.2808Q36.153126 147.6558 36.16875 146.32768L36.16875 144.54643Z" fill-rule="nonzero"/><path fill="#000000" d="M30.496876 109.51428L24.903126 109.51428L24.903126 108.73303L27.85625 105.45178Q28.5125 104.70178 28.7625 104.24866Q29.0125 103.77991 29.0125 103.27991Q29.0125 102.60803 28.60625 102.18616Q28.215626 101.74866 27.528126 101.74866Q26.73125 101.74866 26.278126 102.21741Q25.825 102.67053 25.825 103.49866L24.746876 103.49866Q24.746876 102.31116 25.496876 101.59241Q26.2625 100.85803 27.528126 100.85803Q28.73125 100.85803 29.41875 101.48303Q30.10625 102.10803 30.10625 103.15491Q30.10625 104.40491 28.496876 106.15491L26.215626 108.62366L30.496876 108.62366L30.496876 109.51428ZM32.403126 105.23303L32.840626 100.98303L37.215626 100.98303L37.215626 101.98303L33.7625 101.98303L33.496876 104.31116Q34.1375 103.93616 34.934376 103.93616Q36.090626 103.93616 36.778126 104.71741Q37.465626 105.48303 37.465626 106.79553Q37.465626 108.10803 36.746876 108.87366Q36.04375 109.63928 34.7625 109.63928Q33.6375 109.63928 32.91875 109.01428Q32.2 108.37366 32.10625 107.26428L33.121876 107.26428Q33.23125 107.99866 33.653126 108.37366Q34.075 108.74866 34.7625 108.74866Q35.5125 108.74866 35.95 108.23303Q36.3875 107.71741 36.3875 106.81116Q36.3875 105.95178 35.91875 105.43616Q35.45 104.92053 34.66875 104.92053Q33.965626 104.92053 33.559376 105.21741L33.278126 105.45178L32.403126 105.23303Z" fill-rule="nonzero"/><path fill="#000000" d="M26.48125 64.560265L27.29375 64.560265Q28.075 64.54464 28.5125 64.154015Q28.95 63.76339 28.95 63.091515Q28.95 61.591515 27.45 61.591515Q26.746876 61.591515 26.325 61.997765Q25.91875 62.404015 25.91875 63.060265L24.825 63.060265Q24.825 62.04464 25.559376 61.372765Q26.309376 60.70089 27.45 60.70089Q28.653126 60.70089 29.340626 61.341515Q30.028126 61.98214 30.028126 63.122765Q30.028126 63.685265 29.66875 64.20089Q29.309376 64.716515 28.684376 64.98214Q29.3875 65.20089 29.7625 65.716515Q30.153126 66.23214 30.153126 66.98214Q30.153126 68.122765 29.403126 68.810265Q28.653126 69.48214 27.45 69.48214Q26.2625 69.48214 25.496876 68.82589Q24.746876 68.16964 24.746876 67.10714L25.840626 67.10714Q25.840626 67.779015 26.278126 68.185265Q26.715626 68.591515 27.465626 68.591515Q28.246876 68.591515 28.653126 68.185265Q29.075 67.76339 29.075 66.997765Q29.075 66.26339 28.621876 65.872765Q28.16875 65.466515 27.29375 65.45089L26.48125 65.45089L26.48125 64.560265ZM37.2625 65.716515Q37.2625 67.622765 36.60625 68.560265Q35.965626 69.48214 34.575 69.48214Q33.215626 69.48214 32.559376 68.57589Q31.903126 67.66964 31.871876 65.85714L31.871876 64.41964Q31.871876 62.529015 32.5125 61.622765Q33.16875 60.70089 34.559376 60.70089Q35.934376 60.70089 36.590626 61.591515Q37.246876 62.466515 37.2625 64.310265L37.2625 65.716515ZM36.16875 64.23214Q36.16875 62.85714 35.778126 62.23214Q35.403126 61.591515 34.559376 61.591515Q33.73125 61.591515 33.340626 62.23214Q32.965626 62.85714 32.965626 64.154015L32.965626 65.88839Q32.965626 67.26339 33.35625 67.935265Q33.7625 68.591515 34.575 68.591515Q35.371876 68.591515 35.7625 67.966515Q36.153126 67.341515 36.16875 66.01339L36.16875 64.23214Z" fill-rule="nonzero"/><path fill="#000000" d="M26.48125 24.403126L27.29375 24.403126Q28.075 24.3875 28.5125 23.996876Q28.95 23.60625 28.95 22.934376Q28.95 21.434376 27.45 21.434376Q26.746876 21.434376 26.325 21.840626Q25.91875 22.246876 25.91875 22.903126L24.825 22.903126Q24.825 21.8875 25.559376 21.215626Q26.309376 20.54375 27.45 20.54375Q28.653126 20.54375 29.340626 21.184376Q30.028126 21.825 30.028126 22.965626Q30.028126 23.528126 29.66875 24.04375Q29.309376 24.559376 28.684376 24.825Q29.3875 25.04375 29.7625 25.559376Q30.153126 26.075 30.153126 26.825Q30.153126 27.965626 29.403126 28.653126Q28.653126 29.325 27.45 29.325Q26.2625 29.325 25.496876 28.66875Q24.746876 28.0125 24.746876 26.95L25.840626 26.95Q25.840626 27.621876 26.278126 28.028126Q26.715626 28.434376 27.465626 28.434376Q28.246876 28.434376 28.653126 28.028126Q29.075 27.60625 29.075 26.840626Q29.075 26.10625 28.621876 25.715626Q28.16875 25.309376 27.29375 25.29375L26.48125 25.29375L26.48125 24.403126ZM32.403126 24.91875L32.840626 20.66875L37.215626 20.66875L37.215626 21.66875L33.7625 21.66875L33.496876 23.996876Q34.1375 23.621876 34.934376 23.621876Q36.090626 23.621876 36.778126 24.403126Q37.465626 25.16875 37.465626 26.48125Q37.465626 27.79375 36.746876 28.559376Q36.04375 29.325 34.7625 29.325Q33.6375 29.325 32.91875 28.7Q32.2 28.059376 32.10625 26.95L33.121876 26.95Q33.23125 27.684376 33.653126 28.059376Q34.075 28.434376 34.7625 28.434376Q35.5125 28.434376 35.95 27.91875Q36.3875 27.403126 36.3875 26.496876Q36.3875 25.6375 35.91875 25.121876Q35.45 24.60625 34.66875 24.60625Q33.965626 24.60625 33.559376 24.903126L33.278126 25.1375L32.403126 24.91875Z" fill-rule="nonzero"/><path fill="#000000" d="M71.07047 320.03436L67.47672 320.03436L67.47672 323.8L66.35172 323.8L66.35172 315.26874L71.6486 315.26874L71.6486 316.1906L67.47672 316.1906L67.47672 319.1125L71.07047 319.1125L71.07047 320.03436ZM77.10172 323.8Q77.00797 323.6125 76.94547 323.1281Q76.19547 323.925 75.1486 323.925Q74.2111 323.925 73.60172 323.39374Q73.00797 322.8625 73.00797 322.03436Q73.00797 321.05 73.75797 320.5031Q74.50797 319.95624 75.88297 319.95624L76.92985 319.95624L76.92985 319.45624Q76.92985 318.89374 76.5861 318.5656Q76.25797 318.22186 75.5861 318.22186Q75.00797 318.22186 74.61735 318.51874Q74.22672 318.8 74.22672 319.22186L73.13297 319.22186Q73.13297 318.7375 73.4611 318.3Q73.80485 317.8625 74.38297 317.6125Q74.9611 317.34686 75.6486 317.34686Q76.75797 317.34686 77.36735 317.89374Q77.99235 318.4406 78.0236 319.39374L78.0236 322.3156Q78.0236 323.1906 78.24235 323.70624L78.24235 323.8L77.10172 323.8ZM75.30485 322.97186Q75.82047 322.97186 76.2736 322.70624Q76.72672 322.4406 76.92985 322.01874L76.92985 320.72186L76.0861 320.72186Q74.0861 320.72186 74.0861 321.89374Q74.0861 322.39374 74.42985 322.6906Q74.7736 322.97186 75.30485 322.97186ZM82.72672 323.03436Q83.30485 323.03436 83.74235 322.6906Q84.17985 322.33124 84.22672 321.8L85.25797 321.8Q85.22672 322.34686 84.86735 322.84686Q84.5236 323.33124 83.94547 323.6281Q83.38297 323.925 82.72672 323.925Q81.42985 323.925 80.66422 323.0656Q79.91422 322.1906 79.91422 320.6906L79.91422 320.5031Q79.91422 319.58124 80.24235 318.8625Q80.5861 318.14374 81.2111 317.7531Q81.85172 317.34686 82.72672 317.34686Q83.78922 317.34686 84.49235 317.9875Q85.2111 318.6125 85.25797 319.64374L84.22672 319.64374Q84.17985 319.01874 83.75797 318.6281Q83.3361 318.2375 82.72672 318.2375Q81.8986 318.2375 81.44547 318.83124Q80.99235 319.425 80.99235 320.55L80.99235 320.7531Q80.99235 321.84686 81.44547 322.4406Q81.8986 323.03436 82.72672 323.03436ZM87.2736 318.22186Q87.99235 317.34686 89.1486 317.34686Q91.16422 317.34686 91.17985 319.6125L91.17985 323.8L90.0861 323.8L90.0861 319.59686Q90.0861 318.925 89.7736 318.59686Q89.47672 318.26874 88.82047 318.26874Q88.28922 318.26874 87.88297 318.55Q87.49235 318.83124 87.2736 319.28436L87.2736 323.8L86.19547 323.8L86.19547 314.8L87.2736 314.8L87.2736 318.22186ZM98.80485 322.3L100.0236 317.45624L101.10172 317.45624L99.25797 323.8L98.38297 323.8L96.8361 318.9875L95.3361 323.8L94.4611 323.8L92.61735 317.45624L93.69547 317.45624L94.94547 322.20624L96.42985 317.45624L97.28922 317.45624L98.80485 322.3ZM104.82047 323.925Q103.5236 323.925 102.7111 323.08124Q101.91422 322.22186 101.91422 320.8L101.91422 320.6125Q101.91422 319.65936 102.2736 318.925Q102.63297 318.175 103.2736 317.76874Q103.92985 317.34686 104.67985 317.34686Q105.91422 317.34686 106.60172 318.15936Q107.28922 318.97186 107.28922 320.4875L107.28922 320.9406L102.99235 320.9406Q103.0236 321.8781 103.53922 322.45624Q104.07047 323.03436 104.88297 323.03436Q105.44547 323.03436 105.8361 322.8Q106.24235 322.5656 106.55485 322.175L107.2111 322.6906Q106.41422 323.925 104.82047 323.925ZM104.67985 318.2375Q104.0236 318.2375 103.57047 318.72186Q103.13297 319.1906 103.03922 320.05L106.2111 320.05L106.2111 319.97186Q106.16422 319.14374 105.75797 318.6906Q105.36735 318.2375 104.67985 318.2375ZM111.25797 318.425Q111.00797 318.39374 110.72672 318.39374Q109.6486 318.39374 109.2736 319.3L109.2736 323.8L108.19547 323.8L108.19547 317.45624L109.24235 317.45624L109.25797 318.1906Q109.78922 317.34686 110.7736 317.34686Q111.0861 317.34686 111.25797 317.425L111.25797 318.425ZM113.9611 320.8625L113.2736 321.5656L113.2736 323.8L112.19547 323.8L112.19547 314.8L113.2736 314.8L113.2736 320.2375L113.85172 319.55L115.8361 317.45624L117.1486 317.45624L114.67985 320.1125L117.44547 323.8L116.16422 323.8L113.9611 320.8625Z" fill-rule="nonzero"/><path fill="#000000" d="M149.3074 315.26874L150.44803 315.26874L150.44803 321.3156Q150.44803 322.53436 149.69803 323.2375Q148.96365 323.925 147.7449 323.925Q146.47928 323.925 145.76053 323.26874Q145.0574 322.6125 145.0574 321.4406L146.1824 321.4406Q146.1824 322.175 146.57303 322.59686Q146.97928 323.0031 147.7449 323.0031Q148.44803 323.0031 148.8699 322.5656Q149.3074 322.1125 149.3074 321.33124L149.3074 315.26874ZM156.47928 323.175Q155.85428 323.925 154.6199 323.925Q153.60428 323.925 153.07303 323.33124Q152.54178 322.7375 152.54178 321.58124L152.54178 317.45624L153.6199 317.45624L153.6199 321.55Q153.6199 323.0031 154.79178 323.0031Q156.04178 323.0031 156.44803 322.0656L156.44803 317.45624L157.54178 317.45624L157.54178 323.8L156.51053 323.8L156.47928 323.175ZM163.26053 322.1125Q163.26053 321.675 162.91678 321.4406Q162.58865 321.1906 161.76053 321.01874Q160.94803 320.84686 160.46365 320.59686Q159.97928 320.34686 159.7449 320.01874Q159.52615 319.675 159.52615 319.20624Q159.52615 318.425 160.1824 317.89374Q160.83865 317.34686 161.8699 317.34686Q162.94803 317.34686 163.60428 317.90936Q164.27615 318.45624 164.27615 319.3156L163.19803 319.3156Q163.19803 318.8781 162.8074 318.5656Q162.4324 318.2375 161.8699 318.2375Q161.27615 318.2375 160.9324 318.5031Q160.60428 318.7531 160.60428 319.15936Q160.60428 319.55 160.91678 319.7531Q161.22928 319.95624 162.04178 320.14374Q162.85428 320.3156 163.35428 320.5656Q163.85428 320.8156 164.08865 321.175Q164.33865 321.53436 164.33865 322.03436Q164.33865 322.89374 163.65115 323.40936Q162.97928 323.925 161.90115 323.925Q161.13553 323.925 160.54178 323.65936Q159.96365 323.3781 159.63553 322.89374Q159.3074 322.40936 159.3074 321.84686L160.38553 321.84686Q160.41678 322.39374 160.82303 322.72186Q161.22928 323.03436 161.90115 323.03436Q162.51053 323.03436 162.88553 322.78436Q163.26053 322.53436 163.26053 322.1125ZM165.27615 320.5656Q165.27615 319.64374 165.63553 318.89374Q166.01053 318.14374 166.66678 317.7531Q167.32303 317.34686 168.15115 317.34686Q169.44803 317.34686 170.2449 318.2375Q171.0574 319.1281 171.0574 320.6281L171.0574 320.70624Q171.0574 321.6281 170.69803 322.3625Q170.33865 323.09686 169.6824 323.51874Q169.02615 323.925 168.16678 323.925Q166.88553 323.925 166.07303 323.03436Q165.27615 322.1281 165.27615 320.64374L165.27615 320.5656ZM166.3699 320.70624Q166.3699 321.7531 166.85428 322.39374Q167.35428 323.03436 168.16678 323.03436Q168.9949 323.03436 169.47928 322.39374Q169.96365 321.7375 169.96365 320.5656Q169.96365 319.53436 169.46365 318.89374Q168.97928 318.2375 168.15115 318.2375Q167.35428 318.2375 166.85428 318.8781Q166.3699 319.5031 166.3699 320.70624ZM176.26053 322.1125Q176.26053 321.675 175.91678 321.4406Q175.58865 321.1906 174.76053 321.01874Q173.94803 320.84686 173.46365 320.59686Q172.97928 320.34686 172.7449 320.01874Q172.52615 319.675 172.52615 319.20624Q172.52615 318.425 173.1824 317.89374Q173.83865 317.34686 174.8699 317.34686Q175.94803 317.34686 176.60428 317.90936Q177.27615 318.45624 177.27615 319.3156L176.19803 319.3156Q176.19803 318.8781 175.8074 318.5656Q175.4324 318.2375 174.8699 318.2375Q174.27615 318.2375 173.9324 318.5031Q173.60428 318.7531 173.60428 319.15936Q173.60428 319.55 173.91678 319.7531Q174.22928 319.95624 175.04178 320.14374Q175.85428 320.3156 176.35428 320.5656Q176.85428 320.8156 177.08865 321.175Q177.33865 321.53436 177.33865 322.03436Q177.33865 322.89374 176.65115 323.40936Q175.97928 323.925 174.90115 323.925Q174.13553 323.925 173.54178 323.65936Q172.96365 323.3781 172.63553 322.89374Q172.3074 322.40936 172.3074 321.84686L173.38553 321.84686Q173.41678 322.39374 173.82303 322.72186Q174.22928 323.03436 174.90115 323.03436Q175.51053 323.03436 175.88553 322.78436Q176.26053 322.53436 176.26053 322.1125Z" fill-rule="nonzero"/><path fill="#000000" d="M221.74745 322.8781L225.79433 322.8781L225.79433 323.8L220.60683 323.8L220.60683 315.26874L221.74745 315.26874L221.74745 322.8781ZM233.16933 323.8L232.04433 323.8L232.04433 319.8625L227.73183 319.8625L227.73183 323.8L226.60683 323.8L226.60683 315.26874L227.73183 315.26874L227.73183 318.9406L232.04433 318.9406L232.04433 315.26874L233.16933 315.26874L233.16933 323.8ZM241.91933 322.675Q241.48183 323.3 240.70058 323.6125Q239.91933 323.925 238.88808 323.925Q237.85683 323.925 237.04433 323.4406Q236.23183 322.9406 235.79433 322.03436Q235.35683 321.1281 235.3412 319.9406L235.3412 319.20624Q235.3412 317.26874 236.23183 316.20624Q237.13808 315.14374 238.76308 315.14374Q240.10683 315.14374 240.91933 315.83124Q241.73183 316.51874 241.91933 317.76874L240.79433 317.76874Q240.4662 316.08124 238.7787 316.08124Q237.63808 316.08124 237.05995 316.8781Q236.48183 317.65936 236.4662 319.175L236.4662 319.8625Q236.4662 321.3 237.12245 322.15936Q237.7787 323.0031 238.9037 323.0031Q239.5287 323.0031 239.99745 322.8625Q240.48183 322.72186 240.79433 322.3781L240.79433 320.47186L238.82558 320.47186L238.82558 319.55L241.91933 319.55L241.91933 322.675Z" fill-rule="nonzero"/><path fill="#000000" d="M290.125 320.34686L288.10938 320.34686L288.10938 323.8L286.98438 323.8L286.98438 315.26874L289.8125 315.26874Q291.25 315.26874 292.01562 315.925Q292.79688 316.58124 292.79688 317.83124Q292.79688 318.6281 292.35938 319.22186Q291.9375 319.8156 291.17188 320.1125L293.17188 323.72186L293.17188 323.8L291.96875 323.8L290.125 320.34686ZM288.10938 319.425L289.84375 319.425Q290.6875 319.425 291.17188 319.0031Q291.67188 318.5656 291.67188 317.83124Q291.67188 317.05 291.20312 316.6281Q290.73438 316.20624 289.84375 316.1906L288.10938 316.1906L288.10938 319.425ZM300.26562 321.09686Q300.10938 322.4406 299.26562 323.1906Q298.42188 323.925 297.03125 323.925Q295.51562 323.925 294.60938 322.84686Q293.70312 321.7531 293.70312 319.925L293.70312 319.1125Q293.70312 317.925 294.125 317.01874Q294.54688 316.1125 295.32812 315.6281Q296.10938 315.14374 297.125 315.14374Q298.48438 315.14374 299.29688 315.90936Q300.125 316.675 300.26562 318.0031L299.14062 318.0031Q298.98438 316.9875 298.5 316.53436Q298.01562 316.08124 297.125 316.08124Q296.04688 316.08124 295.4375 316.8781Q294.82812 317.675 294.82812 319.14374L294.82812 319.97186Q294.82812 321.3625 295.40625 322.1906Q295.98438 323.0031 297.03125 323.0031Q297.96875 323.0031 298.46875 322.58124Q298.96875 322.14374 299.14062 321.09686L300.26562 321.09686ZM301.98438 323.8L301.98438 315.26874L304.40625 315.26874Q305.51562 315.26874 306.35938 315.76874Q307.21875 316.2531 307.6875 317.15936Q308.15625 318.0656 308.15625 319.2531L308.15625 319.78436Q308.15625 321.0031 307.6875 321.90936Q307.23438 322.8156 306.35938 323.3Q305.5 323.78436 304.35938 323.8L301.98438 323.8ZM303.10938 316.1906L303.10938 322.8781L304.29688 322.8781Q305.59375 322.8781 306.3125 322.08124Q307.04688 321.26874 307.04688 319.76874L307.04688 319.26874Q307.04688 317.8156 306.35938 317.01874Q305.6875 316.20624 304.42188 316.1906L303.10938 316.1906ZM312.5 320.0031Q311.0625 319.58124 310.39062 318.97186Q309.73438 318.3625 309.73438 317.47186Q309.73438 316.47186 310.53125 315.8156Q311.34375 315.14374 312.64062 315.14374Q313.51562 315.14374 314.20312 315.4875Q314.89062 315.83124 315.26562 316.425Q315.65625 317.01874 315.65625 317.7375L314.51562 317.7375Q314.51562 316.95624 314.01562 316.51874Q313.53125 316.08124 312.64062 316.08124Q311.8125 316.08124 311.34375 316.45624Q310.875 316.8156 310.875 317.45624Q310.875 317.9875 311.3125 318.34686Q311.76562 318.70624 312.82812 319.0031Q313.89062 319.3 314.48438 319.65936Q315.09375 320.01874 315.375 320.5031Q315.67188 320.9875 315.67188 321.6281Q315.67188 322.675 314.85938 323.3Q314.04688 323.925 312.70312 323.925Q311.8125 323.925 311.04688 323.58124Q310.29688 323.2375 309.875 322.65936Q309.46875 322.0656 309.46875 321.33124L310.59375 321.33124Q310.59375 322.09686 311.17188 322.55Q311.75 323.0031 312.70312 323.0031Q313.59375 323.0031 314.0625 322.64374Q314.53125 322.26874 314.53125 321.64374Q314.53125 321.01874 314.09375 320.675Q313.65625 320.33124 312.5 320.0031Z" fill-rule="nonzero"/><path fill="#000000" d="M352.98694 320.45624L352.98694 323.8L351.86194 323.8L351.86194 315.26874L355.0182 315.26874Q356.4088 315.26874 357.2057 315.9875Q358.00256 316.6906 358.00256 317.8781Q358.00256 319.1125 357.2213 319.78436Q356.4557 320.45624 355.00256 320.45624L352.98694 320.45624ZM352.98694 319.53436L355.0182 319.53436Q355.92444 319.53436 356.3932 319.1125Q356.87756 318.6906 356.87756 317.89374Q356.87756 317.1281 356.3932 316.675Q355.92444 316.20624 355.0807 316.1906L352.98694 316.1906L352.98694 319.53436ZM364.5807 321.5656L361.00256 321.5656L360.2057 323.8L359.04944 323.8L362.29944 315.26874L363.2838 315.26874L366.54944 323.8L365.3932 323.8L364.5807 321.5656ZM361.3463 320.64374L364.25256 320.64374L362.79944 316.65936L361.3463 320.64374ZM371.00256 320.34686L368.98694 320.34686L368.98694 323.8L367.86194 323.8L367.86194 315.26874L370.69006 315.26874Q372.12756 315.26874 372.8932 315.925Q373.67444 316.58124 373.67444 317.83124Q373.67444 318.6281 373.23694 319.22186Q372.81506 319.8156 372.04944 320.1125L374.04944 323.72186L374.04944 323.8L372.8463 323.8L371.00256 320.34686ZM368.98694 319.425L370.7213 319.425Q371.56506 319.425 372.04944 319.0031Q372.54944 318.5656 372.54944 317.83124Q372.54944 317.05 372.0807 316.6281Q371.61194 316.20624 370.7213 316.1906L368.98694 316.1906L368.98694 319.425ZM380.7682 316.1906L378.0182 316.1906L378.0182 323.8L376.9088 323.8L376.9088 316.1906L374.1588 316.1906L374.1588 315.26874L380.7682 315.26874L380.7682 316.1906ZM386.69006 319.8625L382.98694 319.8625L382.98694 322.8781L387.2838 322.8781L387.2838 323.8L381.86194 323.8L381.86194 315.26874L387.23694 315.26874L387.23694 316.1906L382.98694 316.1906L382.98694 318.9406L386.69006 318.9406L386.69006 319.8625ZM390.0807 323.8L388.9557 323.8L388.9557 315.26874L390.0807 315.26874L390.0807 323.8Z" fill-rule="nonzero"/><path fill="#000000" d="M433.2551 320.0031Q431.8176 319.58124 431.14572 318.97186Q430.48947 318.3625 430.48947 317.47186Q430.48947 316.47186 431.28635 315.8156Q432.09885 315.14374 433.39572 315.14374Q434.27072 315.14374 434.95822 315.4875Q435.64572 315.83124 436.02072 316.425Q436.41135 317.01874 436.41135 317.7375L435.27072 317.7375Q435.27072 316.95624 434.77072 316.51874Q434.28635 316.08124 433.39572 316.08124Q432.5676 316.08124 432.09885 316.45624Q431.6301 316.8156 431.6301 317.45624Q431.6301 317.9875 432.0676 318.34686Q432.52072 318.70624 433.58322 319.0031Q434.64572 319.3 435.23947 319.65936Q435.84885 320.01874 436.1301 320.5031Q436.42697 320.9875 436.42697 321.6281Q436.42697 322.675 435.61447 323.3Q434.80197 323.925 433.45822 323.925Q432.5676 323.925 431.80197 323.58124Q431.05197 323.2375 430.6301 322.65936Q430.22385 322.0656 430.22385 321.33124L431.34885 321.33124Q431.34885 322.09686 431.92697 322.55Q432.5051 323.0031 433.45822 323.0031Q434.34885 323.0031 434.8176 322.64374Q435.28635 322.26874 435.28635 321.64374Q435.28635 321.01874 434.84885 320.675Q434.41135 320.33124 433.2551 320.0031ZM437.73947 323.8L437.73947 315.26874L440.16135 315.26874Q441.27072 315.26874 442.11447 315.76874Q442.97385 316.2531 443.4426 317.15936Q443.91135 318.0656 443.91135 319.2531L443.91135 319.78436Q443.91135 321.0031 443.4426 321.90936Q442.98947 322.8156 442.11447 323.3Q441.2551 323.78436 440.11447 323.8L437.73947 323.8ZM438.86447 316.1906L438.86447 322.8781L440.05197 322.8781Q441.34885 322.8781 442.0676 322.08124Q442.80197 321.26874 442.80197 319.76874L442.80197 319.26874Q442.80197 317.8156 442.11447 317.01874Q441.4426 316.20624 440.17697 316.1906L438.86447 316.1906ZM448.2551 320.0031Q446.8176 319.58124 446.14572 318.97186Q445.48947 318.3625 445.48947 317.47186Q445.48947 316.47186 446.28635 315.8156Q447.09885 315.14374 448.39572 315.14374Q449.27072 315.14374 449.95822 315.4875Q450.64572 315.83124 451.02072 316.425Q451.41135 317.01874 451.41135 317.7375L450.27072 317.7375Q450.27072 316.95624 449.77072 316.51874Q449.28635 316.08124 448.39572 316.08124Q447.5676 316.08124 447.09885 316.45624Q446.6301 316.8156 446.6301 317.45624Q446.6301 317.9875 447.0676 318.34686Q447.52072 318.70624 448.58322 319.0031Q449.64572 319.3 450.23947 319.65936Q450.84885 320.01874 451.1301 320.5031Q451.42697 320.9875 451.42697 321.6281Q451.42697 322.675 450.61447 323.3Q449.80197 323.925 448.45822 323.925Q447.5676 323.925 446.80197 323.58124Q446.05197 323.2375 445.6301 322.65936Q445.22385 322.0656 445.22385 321.33124L446.34885 321.33124Q446.34885 322.09686 446.92697 322.55Q447.5051 323.0031 448.45822 323.0031Q449.34885 323.0031 449.8176 322.64374Q450.28635 322.26874 450.28635 321.64374Q450.28635 321.01874 449.84885 320.675Q449.41135 320.33124 448.2551 320.0031Z" fill-rule="nonzero"/><path fill="#000000" d="M479.3983 321.09686Q479.24203 322.4406 478.3983 323.1906Q477.55453 323.925 476.1639 323.925Q474.6483 323.925 473.74203 322.84686Q472.8358 321.7531 472.8358 319.925L472.8358 319.1125Q472.8358 317.925 473.25766 317.01874Q473.67953 316.1125 474.4608 315.6281Q475.24203 315.14374 476.25766 315.14374Q477.61703 315.14374 478.42953 315.90936Q479.25766 316.675 479.3983 318.0031L478.2733 318.0031Q478.11703 316.9875 477.63266 316.53436Q477.1483 316.08124 476.25766 316.08124Q475.17953 316.08124 474.57016 316.8781Q473.9608 317.675 473.9608 319.14374L473.9608 319.97186Q473.9608 321.3625 474.5389 322.1906Q475.11703 323.0031 476.1639 323.0031Q477.1014 323.0031 477.6014 322.58124Q478.1014 322.14374 478.2733 321.09686L479.3983 321.09686ZM484.86703 323.8Q484.7733 323.6125 484.7108 323.1281Q483.9608 323.925 482.9139 323.925Q481.9764 323.925 481.36703 323.39374Q480.7733 322.8625 480.7733 322.03436Q480.7733 321.05 481.5233 320.5031Q482.2733 319.95624 483.6483 319.95624L484.69516 319.95624L484.69516 319.45624Q484.69516 318.89374 484.3514 318.5656Q484.0233 318.22186 483.3514 318.22186Q482.7733 318.22186 482.38266 318.51874Q481.99203 318.8 481.99203 319.22186L480.8983 319.22186Q480.8983 318.7375 481.2264 318.3Q481.57016 317.8625 482.1483 317.6125Q482.7264 317.34686 483.4139 317.34686Q484.5233 317.34686 485.13266 317.89374Q485.75766 318.4406 485.7889 319.39374L485.7889 322.3156Q485.7889 323.1906 486.00766 323.70624L486.00766 323.8L484.86703 323.8ZM483.07016 322.97186Q483.5858 322.97186 484.0389 322.70624Q484.49203 322.4406 484.69516 322.01874L484.69516 320.72186L483.8514 320.72186Q481.8514 320.72186 481.8514 321.89374Q481.8514 322.39374 482.19516 322.6906Q482.5389 322.97186 483.07016 322.97186ZM488.9764 317.45624L489.00766 318.15936Q489.69516 317.34686 490.88266 317.34686Q492.2108 317.34686 492.69516 318.3625Q493.00766 317.90936 493.50766 317.6281Q494.0233 317.34686 494.7108 317.34686Q496.80453 317.34686 496.8358 319.55L496.8358 323.8L495.75766 323.8L495.75766 319.6125Q495.75766 318.9406 495.44516 318.6125Q495.13266 318.26874 494.3983 318.26874Q493.7889 318.26874 493.38266 318.6281Q492.99203 318.9875 492.92953 319.59686L492.92953 323.8L491.8514 323.8L491.8514 319.64374Q491.8514 318.26874 490.49203 318.26874Q489.42953 318.26874 489.0389 319.175L489.0389 323.8L487.94516 323.8L487.94516 317.45624L488.9764 317.45624ZM504.30453 320.70624Q504.30453 322.14374 503.6483 323.03436Q502.99203 323.925 501.8514 323.925Q500.69516 323.925 500.0389 323.1906L500.0389 326.2375L498.9608 326.2375L498.9608 317.45624L499.94516 317.45624L499.99203 318.15936Q500.6639 317.34686 501.8358 317.34686Q502.9764 317.34686 503.63266 318.20624Q504.30453 319.0656 504.30453 320.59686L504.30453 320.70624ZM503.2264 320.58124Q503.2264 319.5031 502.75766 318.89374Q502.30453 318.26874 501.50766 318.26874Q500.5233 318.26874 500.0389 319.1281L500.0389 322.15936Q500.5233 323.03436 501.5233 323.03436Q502.30453 323.03436 502.75766 322.425Q503.2264 321.8 503.2264 320.58124ZM509.86703 323.175Q509.24203 323.925 508.00766 323.925Q506.99203 323.925 506.4608 323.33124Q505.92953 322.7375 505.92953 321.58124L505.92953 317.45624L507.00766 317.45624L507.00766 321.55Q507.00766 323.0031 508.17953 323.0031Q509.42953 323.0031 509.8358 322.0656L509.8358 317.45624L510.92953 317.45624L510.92953 323.8L509.8983 323.8L509.86703 323.175ZM516.6483 322.1125Q516.6483 321.675 516.30457 321.4406Q515.97644 321.1906 515.1483 321.01874Q514.3358 320.84686 513.85144 320.59686Q513.36707 320.34686 513.1327 320.01874Q512.91394 319.675 512.91394 319.20624Q512.91394 318.425 513.5702 317.89374Q514.22644 317.34686 515.2577 317.34686Q516.3358 317.34686 516.99207 317.90936Q517.66394 318.45624 517.66394 319.3156L516.5858 319.3156Q516.5858 318.8781 516.1952 318.5656Q515.8202 318.2375 515.2577 318.2375Q514.66394 318.2375 514.3202 318.5031Q513.99207 318.7531 513.99207 319.15936Q513.99207 319.55 514.30457 319.7531Q514.61707 319.95624 515.42957 320.14374Q516.24207 320.3156 516.74207 320.5656Q517.24207 320.8156 517.47644 321.175Q517.72644 321.53436 517.72644 322.03436Q517.72644 322.89374 517.03894 323.40936Q516.36707 323.925 515.28894 323.925Q514.5233 323.925 513.92957 323.65936Q513.35144 323.3781 513.0233 322.89374Q512.6952 322.40936 512.6952 321.84686L513.7733 321.84686Q513.80457 322.39374 514.2108 322.72186Q514.61707 323.03436 515.28894 323.03436Q515.8983 323.03436 516.2733 322.78436Q516.6483 322.53436 516.6483 322.1125ZM518.6952 320.58124Q518.6952 319.09686 519.3827 318.22186Q520.0702 317.34686 521.1952 317.34686Q522.35144 317.34686 523.0077 318.15936L523.05457 317.45624L524.05457 317.45624L524.05457 323.64374Q524.05457 324.8781 523.3202 325.58124Q522.5858 326.3 521.36707 326.3Q520.67957 326.3 520.0233 326.0031Q519.36707 325.70624 519.0233 325.20624L519.5858 324.55Q520.2733 325.40936 521.28894 325.40936Q522.0702 325.40936 522.5077 324.95624Q522.9608 324.51874 522.9608 323.70624L522.9608 323.15936Q522.30457 323.925 521.17957 323.925Q520.0702 323.925 519.3827 323.03436Q518.6952 322.1281 518.6952 320.58124ZM519.78894 320.70624Q519.78894 321.76874 520.22644 322.39374Q520.66394 323.0031 521.4608 323.0031Q522.47644 323.0031 522.9608 322.0656L522.9608 319.175Q522.4608 318.26874 521.4608 318.26874Q520.67957 318.26874 520.22644 318.8781Q519.78894 319.4875 519.78894 320.70624ZM529.0233 318.425Q528.7733 318.39374 528.49207 318.39374Q527.41394 318.39374 527.03894 319.3L527.03894 323.8L525.9608 323.8L525.9608 317.45624L527.0077 317.45624L527.0233 318.1906Q527.55457 317.34686 528.53894 317.34686Q528.85144 317.34686 529.0233 317.425L529.0233 318.425ZM533.86707 323.175Q533.24207 323.925 532.0077 323.925Q530.99207 323.925 530.4608 323.33124Q529.92957 322.7375 529.92957 321.58124L529.92957 317.45624L531.0077 317.45624L531.0077 321.55Q531.0077 323.0031 532.17957 323.0031Q533.42957 323.0031 533.8358 322.0656L533.8358 317.45624L534.92957 317.45624L534.92957 323.8L533.8983 323.8L533.86707 323.175ZM530.5702 315.76874Q530.5702 315.5031 530.72644 315.33124Q530.8983 315.14374 531.2108 315.14374Q531.5233 315.14374 531.67957 315.33124Q531.85144 315.5031 531.85144 315.76874Q531.85144 316.03436 531.67957 316.20624Q531.5233 316.3781 531.2108 316.3781Q530.8983 316.3781 530.72644 316.20624Q530.5702 316.03436 530.5702 315.76874ZM533.0858 315.78436Q533.0858 315.51874 533.24207 315.33124Q533.41394 315.14374 533.72644 315.14374Q534.03894 315.14374 534.1952 315.33124Q534.36707 315.51874 534.36707 315.78436Q534.36707 316.03436 534.1952 316.22186Q534.03894 316.39374 533.72644 316.39374Q533.41394 316.39374 533.24207 316.22186Q533.0858 316.03436 533.0858 315.78436ZM537.97644 317.45624L538.0077 318.2531Q538.74207 317.34686 539.91394 317.34686Q541.92957 317.34686 541.9452 319.6125L541.9452 323.8L540.85144 323.8L540.85144 319.59686Q540.85144 318.925 540.53894 318.59686Q540.24207 318.26874 539.5858 318.26874Q539.05457 318.26874 538.6483 318.55Q538.2577 318.83124 538.03894 319.28436L538.03894 323.8L536.9608 323.8L536.9608 317.45624L537.97644 317.45624ZM546.5858 323.925Q545.28894 323.925 544.47644 323.08124Q543.67957 322.22186 543.67957 320.8L543.67957 320.6125Q543.67957 319.65936 544.03894 318.925Q544.3983 318.175 545.03894 317.76874Q545.6952 317.34686 546.4452 317.34686Q547.67957 317.34686 548.36707 318.15936Q549.05457 318.97186 549.05457 320.4875L549.05457 320.9406L544.7577 320.9406Q544.78894 321.8781 545.30457 322.45624Q545.8358 323.03436 546.6483 323.03436Q547.2108 323.03436 547.60144 322.8Q548.0077 322.5656 548.3202 322.175L548.97644 322.6906Q548.17957 323.925 546.5858 323.925ZM546.4452 318.2375Q545.78894 318.2375 545.3358 318.72186Q544.8983 319.1906 544.80457 320.05L547.97644 320.05L547.97644 319.97186Q547.92957 319.14374 547.5233 318.6906Q547.1327 318.2375 546.4452 318.2375Z" fill-rule="nonzero"/></svg>