<svg width="83" height="35" viewBox="0 0 83 35" fill="none" xmlns="http://www.w3.org/2000/svg">
    <g clip-path="url(#clip0)">
        <path d="M6.65507 10.6025C5.21269 10.6025 4.07397 11.756 4.07397 13.1602C4.07397 14.5644 5.238 15.7178 6.65507 15.7178C8.09745 15.7178 9.23617 14.5644 9.23617 13.1602C9.23617 11.756 8.07214 10.6025 6.65507 10.6025Z" stroke="#4100CC" stroke-width="0.903973" stroke-miterlimit="10" />
        <path d="M19.2823 10.6025C17.8399 10.6025 16.7012 11.756 16.7012 13.1602C16.7012 14.5644 17.8652 15.7178 19.2823 15.7178C20.7247 15.7178 21.8634 14.5644 21.8634 13.1602C21.8634 11.756 20.7247 10.6025 19.2823 10.6025Z" stroke="#4100CC" stroke-width="0.903973" stroke-miterlimit="10" />
        <path d="M40.8675 21.1336L40.5638 20.4064H38.1346L37.7297 21.1336H32.6687L39.2986 8.67139L45.9791 21.1336H40.8675Z" stroke="#4100CC" stroke-width="0.903973" />
        <path d="M51.976 21.1338C49.2937 21.1338 47.497 19.9552 46.333 18.3505C46.333 18.3254 48.8382 16.0686 48.8382 16.0686C48.8382 16.0686 46.4595 15.517 46.4595 12.4579C46.4595 9.22321 49.1418 8.22021 51.8495 8.22021C53.1653 8.22021 55.5187 8.59634 56.7333 10.477L54.5318 12.4829C54.5318 12.4829 57.3659 13.1098 57.3659 16.4448C57.3912 19.6794 54.633 21.1338 51.976 21.1338Z" stroke="#4100CC" stroke-width="0.903973" />
        <path d="M68.0193 20.9079C68.0193 20.9079 63.4898 22.1867 61.2123 19.7294C59.9724 18.4004 60.2001 14.9902 60.2001 14.9902H58.9602V11.7807H60.4279L60.934 8.67139H64.4767L64.4261 11.7807H66.6023L67.1084 14.9652H64.2995C64.2995 14.9652 64.1224 16.6953 64.6791 17.247C65.1346 17.7736 67.5132 17.4977 67.5132 17.4977L68.0193 20.9079Z" stroke="#4100CC" stroke-width="0.903973" />
        <path d="M77.4077 21.1336L77.0787 20.4064H74.6494L74.2446 21.1336H69.1836L75.8135 8.67139L82.494 21.1336H77.4077Z" stroke="#4100CC" stroke-width="0.903973" />
        <path d="M37.4006 23.616V24.7695H36.0341V28.6059H34.693V24.7695H33.4024V23.616H37.4006ZM37.8055 23.2148H37.4006H33.4024H32.9976V23.616V24.7695V25.1707H33.4024H34.2881V28.6059V29.0071H34.693H36.0341H36.439V28.6059V25.1707H37.4006H37.8055V24.7695V23.616V23.2148Z" fill="#4100CC" />
        <path d="M42.1833 23.616V26.951C42.1833 28.28 41.5506 28.6561 40.0577 28.6561C38.0333 28.6561 37.8308 28.1546 37.8308 26.951V23.616H39.172V26.9259C39.172 27.5026 39.5009 27.5026 40.0577 27.5026C40.6397 27.5026 40.8168 27.4525 40.8168 26.8758V23.616H42.1833ZM42.5881 23.2148H42.1833H40.8421H40.4372V23.616V26.8758C40.4372 27.0011 40.4372 27.0513 40.4119 27.1014C40.3613 27.1265 40.2348 27.1265 40.0577 27.1265C39.9058 27.1265 39.6781 27.1265 39.5769 27.1014C39.5769 27.0764 39.5516 27.0513 39.5516 26.951V23.616V23.2148H39.1467H37.8055H37.4006V23.616V26.951C37.4006 28.3803 37.8055 29.0573 40.0323 29.0573C41.3482 29.0573 42.5628 28.8065 42.5628 26.951V23.616V23.2148H42.5881Z" fill="#4100CC" />
        <path d="M47.9275 23.616C49.3445 23.616 49.9518 24.1426 49.9518 25.5468V26.5999C49.9518 27.9791 49.4964 28.6059 48.1046 28.6059H45.3717V23.616H47.9275ZM46.7128 27.4525H47.9022C48.4083 27.4525 48.5854 27.1265 48.5854 26.5999V25.5468C48.5854 24.8949 48.383 24.7695 47.9022 24.7695H46.7128V27.4525ZM47.9275 23.2148H45.3717H44.9668V23.616V28.631V29.0322H45.3717H48.1046C50.1037 29.0322 50.3567 27.7534 50.3567 26.625V25.5719C50.3567 23.9671 49.5723 23.2148 47.9275 23.2148ZM47.1177 25.1707H47.9022C48.0793 25.1707 48.1299 25.1958 48.1299 25.1958C48.1299 25.1958 48.1805 25.271 48.1805 25.5468V26.5999C48.1805 27.0513 48.054 27.0513 47.9022 27.0513H47.1177V25.1707Z" fill="#4100CC" />
        <path d="M52.2545 25.0706C53.4692 25.0706 53.9499 25.2211 53.9499 26.4247V28.6062H52.7859L52.8365 28.0796H52.7859C52.71 28.556 52.1786 28.6313 51.7737 28.6313C50.964 28.6313 50.4832 28.4307 50.4832 27.553C50.4832 26.7005 50.9387 26.4497 51.7737 26.4497H51.799C52.128 26.4497 52.6088 26.4497 52.7353 26.8509H52.7859V26.2993C52.7859 25.9733 52.7606 25.7727 52.2545 25.7727C51.9762 25.7727 51.7737 25.848 51.7737 26.1488H50.6097C50.635 25.0706 51.4195 25.0706 52.2545 25.0706ZM52.1533 27.9041C52.6341 27.9041 52.7859 27.8539 52.7859 27.4778C52.7859 27.1769 52.5329 27.1518 52.1533 27.1518C51.8749 27.1518 51.6472 27.202 51.6472 27.528C51.6472 27.9041 52.0015 27.9041 52.1533 27.9041ZM52.2798 24.6694C51.4954 24.6694 50.2554 24.6694 50.2554 26.1488V26.55H50.4326C50.2554 26.7757 50.1289 27.1017 50.1289 27.553C50.1289 29.0325 51.3435 29.0325 51.8243 29.0325C52.0521 29.0325 52.2545 29.0074 52.4063 28.9572V28.9823H52.8365H54.0006H54.4054V28.5811V26.3996C54.3548 24.7948 53.4185 24.6694 52.2798 24.6694Z" fill="#4100CC" />
        <path d="M56.7588 25.0706C57.5685 25.0706 57.6444 25.7226 57.6444 26.3745V26.6503H56.6069V26.4748C56.6069 26.2241 56.6322 25.9483 56.3033 25.9483C55.949 25.9483 55.8731 26.2241 55.8731 26.4999V28.6062H54.7091V25.1208H55.8225V25.6223H55.8731C55.949 25.4217 56.0755 25.2712 56.2274 25.196C56.3539 25.1208 56.531 25.0706 56.7588 25.0706ZM56.7588 24.6694C56.5563 24.6694 56.3792 24.6945 56.2274 24.7447V24.6945H55.8225H54.7091H54.3042V25.1208V28.6313V29.0325H54.7091H55.8731H56.278V28.6313V27.0515H56.6069H57.6444H58.0493V26.6503V26.3745C58.024 25.8981 58.024 24.6694 56.7588 24.6694Z" fill="#4100CC" />
        <path d="M62.4272 25.0706C63.2369 25.0706 63.6671 25.3966 63.6671 26.2241V28.6313H62.5031V26.6002C62.4778 26.2241 62.4778 25.9733 62.0476 25.9733C61.5921 25.9733 61.5162 26.2742 61.5162 26.6503V28.6313H60.3522V26.4999C60.3269 26.1739 60.3269 25.9483 59.922 25.9483C59.4412 25.9483 59.3653 26.199 59.3653 26.6253V28.6062H58.2013V25.1208H59.3147V25.6223H59.3653C59.5171 25.2211 59.9473 25.0957 60.3269 25.0957C60.833 25.0957 61.3391 25.196 61.3897 25.7727H61.4403C61.5162 25.2712 61.997 25.0706 62.4272 25.0706ZM62.4272 24.6694C62.0223 24.6694 61.6933 24.7948 61.4403 24.9954C61.1872 24.7948 60.8077 24.6694 60.3269 24.6694C60.0991 24.6694 59.8967 24.6945 59.7196 24.7697V24.7196H59.3147H58.2013H57.7964V25.1208V28.6313V29.0325H58.2013H59.3653H59.7702V28.6313V26.6253C59.7702 26.4497 59.7955 26.3996 59.7955 26.3745C59.8208 26.3745 59.8461 26.3494 59.922 26.3494H59.9473C59.9473 26.3996 59.9473 26.4497 59.9473 26.4999V28.6062V29.0074H60.3522H61.5162H61.9211V28.6062V26.6253C61.9211 26.4247 61.9464 26.3745 61.9464 26.3745C61.9464 26.3745 61.9717 26.3745 62.0476 26.3745C62.0729 26.3745 62.0729 26.3745 62.0982 26.3745C62.0982 26.4247 62.0982 26.4999 62.1235 26.5751V26.6253V28.6313V29.0325H62.5284H63.6924H64.0973V28.6313V26.2241C64.072 25.522 63.7936 24.6694 62.4272 24.6694Z" fill="#4100CC" />
        <path d="M65.9952 25.0706C66.6532 25.0706 67.5641 25.0706 67.5641 25.9483V26.1238H66.476C66.4507 25.9733 66.3748 25.8981 66.2989 25.873C66.223 25.848 66.0965 25.848 66.0205 25.848C65.4132 25.848 65.4132 25.9232 65.4132 26.1238C65.4132 26.2993 65.4385 26.4247 66.0205 26.4247C67.2099 26.4497 67.7413 26.525 67.7413 27.5029C67.7413 28.531 66.9315 28.6814 66.0205 28.6814C65.9952 28.6814 65.9699 28.6814 65.9193 28.6814C65.0337 28.6814 64.2745 28.6563 64.2745 27.553H65.4385C65.4385 27.9542 65.7169 27.9542 66.0205 27.9542C66.5519 27.9542 66.6279 27.9292 66.6279 27.6533C66.6279 27.3023 66.4254 27.3023 66.0205 27.3023C64.5529 27.3023 64.2998 26.9763 64.2998 26.2491C64.2745 25.0957 65.0083 25.0706 65.9952 25.0706ZM65.9952 24.6694C65.0843 24.6694 63.8696 24.6694 63.8696 26.2241C63.8696 26.6253 63.9708 26.9011 64.1227 27.1268H63.8696V27.528C63.8696 29.0575 65.1096 29.0575 65.9193 29.0575H65.9699H66.0205C66.6026 29.0575 68.1461 29.0575 68.1461 27.4778C68.1461 27.0265 68.0449 26.7256 67.8678 26.4999H67.969V26.0987V25.9232C67.969 24.6694 66.5772 24.6694 65.9952 24.6694Z" fill="#4100CC" />
        <path d="M69.6137 24.3685V25.1207H70.9548V25.9482H69.6137V27.5028C69.6137 27.7034 69.6643 27.8037 69.8667 27.8037C70.1704 27.8037 70.1451 27.5781 70.1704 27.3524V27.1769H71.0814V27.5028C71.0814 28.4557 70.7271 28.6814 69.7908 28.6814C69.057 28.6814 68.4497 28.5811 68.4497 27.7034V25.9733H68.0195V25.1207H68.4497V24.3685H69.6137ZM70.0186 23.9673H69.6137H68.4497H68.0701V24.3685V24.7195H68.0448H67.6399V25.1207V25.9482V26.3494H68.0448H68.0701V27.6784C68.0701 29.0575 69.31 29.0575 69.8161 29.0575C70.8283 29.0575 71.5116 28.7817 71.5116 27.4778V27.1518V26.7506H71.1067H70.1957H70.0186V26.3243H70.9548H71.3597V25.9231V25.1207V24.7195H70.9548H70.0186V24.3685V23.9673Z" fill="#4100CC" />
        <path d="M73.2323 25.0706C74.4469 25.0706 74.9277 25.2211 74.9277 26.4247V28.6062H73.7637L73.8143 28.0796H73.7637C73.6878 28.556 73.1564 28.6313 72.7515 28.6313C71.9417 28.6313 71.461 28.4307 71.461 27.553C71.461 26.7005 71.9164 26.4497 72.7515 26.4497H72.7768C73.1058 26.4497 73.5866 26.4497 73.7131 26.8509H73.7637V26.2993C73.7637 25.9733 73.7384 25.7727 73.2323 25.7727C72.9539 25.7727 72.7515 25.848 72.7515 26.1488H71.6128C71.6128 25.0706 72.3972 25.0706 73.2323 25.0706ZM73.1311 27.9041C73.6119 27.9041 73.7637 27.8539 73.7637 27.4778C73.7637 27.1769 73.5106 27.1518 73.1311 27.1518C72.8527 27.1518 72.625 27.202 72.625 27.528C72.625 27.9041 72.9539 27.9041 73.1311 27.9041ZM73.2576 24.6694C72.4731 24.6694 71.2332 24.6694 71.2332 26.1488V26.55H71.4104C71.2332 26.7757 71.1067 27.1017 71.1067 27.553C71.1067 29.0325 72.3213 29.0325 72.8021 29.0325C73.0299 29.0325 73.2323 29.0074 73.3841 28.9572V28.9823H73.8143H74.9783H75.3832V28.5811V26.3996C75.3326 24.7948 74.3963 24.6694 73.2576 24.6694Z" fill="#4100CC" />
        <path d="M79.0525 23.616V28.631H77.8885L77.9138 28.0292H77.8632C77.7367 28.5558 77.3571 28.6812 76.851 28.6812C75.9907 28.6812 75.5099 28.3301 75.5099 27.4023V26.5999C75.5099 25.5217 75.8894 25.0955 76.851 25.0955C77.2812 25.0955 77.6355 25.1958 77.8379 25.6471H77.8885V23.6411H79.0525V23.616ZM77.2812 27.7785C77.762 27.7785 77.9138 27.6531 77.9138 26.8758C77.9138 26.1988 77.8885 25.9731 77.2812 25.9731C76.6992 25.9731 76.6992 26.1988 76.6992 26.8758C76.6739 27.7283 76.8004 27.7785 77.2812 27.7785ZM79.4574 23.2148H79.0525H77.8885H77.4836V23.616V24.7695C77.2559 24.6943 77.0535 24.6692 76.851 24.6692C75.2821 24.6692 75.105 25.7474 75.105 26.5749V27.3773C75.105 28.1546 75.4086 29.0573 76.851 29.0573C76.9775 29.0573 77.2053 29.0573 77.4583 28.9821V29.0322H77.8885H79.0525H79.4574V28.631V23.616V23.2148ZM77.1041 26.3743C77.1294 26.3743 77.18 26.3743 77.2559 26.3743C77.3571 26.3743 77.433 26.3743 77.4583 26.3993C77.4836 26.4996 77.4836 26.7504 77.4836 26.9008C77.4836 27.2268 77.4583 27.3522 77.433 27.4023C77.4077 27.4023 77.3571 27.4023 77.2559 27.4023C77.18 27.4023 77.1294 27.4023 77.1041 27.4023C77.0788 27.3271 77.0788 27.2017 77.0788 26.9008C77.0788 26.7002 77.0788 26.4746 77.1041 26.3743Z" fill="#4100CC" />
        <path d="M81.1021 24.3685V25.1207H82.4433V25.9482H81.1021V27.5028C81.1021 27.7034 81.1527 27.8037 81.3552 27.8037C81.6588 27.8037 81.6335 27.5781 81.6588 27.3524V27.1769H82.5698V27.5028C82.5698 28.4557 82.2155 28.6814 81.2792 28.6814C80.5454 28.6814 79.9381 28.5811 79.9381 27.7034V25.9733H79.5079V25.1207H79.9381V24.3685H81.1021ZM81.507 23.9673H81.1021H79.9381H79.5332V24.3685V24.7195H79.5079H79.103V25.1207V25.9482V26.3494H79.5079H79.5332V27.6784C79.5332 29.0575 80.7731 29.0575 81.2792 29.0575C82.2914 29.0575 82.9747 28.7817 82.9747 27.4778V27.1518V26.7506H82.5698H81.6588H81.4817V26.3243H82.418H82.8228V25.9231V25.1207V24.7195H82.418H81.4817V24.3685V23.9673H81.507Z" fill="#4100CC" />
        <path d="M13.4876 20.7827H12.5766L12.4754 20.5068H10.5522L13.0574 25.1958L15.5373 20.5068H13.6394L13.4876 20.7827Z" stroke="#4100CC" stroke-width="0.903973" stroke-miterlimit="10" />
        <path d="M6.65507 10.6025C5.21269 10.6025 4.07397 11.756 4.07397 13.1602C4.07397 14.5644 5.238 15.7178 6.65507 15.7178C8.09745 15.7178 9.23617 14.5644 9.23617 13.1602C9.23617 11.756 8.07214 10.6025 6.65507 10.6025Z" stroke="#4100CC" stroke-width="0.903973" stroke-miterlimit="10" />
        <path d="M13.4876 20.7827H12.5766L12.4754 20.5068H10.5522L13.0574 25.1958L15.5373 20.5068H13.6394L13.4876 20.7827Z" stroke="#4100CC" stroke-width="0.451987" stroke-miterlimit="10" />
        <path d="M19.2823 10.6025C17.8399 10.6025 16.7012 11.756 16.7012 13.1602C16.7012 14.5644 17.8652 15.7178 19.2823 15.7178C20.7247 15.7178 21.8634 14.5644 21.8634 13.1602C21.8634 11.756 20.7247 10.6025 19.2823 10.6025Z" stroke="#4100CC" stroke-width="0.451987" stroke-miterlimit="10" />
        <path d="M6.65514 8.19531C3.89691 8.19531 1.64478 10.427 1.64478 13.1601C1.64478 15.8933 3.89691 18.125 6.65514 18.125C9.41337 18.125 11.6655 15.8933 11.6655 13.1601C11.6655 10.427 9.41337 8.19531 6.65514 8.19531Z" stroke="#4100CC" stroke-width="0.451987" stroke-miterlimit="10" />
        <path d="M13.4876 20.7827H12.5766L12.4754 20.5068H10.5522L13.0574 25.1958L15.5373 20.5068H13.6394L13.4876 20.7827Z" stroke="#4100CC" stroke-width="0.451987" stroke-miterlimit="10" />
        <path d="M24.5459 4.65943H22.4962L20.6236 1.07373L18.7257 4.63436H7.26263L5.33945 1.07373L3.44159 4.63436H1.54372C0.835186 4.63436 0.253174 5.11078 0.253174 5.6875V30.9629C0.253174 31.5397 0.911101 32.4674 1.64494 32.4674H3.41628L4.70683 30.0352L5.99738 32.4674H19.8645L21.155 30.0352L22.4456 32.4674H24.6471C25.3556 32.4674 25.8364 31.5397 25.8364 30.9629V5.71258C25.8364 5.13586 25.2544 4.65943 24.5459 4.65943ZM6.65531 18.1497C3.89708 18.1497 1.64494 15.918 1.64494 13.1849C1.64494 10.4517 3.89708 8.22006 6.65531 8.22006C9.41354 8.22006 11.6657 10.4517 11.6657 13.1849C11.6657 15.918 9.41354 18.1497 6.65531 18.1497ZM13.0574 25.1957L10.5523 20.5067H12.4754L12.602 20.7826H13.5129L13.6648 20.5067H15.5626L13.0574 25.1957ZM19.2824 18.1497C16.5242 18.1497 14.2721 15.918 14.2721 13.1849C14.2721 10.4517 16.5242 8.22006 19.2824 8.22006C22.0407 8.22006 24.2928 10.4517 24.2928 13.1849C24.3181 15.918 22.066 18.1497 19.2824 18.1497Z" stroke="#4100CC" stroke-width="0.903973" />
        <path d="M13.4876 20.7827H12.5766L12.4754 20.5068H10.5522L13.0574 25.1958L15.5373 20.5068H13.6394L13.4876 20.7827Z" stroke="#4100CC" stroke-width="0.451987" stroke-miterlimit="10" />
        <path d="M19.8643 32.4928L18.6497 34.7495H20.5475L20.6994 34.4737H21.6103L21.7369 34.7495H23.66L22.4454 32.4928L21.1295 30.0605L19.8643 32.4928Z" stroke="#4100CC" stroke-width="0.903973" stroke-miterlimit="10" />
        <path d="M3.39075 32.4928L2.20142 34.7495H4.09928L4.25111 34.4737H5.16209L5.28861 34.7495H7.21178L5.99715 32.4928L4.68129 30.0605L3.39075 32.4928Z" stroke="#4100CC" stroke-width="0.903973" stroke-miterlimit="10" />
    </g>
    <defs>
        <clipPath id="clip0">
            <rect width="83" height="34.4528" fill="white" transform="translate(0 0.547363)" />
        </clipPath>
    </defs>
</svg>
