<svg width="823" height="641" viewBox="0 0 823 641" fill="none" xmlns="http://www.w3.org/2000/svg">
    <g clip-path="url(#clip0)">
        <path d="M287.106 568.394L752.926 600.517L758.493 600.901L759.019 595.174L810.643 32.9628L811.198 26.9214L805.279 27.2094L20.2014 65.4093L14.1121 65.7056L14.7347 71.8459L61.3188 531.304L61.7358 535.418L65.748 535.934L205.247 553.891L205.228 616.023L205.225 626.112L213.582 620.221L287.106 568.394Z" fill="#FFF84F" stroke="#2E0091" stroke-width="11" />
        <path d="M5.84521 15.8291L224.303 3.83607L227.057 50.732L8.5987 62.725L5.84521 15.8291Z" fill="#2E0091" />
        <path d="M17.9562 40.9785C18.0658 42.8447 18.2482 44.5309 18.5035 46.037C18.7762 47.5235 19.1859 48.9748 19.7326 50.3907C20.2967 51.7871 20.9858 52.945 21.8 53.8642C22.6326 54.7825 23.6855 55.5033 24.9585 56.0266C26.2489 56.5304 27.7258 56.7366 29.3892 56.6453C31.4222 56.5337 33.1438 56.0128 34.554 55.0827C35.9641 54.1526 36.9955 52.9281 37.648 51.4092C38.0862 50.3471 38.2657 49.1416 38.1865 47.7927L37.9066 43.0253L28.5362 43.5398L28.2807 39.1882L42.5304 38.4059L43.7786 59.6648L39.7588 59.8855L39.0368 56.1157C38.0995 57.5204 36.7953 58.6764 35.1242 59.5838C33.4705 60.4717 31.5809 60.974 29.4555 61.0907C24.5763 61.3586 20.6485 59.6741 17.6723 56.0373C14.7754 52.4888 13.142 47.5641 12.772 41.2631C12.4975 36.5881 13.028 32.5178 14.3635 29.0521C15.699 25.5864 17.7888 22.9691 20.6331 21.2002C22.5292 20.0209 24.7526 19.3613 27.3031 19.2213C32.3117 18.9463 36.384 20.7248 39.52 24.5568C40.519 25.781 41.3706 27.1802 42.0749 28.7543L37.3325 30.405C36.4554 28.0988 35.2407 26.3581 33.6884 25.1828C32.1545 24.0064 30.1124 23.4883 27.5618 23.6283C24.0872 23.819 21.5175 25.5265 19.8526 28.7508C18.2857 31.7472 17.6535 35.8231 17.9562 40.9785ZM73.4668 43.2976C73.6675 46.7161 73.1839 49.6901 72.016 52.2197C70.8481 54.7493 69.1144 56.6426 66.8148 57.8997C65.3231 58.7045 63.6624 59.1572 61.8327 59.2576C60.2987 59.3418 58.8713 59.1885 57.5504 58.7976C56.2285 58.3882 55.0712 57.7843 54.0788 56.9861C53.1047 56.1868 52.2541 55.2789 51.527 54.2621C50.7998 53.2454 50.1867 52.1205 49.6879 50.8873C48.9673 49.036 48.5398 46.9648 48.4052 44.6735C48.2002 41.1811 48.6718 38.1614 49.8202 35.6143C50.9685 33.0673 52.712 31.1827 55.0507 29.9606C56.5446 29.1927 58.2063 28.7585 60.0361 28.6581C61.5886 28.5728 63.0252 28.7257 64.3461 29.1166C65.6659 29.489 66.8122 30.0657 67.7851 30.8464C68.7755 31.6077 69.625 32.4972 70.3337 33.515C71.0598 34.5132 71.6734 35.6474 72.1744 36.9175C72.895 38.7688 73.3258 40.8955 73.4668 43.2976ZM68.5321 43.5685C68.3878 41.111 67.8945 39.0248 67.0522 37.3099C66.2087 35.5766 65.0157 34.363 63.4731 33.6692C62.5012 33.222 61.4423 33.0299 60.2965 33.0928C59.5017 33.1364 58.769 33.2879 58.0981 33.5471C57.4273 33.8064 56.8446 34.1443 56.3498 34.5607C55.8725 34.9577 55.4468 35.4445 55.0728 36.0211C54.6977 36.5793 54.3981 37.1612 54.174 37.7667C53.95 38.3722 53.7575 39.0408 53.5965 39.7726C53.3245 41.1408 53.239 42.6841 53.3399 44.4026C53.4799 46.7862 53.971 48.8355 54.8134 50.5503C55.6742 52.2641 56.8672 53.4777 58.3924 54.1911C59.3469 54.6578 60.4063 54.8591 61.5707 54.7952C62.5503 54.7414 63.4276 54.5264 64.2028 54.1502C64.9954 53.7545 65.651 53.2365 66.1697 52.5963C66.7068 51.955 67.1391 51.264 67.4664 50.523C67.8122 49.7811 68.0792 48.96 68.2674 48.0599C68.5404 46.7102 68.6287 45.2131 68.5321 43.5685ZM126.348 14.5625C121.996 30.1319 118.13 43.8766 114.751 55.7964L109.678 56.0749L93.3294 16.3751L98.7077 16.0798L111.88 50.4761C112.256 48.991 112.917 46.341 113.861 42.526C114.804 38.6926 115.507 35.8362 115.972 33.957C116.454 32.0582 117.08 29.614 117.85 26.6242C118.62 23.6345 119.348 20.8695 120.033 18.3293C120.338 17.2188 120.651 16.0616 120.969 14.8577L126.348 14.5625ZM157.301 38.6953C157.502 42.1137 157.018 45.0877 155.85 47.6173C154.682 50.1469 152.949 52.0403 150.649 53.2973C149.158 54.1021 147.497 54.5548 145.667 54.6553C144.133 54.7395 142.706 54.5861 141.385 54.1952C140.063 53.7858 138.906 53.182 137.913 52.3837C136.939 51.5845 136.089 50.6765 135.361 49.6598C134.634 48.643 134.021 47.5181 133.522 46.2849C132.802 44.4336 132.374 42.3624 132.24 40.0711C132.035 36.5788 132.506 33.559 133.655 31.012C134.803 28.4649 136.546 26.5803 138.885 25.3582C140.379 24.5903 142.041 24.1561 143.87 24.0557C145.423 23.9704 146.86 24.1233 148.18 24.5142C149.5 24.8867 150.647 25.4633 151.62 26.2441C152.61 27.0053 153.459 27.8948 154.168 28.9126C154.894 29.9108 155.508 31.045 156.009 32.3151C156.729 34.1664 157.16 36.2931 157.301 38.6953ZM152.366 38.9662C152.222 36.5086 151.729 34.4224 150.887 32.7076C150.043 30.9743 148.85 29.7607 147.307 29.0668C146.336 28.6196 145.277 28.4275 144.131 28.4904C143.336 28.534 142.603 28.6855 141.933 28.9447C141.262 29.204 140.679 29.5419 140.184 29.9583C139.707 30.3553 139.281 30.8421 138.907 31.4188C138.532 31.9769 138.232 32.5588 138.008 33.1643C137.784 33.7698 137.592 34.4384 137.431 35.1702C137.159 36.5384 137.073 38.0817 137.174 39.8002C137.314 42.1839 137.805 44.2331 138.648 45.9479C139.509 47.6617 140.702 48.8753 142.227 49.5887C143.181 50.0554 144.241 50.2567 145.405 50.1928C146.385 50.139 147.262 49.924 148.037 49.5478C148.83 49.1521 149.485 48.6341 150.004 47.9939C150.541 47.3527 150.973 46.6616 151.301 45.9206C151.647 45.1787 151.914 44.3577 152.102 43.4575C152.375 42.1078 152.463 40.6107 152.366 38.9662ZM173.971 53.0736C172.215 53.17 170.709 52.9376 169.452 52.3763C168.195 51.815 167.207 50.9331 166.488 49.7306C165.785 48.5086 165.381 46.9921 165.275 45.1813L164.276 28.1631L160.45 28.3731L160.194 24.0215L164.02 23.8115L163.555 15.8844L168.351 15.6211L168.816 23.5482L176.301 23.1373L176.557 27.4888L169.072 27.8998L170.071 44.918C170.145 46.1745 170.597 47.0951 171.429 47.6797C172.261 48.2643 173.286 48.5231 174.506 48.4562C174.82 48.4389 175.143 48.4027 175.473 48.3475C175.821 48.2728 176.159 48.1801 176.486 48.0694C176.832 47.9578 177.167 47.8281 177.492 47.6805L179.134 51.956C177.318 52.6118 175.597 52.9843 173.971 53.0736ZM207.789 43.5703C206.895 46.0293 205.518 48.0049 203.659 49.4973C201.818 50.9887 199.465 51.813 196.601 51.9703C195.011 52.0575 193.538 51.9067 192.18 51.5178C190.822 51.1289 189.629 50.5456 188.601 49.7679C187.59 48.9707 186.711 48.0642 185.966 47.0485C185.219 46.0143 184.595 44.8622 184.094 43.592C183.355 41.7418 182.918 39.671 182.784 37.3797C182.577 33.8689 183.048 30.8307 184.195 28.2652C185.36 25.6801 187.101 23.7586 189.419 22.5005C190.911 21.6957 192.572 21.243 194.401 21.1426C195.991 21.0553 197.456 21.2251 198.798 21.652C200.139 22.0788 201.299 22.7196 202.276 23.5743C203.252 24.4105 204.087 25.3657 204.78 26.4399C205.492 27.5131 206.101 28.7124 206.605 30.038C207.336 32.074 207.78 34.4133 207.935 37.0556L187.78 38.1621C187.991 41.1165 188.814 43.4534 190.25 45.1727C191.703 46.8725 193.761 47.6494 196.422 47.5033C199.693 47.3237 201.922 45.6442 203.107 42.4648L207.789 43.5703ZM202.356 32.9963C201.524 29.2417 199.839 26.9058 197.3 25.9886C196.486 25.6996 195.635 25.5795 194.748 25.6282C193.214 25.7124 191.927 26.2094 190.886 27.1193C189.863 28.0096 189.086 29.1367 188.554 30.5006C188.148 31.4869 187.907 32.5846 187.83 33.7938L202.356 32.9963ZM219.997 49.7126C219.422 50.3374 218.589 50.6797 217.499 50.7396C216.409 50.7995 215.541 50.5505 214.896 49.9927C214.252 49.4349 213.897 48.6016 213.832 47.4929C213.768 46.4027 214.024 45.5545 214.6 44.9482C215.177 44.3419 216.01 44.0088 217.1 43.9489C218.191 43.8891 219.058 44.138 219.703 44.6958C220.346 45.2352 220.7 46.0407 220.763 47.1124C220.827 48.2026 220.572 49.0694 219.997 49.7126ZM215.117 9.21646C215.135 9.21544 215.163 9.21392 215.2 9.21189C215.921 9.17232 216.533 9.3426 217.038 9.72274C217.541 10.0844 217.904 10.5835 218.127 11.2201L219.058 41.2833L214.982 41.507L212.388 11.5351C212.729 10.0705 213.638 9.29763 215.117 9.21646Z" fill="#FFF84F" />
        <circle cx="215.285" cy="429.278" r="6.58819" transform="rotate(179.393 215.285 429.278)" fill="#2E0091" stroke="#FFF84F" stroke-width="2.1" />
        <circle cx="231.931" cy="431.022" r="6.58819" transform="rotate(179.393 231.931 431.022)" fill="#2E0091" stroke="#FFF84F" stroke-width="2.1" />
        <circle cx="304.878" cy="480.456" r="6.58819" transform="rotate(179.393 304.878 480.456)" fill="#2E0091" stroke="#FFF84F" stroke-width="2.1" />
        <circle cx="202.961" cy="393.572" r="6.58819" transform="rotate(179.393 202.961 393.572)" fill="#2E0091" stroke="#FFF84F" stroke-width="2.1" />
        <circle cx="223.301" cy="468.288" r="6.58819" transform="rotate(179.393 223.301 468.288)" fill="#2E0091" stroke="#FFF84F" stroke-width="2.1" />
        <circle cx="212.2" cy="445.6" r="6.58819" transform="rotate(179.393 212.2 445.6)" fill="#2E0091" stroke="#FFF84F" stroke-width="2.1" />
        <circle cx="225.84" cy="448.324" r="6.58819" transform="rotate(179.393 225.84 448.324)" fill="#2E0091" stroke="#FFF84F" stroke-width="2.1" />
        <circle cx="301.793" cy="496.779" r="6.58819" transform="rotate(179.393 301.793 496.779)" fill="#2E0091" stroke="#FFF84F" stroke-width="2.1" />
        <circle cx="200.004" cy="410.737" r="6.58819" transform="rotate(179.393 200.004 410.737)" fill="#2E0091" stroke="#FFF84F" stroke-width="2.1" />
        <circle cx="303.597" cy="462.008" r="6.58819" transform="rotate(179.393 303.597 462.008)" fill="#2E0091" stroke="#FFF84F" stroke-width="2.1" />
        <circle cx="199.595" cy="429.445" r="6.58819" transform="rotate(179.393 199.595 429.445)" fill="#2E0091" stroke="#FFF84F" stroke-width="2.1" />
        <circle cx="289.187" cy="480.622" r="6.58819" transform="rotate(179.393 289.187 480.622)" fill="#2E0091" stroke="#FFF84F" stroke-width="2.1" />
        <circle cx="239.671" cy="462.276" r="6.58819" transform="rotate(0.574224 239.671 462.276)" fill="#2E0091" stroke="#FFF84F" stroke-width="2.1" />
        <circle cx="187.271" cy="393.738" r="6.58819" transform="rotate(179.393 187.271 393.738)" fill="#2E0091" stroke="#FFF84F" stroke-width="2.1" />
        <circle cx="207.61" cy="468.455" r="6.58819" transform="rotate(179.393 207.61 468.455)" fill="#2E0091" stroke="#FFF84F" stroke-width="2.1" />
        <circle cx="160.697" cy="469.548" r="6.58819" transform="rotate(179.393 160.697 469.548)" fill="#2E0091" stroke="#FFF84F" stroke-width="2.1" />
        <circle cx="286.102" cy="496.945" r="6.58819" transform="rotate(179.393 286.102 496.945)" fill="#2E0091" stroke="#FFF84F" stroke-width="2.1" />
        <circle cx="243.092" cy="446.021" r="6.58819" transform="rotate(0.574224 243.092 446.021)" fill="#2E0091" stroke="#FFF84F" stroke-width="2.1" />
        <circle cx="130.938" cy="433.348" r="6.58819" transform="rotate(179.393 130.938 433.348)" fill="#2E0091" stroke="#FFF84F" stroke-width="2.1" />
        <circle cx="218.652" cy="485.714" r="6.58819" transform="rotate(179.393 218.652 485.714)" fill="#2E0091" stroke="#FFF84F" stroke-width="2.1" />
        <circle cx="183.904" cy="429.611" r="6.58819" transform="rotate(179.393 183.904 429.611)" fill="#2E0091" stroke="#FFF84F" stroke-width="2.1" />
        <circle cx="273.497" cy="480.788" r="6.58819" transform="rotate(179.393 273.497 480.788)" fill="#2E0091" stroke="#FFF84F" stroke-width="2.1" />
        <circle cx="255.362" cy="462.433" r="6.58819" transform="rotate(0.574224 255.362 462.433)" fill="#2E0091" stroke="#FFF84F" stroke-width="2.1" />
        <circle cx="171.58" cy="393.904" r="6.58819" transform="rotate(179.393 171.58 393.904)" fill="#2E0091" stroke="#FFF84F" stroke-width="2.1" />
        <circle cx="191.919" cy="468.621" r="6.58819" transform="rotate(179.393 191.919 468.621)" fill="#2E0091" stroke="#FFF84F" stroke-width="2.1" />
        <circle cx="179.799" cy="448.926" r="6.58819" transform="rotate(179.393 179.799 448.926)" fill="#2E0091" stroke="#FFF84F" stroke-width="2.1" />
        <circle cx="270.412" cy="497.111" r="6.58819" transform="rotate(179.393 270.412 497.111)" fill="#2E0091" stroke="#FFF84F" stroke-width="2.1" />
        <circle cx="258.782" cy="446.178" r="6.58819" transform="rotate(0.574224 258.782 446.178)" fill="#2E0091" stroke="#FFF84F" stroke-width="2.1" />
        <circle cx="182.623" cy="411.162" r="6.58819" transform="rotate(179.393 182.623 411.162)" fill="#2E0091" stroke="#FFF84F" stroke-width="2.1" />
        <circle cx="202.962" cy="485.88" r="6.58819" transform="rotate(179.393 202.962 485.88)" fill="#2E0091" stroke="#FFF84F" stroke-width="2.1" />
        <circle cx="164.944" cy="428.725" r="6.58819" transform="rotate(179.393 164.944 428.725)" fill="#2E0091" stroke="#FFF84F" stroke-width="2.1" />
        <circle cx="254.537" cy="479.904" r="6.58819" transform="rotate(179.393 254.537 479.904)" fill="#2E0091" stroke="#FFF84F" stroke-width="2.1" />
        <circle cx="274.299" cy="463.709" r="6.58819" transform="rotate(0.574224 274.299 463.709)" fill="#2E0091" stroke="#FFF84F" stroke-width="2.1" />
        <circle cx="155.889" cy="394.07" r="6.58819" transform="rotate(179.393 155.889 394.07)" fill="#2E0091" stroke="#FFF84F" stroke-width="2.1" />
        <circle cx="176.229" cy="468.787" r="6.58819" transform="rotate(179.393 176.229 468.787)" fill="#2E0091" stroke="#FFF84F" stroke-width="2.1" />
        <circle cx="164.108" cy="449.093" r="6.58819" transform="rotate(179.393 164.108 449.093)" fill="#2E0091" stroke="#FFF84F" stroke-width="2.1" />
        <circle cx="254.721" cy="497.277" r="6.58819" transform="rotate(179.393 254.721 497.277)" fill="#2E0091" stroke="#FFF84F" stroke-width="2.1" />
        <circle cx="274.473" cy="446.335" r="6.58819" transform="rotate(0.574224 274.473 446.335)" fill="#2E0091" stroke="#FFF84F" stroke-width="2.1" />
        <circle cx="120.198" cy="394.276" r="6.58819" transform="rotate(179.393 120.198 394.276)" fill="#2E0091" stroke="#FFF84F" stroke-width="2.1" />
        <circle cx="187.271" cy="486.046" r="6.58819" transform="rotate(179.393 187.271 486.046)" fill="#2E0091" stroke="#FFF84F" stroke-width="2.1" />
        <circle cx="149.254" cy="428.892" r="6.58819" transform="rotate(179.393 149.254 428.892)" fill="#2E0091" stroke="#FFF84F" stroke-width="2.1" />
        <circle cx="238.846" cy="480.07" r="6.58819" transform="rotate(179.393 238.846 480.07)" fill="#2E0091" stroke="#FFF84F" stroke-width="2.1" />
        <circle cx="289.99" cy="463.866" r="6.58819" transform="rotate(0.574224 289.99 463.866)" fill="#2E0091" stroke="#FFF84F" stroke-width="2.1" />
        <circle cx="140.199" cy="394.236" r="6.58819" transform="rotate(179.393 140.199 394.236)" fill="#2E0091" stroke="#FFF84F" stroke-width="2.1" />
        <circle cx="195.823" cy="450.782" r="6.58819" transform="rotate(179.393 195.823 450.782)" fill="#2E0091" stroke="#FFF84F" stroke-width="2.1" />
        <circle cx="148.418" cy="449.259" r="6.58819" transform="rotate(179.393 148.418 449.259)" fill="#2E0091" stroke="#FFF84F" stroke-width="2.1" />
        <circle cx="239.03" cy="497.444" r="6.58819" transform="rotate(179.393 239.03 497.444)" fill="#2E0091" stroke="#FFF84F" stroke-width="2.1" />
        <circle cx="290.164" cy="446.492" r="6.58819" transform="rotate(0.574224 290.164 446.492)" fill="#2E0091" stroke="#FFF84F" stroke-width="2.1" />
        <circle cx="166.234" cy="412.595" r="6.58819" transform="rotate(179.393 166.234 412.595)" fill="#2E0091" stroke="#FFF84F" stroke-width="2.1" />
        <circle cx="171.58" cy="486.212" r="6.58819" transform="rotate(179.393 171.58 486.212)" fill="#2E0091" stroke="#FFF84F" stroke-width="2.1" />
        <path d="M252.163 157.698L251.668 193.064L242.416 192.998L243.478 117.125L252.73 117.191L252.278 149.493L286.375 149.735L286.827 117.433L295.976 117.498L294.914 193.371L285.765 193.306L286.26 157.94L252.163 157.698ZM352.787 166.204C352.697 172.609 351.39 178.105 348.865 182.692C346.341 187.279 342.846 190.613 338.381 192.694C335.486 194.023 332.323 194.676 328.892 194.652C326.016 194.631 323.372 194.18 320.958 193.297C318.545 192.379 316.466 191.118 314.721 189.513C313.011 187.908 311.546 186.115 310.326 184.132C309.106 182.15 308.114 179.979 307.35 177.619C306.256 174.079 305.739 170.163 305.799 165.87C305.891 159.326 307.182 153.744 309.672 149.122C312.163 144.5 315.675 141.183 320.208 139.173C323.102 137.912 326.264 137.294 329.695 137.318C332.606 137.339 335.268 137.791 337.681 138.673C340.095 139.522 342.158 140.731 343.869 142.301C345.614 143.837 347.08 145.596 348.265 147.578C349.485 149.526 350.477 151.714 351.24 154.143C352.334 157.683 352.85 161.703 352.787 166.204ZM343.535 166.138C343.599 161.533 342.962 157.582 341.621 154.283C340.282 150.949 338.219 148.545 335.432 147.071C333.678 146.124 331.727 145.643 329.579 145.627C328.089 145.617 326.7 145.815 325.412 146.221C324.124 146.627 322.99 147.191 322.009 147.911C321.064 148.597 320.203 149.456 319.426 150.489C318.649 151.488 318.011 152.539 317.51 153.644C317.01 154.748 316.559 155.974 316.159 157.322C315.466 159.845 315.096 162.716 315.051 165.936C314.989 170.402 315.627 174.284 316.967 177.583C318.342 180.882 320.405 183.286 323.156 184.795C324.875 185.776 326.826 186.275 329.009 186.291C330.846 186.304 332.514 186.004 334.012 185.391C335.546 184.744 336.841 183.853 337.897 182.718C338.987 181.583 339.888 180.343 340.6 178.998C341.346 177.653 341.956 176.151 342.43 174.492C343.124 172.004 343.492 169.219 343.535 166.138ZM386.648 187.012C389.559 187.033 392.083 186.237 394.219 184.625C396.391 182.978 398.067 180.861 399.247 178.272L407.839 180.878C405.907 185.227 403.172 188.722 399.635 191.363C396.133 194.004 391.765 195.306 386.533 195.269C383.691 195.249 381.081 194.815 378.702 193.967C376.322 193.119 374.259 191.944 372.513 190.443C370.802 188.908 369.335 187.2 368.114 185.322C366.893 183.409 365.901 181.29 365.136 178.964C363.939 175.355 363.374 171.179 363.44 166.435C363.534 159.753 364.861 154.067 367.422 149.376C369.983 144.651 373.582 141.283 378.22 139.273C381.079 138.012 384.12 137.393 387.343 137.416C392.575 137.454 396.905 138.817 400.333 141.508C403.796 144.199 406.432 147.749 408.241 152.159L399.578 154.591C398.471 151.986 396.889 149.863 394.833 148.221C392.777 146.544 390.242 145.695 387.227 145.674C385.772 145.663 384.417 145.879 383.163 146.32C381.91 146.727 380.81 147.29 379.865 148.01C378.919 148.731 378.058 149.608 377.281 150.641C376.504 151.674 375.848 152.743 375.312 153.847C374.812 154.917 374.362 156.108 373.963 157.421C373.164 160.012 372.741 163.039 372.692 166.501C372.626 171.21 373.298 175.231 374.707 178.565C376.115 181.899 378.265 184.286 381.156 185.726C382.877 186.57 384.708 186.998 386.648 187.012ZM426.862 143.93C430.351 139.8 435.127 137.756 441.192 137.799C446.043 137.834 450.099 138.988 453.359 141.262C456.62 143.501 459.038 146.565 460.612 150.454C461.818 153.406 462.392 156.976 462.333 161.166L461.867 194.506L452.823 194.442L453.286 161.361C453.349 156.86 452.238 153.251 449.954 150.534C447.67 147.817 444.432 146.444 440.239 146.414C437.19 146.392 434.615 147.119 432.515 148.592C430.415 150.066 428.863 152.064 427.857 154.584C427.068 156.448 426.656 158.644 426.621 161.171L426.158 194.252L417.166 194.188L418.229 118.263L427.221 118.327L426.862 143.93ZM503.88 152.891C501.647 148.963 498.002 146.98 492.942 146.944C487.918 146.909 484.641 148.27 483.112 151.03C482.651 151.823 482.414 152.652 482.402 153.518C482.393 154.175 482.454 154.782 482.584 155.337C482.75 155.892 483.037 156.413 483.446 156.901C483.89 157.354 484.232 157.72 484.47 157.999C484.744 158.243 485.26 158.559 486.017 158.945C486.774 159.296 487.256 159.525 487.463 159.63C487.67 159.701 488.204 159.913 489.065 160.265C489.617 160.477 490.41 160.759 491.445 161.113C492.514 161.467 493.221 161.697 493.566 161.803L494.653 162.174C496.55 162.811 498.05 163.341 499.153 163.764C500.256 164.188 501.616 164.786 503.234 165.559C504.887 166.333 506.21 167.104 507.205 167.873C508.234 168.642 509.242 169.619 510.231 170.803C511.22 171.953 511.965 173.204 512.465 174.558C513 175.982 513.255 177.576 513.23 179.342C513.164 184.085 510.976 188.086 506.668 191.345C505.373 192.305 503.923 193.143 502.318 193.859C500.749 194.575 498.974 195.134 496.993 195.535C495.046 195.937 493.034 196.13 490.955 196.115C483.158 196.06 477.077 193.506 472.712 188.455C471.348 186.852 470.282 185.027 469.514 182.978L478.357 178.782C478.874 181.522 480.247 183.661 482.478 185.2C484.71 186.705 487.541 187.469 490.971 187.494C493.64 187.513 496.002 187.097 498.058 186.246C500.115 185.395 501.64 184.159 502.633 182.539C503.271 181.539 503.598 180.451 503.614 179.274C503.629 178.2 503.383 177.246 502.875 176.412C502.402 175.543 501.839 174.864 501.188 174.374C500.571 173.885 499.78 173.412 498.816 172.955C497.37 172.287 495.526 171.599 493.283 170.89C491.075 170.182 489.091 169.597 487.33 169.134C485.604 168.637 483.777 167.949 481.848 167.069C479.92 166.19 478.322 165.226 477.054 164.179C475.787 163.131 474.733 161.687 473.892 159.845C473.086 158.005 472.7 155.872 472.734 153.449C472.791 149.398 474.728 145.915 478.546 142.999C482.539 139.98 487.308 138.491 492.852 138.53C497.288 138.561 501.138 139.541 504.403 141.469C507.703 143.396 510.37 145.995 512.404 149.264L503.88 152.891ZM547.156 188.153C550.066 188.174 552.59 187.378 554.727 185.766C556.898 184.119 558.574 182.001 559.754 179.413L568.347 182.019C566.414 186.368 563.68 189.863 560.142 192.504C556.64 195.145 552.272 196.447 547.04 196.41C544.199 196.39 541.588 195.956 539.209 195.108C536.829 194.26 534.767 193.085 533.02 191.584C531.309 190.048 529.843 188.341 528.621 186.463C527.401 184.55 526.408 182.431 525.643 180.105C524.446 176.496 523.881 172.32 523.947 167.576C524.041 160.894 525.368 155.208 527.929 150.517C530.49 145.792 534.09 142.424 538.727 140.414C541.586 139.153 544.627 138.534 547.85 138.557C553.082 138.594 557.412 139.958 560.84 142.649C564.303 145.34 566.939 148.89 568.749 153.3L560.085 155.732C558.978 153.127 557.396 151.004 555.34 149.362C553.284 147.685 550.749 146.836 547.734 146.815C546.279 146.804 544.924 147.02 543.671 147.461C542.417 147.867 541.318 148.431 540.372 149.151C539.426 149.872 538.565 150.749 537.788 151.782C537.011 152.815 536.355 153.884 535.82 154.988C535.32 156.058 534.87 157.249 534.47 158.562C533.671 161.153 533.248 164.18 533.199 167.642C533.133 172.351 533.805 176.372 535.214 179.706C536.623 183.04 538.773 185.427 541.663 186.867C543.384 187.711 545.215 188.139 547.156 188.153ZM587.37 145.071C590.858 140.941 595.635 138.897 601.699 138.94C606.55 138.975 610.606 140.129 613.866 142.403C617.127 144.642 619.545 147.706 621.119 151.595C622.325 154.547 622.899 158.117 622.841 162.306L622.374 195.647L613.33 195.583L613.793 162.502C613.856 158.001 612.745 154.392 610.462 151.675C608.178 148.958 604.939 147.585 600.746 147.555C597.697 147.533 595.122 148.259 593.022 149.733C590.923 151.207 589.37 153.205 588.364 155.725C587.576 157.589 587.164 159.785 587.128 162.312L586.665 195.393L577.673 195.329L578.736 119.404L587.728 119.468L587.37 145.071ZM668.861 190.888C665.337 195.122 660.507 197.217 654.374 197.173C649.557 197.139 645.519 196.002 642.258 193.763C638.997 191.524 636.579 188.46 635.005 184.57C633.799 181.619 633.225 178.031 633.284 173.807L633.746 140.778L642.739 140.842L642.283 173.404C642.22 177.87 643.331 181.461 645.615 184.178C647.933 186.896 651.189 188.269 655.382 188.299C658.431 188.321 660.989 187.594 663.054 186.12C665.119 184.646 666.689 182.666 667.764 180.181C668.517 178.316 668.912 176.12 668.947 173.593L669.403 141.031L678.447 141.096L677.678 196.092L669.205 196.032L668.861 190.888ZM689.217 196.174L690.276 120.457L699.269 120.521L698.209 196.238L689.217 196.174ZM260.3 237.838L279.366 322.892L301.092 238.128L315.185 238.228L334.464 323.284C340.572 298.465 347.3 271.48 354.649 242.33C355 240.87 355.301 239.599 355.553 238.515L369.787 238.617C368.696 242.383 359.875 273.811 343.324 332.9C342.479 335.913 341.636 338.832 340.793 341.657L327.196 341.56L312.096 276.773L307.712 256.008C305.657 264.533 303.43 273.527 301.031 282.993C298.633 292.411 295.912 302.936 292.869 314.567C289.874 326.151 287.577 335.051 285.979 341.267L272.523 341.171C269.74 330.867 267.005 320.492 264.318 310.047C261.678 299.602 258.324 286.251 254.255 269.993C250.233 253.689 247.574 242.937 246.278 237.739L260.3 237.838ZM410.627 275.988C402.79 275.932 397.895 279.86 395.943 287.772L383.737 284.359C385.851 278.383 389.247 273.642 393.923 270.137C398.599 266.632 404.502 264.905 411.631 264.956C416.164 264.988 420.237 265.772 423.851 267.307C427.514 268.795 430.531 270.822 432.903 273.386C435.276 275.903 437.146 278.913 438.514 282.413C440.065 286.293 440.803 290.874 440.729 296.157L440.083 342.362L428.043 342.277L427.583 334.702C421.88 340.7 414.756 343.668 406.21 343.608C400.261 343.565 395.156 342.303 390.894 339.819C386.679 337.289 383.611 333.87 381.688 329.563C380.407 326.629 379.791 323.393 379.841 319.856C379.886 316.601 380.447 313.633 381.524 310.951C382.601 308.223 384.073 305.898 385.942 303.977C387.811 302.009 389.888 300.372 392.172 299.068C394.505 297.716 397.022 296.649 399.725 295.866C403.518 294.761 407.397 294.222 411.363 294.25C417.406 294.293 422.819 295.558 427.6 298.046L427.63 295.923C427.718 289.602 426.37 284.709 423.586 281.246C420.801 277.782 416.481 276.029 410.627 275.988ZM411.563 305.291C406.039 305.252 401.584 306.423 398.198 308.805C394.86 311.14 393.157 314.737 393.089 319.596C392.971 327.992 398.271 332.229 408.989 332.305C413.144 332.335 416.674 331.393 419.582 329.479C422.536 327.519 424.674 324.915 425.994 321.67C426.875 319.459 427.334 317.079 427.369 314.532L427.441 309.438C423.748 306.722 418.456 305.34 411.563 305.291ZM467.53 273.915C472.283 268.288 478.791 265.504 487.053 265.562C493.663 265.609 499.189 267.182 503.632 270.28C508.075 273.331 511.369 277.506 513.514 282.805C515.157 286.827 515.939 291.691 515.859 297.399L515.223 342.826L502.901 342.738L503.532 297.665C503.617 291.533 502.104 286.616 498.993 282.914C495.881 279.212 491.469 277.341 485.756 277.3C481.601 277.271 478.093 278.26 475.232 280.268C472.371 282.277 470.255 284.998 468.885 288.432C467.811 290.972 467.249 293.964 467.201 297.407L466.57 342.48L454.318 342.393L455.766 238.945L468.018 239.032L467.53 273.915ZM531.086 343.009L532.53 239.844L544.782 239.931L543.338 343.096L531.086 343.009ZM620.785 325.531C618.055 331.645 614.187 336.453 609.18 339.955C604.22 343.458 598.081 345.184 590.763 345.132C586.703 345.103 582.981 344.487 579.598 343.283C576.215 342.08 573.288 340.408 570.815 338.267C568.39 336.08 566.323 333.636 564.614 330.935C562.906 328.186 561.532 325.157 560.492 321.847C558.954 317.024 558.226 311.688 558.308 305.839C558.433 296.876 560.193 289.222 563.587 282.878C567.029 276.486 571.815 271.873 577.946 269.039C581.891 267.227 586.2 266.338 590.874 266.371C594.934 266.4 598.632 267.063 601.966 268.361C605.3 269.658 608.131 271.471 610.46 273.799C612.789 276.08 614.736 278.642 616.302 281.483C617.915 284.325 619.24 287.472 620.277 290.923C621.762 296.218 622.456 302.238 622.362 308.983L570.876 308.617C570.865 316.165 572.527 322.239 575.862 326.839C579.245 331.392 584.336 333.693 591.135 333.741C599.492 333.801 605.472 329.88 609.077 321.98L620.785 325.531ZM608.92 297.778C607.497 288.096 603.642 281.889 597.353 279.155C595.334 278.291 593.192 277.852 590.926 277.835C587.007 277.808 583.64 278.869 580.824 281.019C578.056 283.122 575.869 285.866 574.264 289.252C573.049 291.696 572.231 294.45 571.811 297.514L608.92 297.778ZM648.612 275.486C653.368 269.67 659.948 266.791 668.352 266.851C674.961 266.898 680.488 268.471 684.93 271.569C689.373 274.62 692.667 278.795 694.812 284.094C696.455 288.115 697.237 292.98 697.157 298.688L696.522 344.114L684.199 344.027L684.825 299.308C684.911 293.175 683.398 288.258 680.286 284.556C677.174 280.855 672.762 278.983 667.049 278.943C662.894 278.913 659.386 279.903 656.525 281.911C653.664 283.919 651.548 286.64 650.178 290.074C649.104 292.614 648.543 295.606 648.494 299.05L647.868 343.769L635.617 343.682L636.672 268.254L648.216 268.336L648.612 275.486Z" fill="#2E0091" />
        <path d="M500.191 414.735C491.458 414.673 485.431 419.256 482.108 428.483L471.853 424.532C473.737 419.94 476.318 416.08 479.596 412.953C482.875 409.785 486.828 407.551 491.455 406.25C494.337 405.423 497.375 405.02 500.569 405.043C507.078 405.089 512.616 406.623 517.182 409.645C521.79 412.667 525.19 416.69 527.384 421.715C528.911 425.281 529.642 429.346 529.579 433.91C529.54 436.697 529.22 439.32 528.619 441.78C528.019 444.2 527.242 446.335 526.286 448.187C525.37 450.038 524.153 451.807 522.633 453.493C521.155 455.139 519.639 456.562 518.086 457.763C516.574 458.924 514.758 460.062 512.64 461.178C510.563 462.294 508.609 463.25 506.778 464.045C504.989 464.8 502.915 465.613 500.558 466.485C495.356 468.387 491.734 470.058 489.693 471.498C485.283 474.617 483.017 479.045 482.896 484.78L482.89 485.204L528.007 485.525L527.87 495.34L471.049 494.936L471.148 487.908C471.201 484.111 471.653 480.701 472.504 477.677C473.396 474.613 474.646 471.956 476.254 469.705C477.904 467.415 479.77 465.469 481.855 463.868C483.98 462.267 486.426 460.83 489.193 459.557C491.105 458.722 493.036 457.928 494.988 457.174L499.256 455.508C501.492 454.635 503.384 453.821 504.931 453.064C506.518 452.268 508.17 451.249 509.886 450.009C511.602 448.729 512.975 447.365 514.006 445.918C515.078 444.431 515.953 442.619 516.629 440.483C517.347 438.307 517.725 435.886 517.762 433.22C517.819 429.181 516.937 425.7 515.119 422.779C513.3 419.858 510.823 417.699 507.689 416.303C505.52 415.278 503.021 414.755 500.191 414.735ZM538.795 451.548C538.885 445.125 539.594 439.212 540.923 433.809C542.293 428.365 544.322 423.532 547.009 419.309C549.697 415.047 552.938 411.697 556.732 409.259C560.607 406.823 565.071 405.622 570.125 405.658C579.787 405.727 587.323 410.366 592.733 419.574C595.182 423.671 597.035 428.512 598.291 434.095C599.588 439.679 600.192 445.642 600.103 451.983C599.982 460.587 598.703 468.253 596.263 474.982C593.824 481.711 590.333 487.058 585.789 491.025C580.96 495.233 575.311 497.313 568.842 497.267C559.14 497.198 551.563 492.6 546.111 483.472C541.055 474.953 538.616 464.311 538.795 451.548ZM550.317 451.63C550.21 459.223 550.966 465.934 552.582 471.763C554.199 477.551 556.847 481.892 560.526 484.786C562.926 486.662 565.743 487.611 568.977 487.634C575.162 487.678 580.002 484.238 583.495 477.315C586.738 470.955 588.433 462.484 588.581 451.902C588.688 444.267 587.913 437.496 586.258 431.586C584.643 425.636 581.996 421.194 578.317 418.26C575.959 416.344 573.183 415.375 569.989 415.352C563.763 415.308 558.903 418.828 555.407 425.913C552.161 432.515 550.464 441.087 550.317 451.63ZM638.093 415.715C629.36 415.653 623.333 420.236 620.009 429.463L609.755 425.512C611.638 420.92 614.219 417.06 617.498 413.933C620.776 410.765 624.73 408.531 629.357 407.231C632.239 406.403 635.277 406 638.471 406.023C644.98 406.069 650.517 407.603 655.084 410.625C659.691 413.647 663.092 417.67 665.286 422.695C666.813 426.261 667.544 430.326 667.48 434.89C667.441 437.677 667.122 440.301 666.521 442.761C665.921 445.18 665.143 447.315 664.188 449.167C663.272 451.019 662.055 452.787 660.535 454.473C659.057 456.119 657.541 457.542 655.987 458.743C654.475 459.904 652.66 461.042 650.542 462.158C648.465 463.274 646.51 464.23 644.68 465.025C642.89 465.78 640.817 466.593 638.46 467.465C633.258 469.367 629.636 471.038 627.595 472.478C623.184 475.597 620.919 480.025 620.798 485.76L620.792 486.184L665.909 486.505L665.771 496.32L608.951 495.916L609.05 488.888C609.103 485.091 609.555 481.681 610.406 478.657C611.298 475.594 612.548 472.936 614.156 470.686C615.805 468.395 617.672 466.449 619.757 464.848C621.881 463.247 624.327 461.81 627.095 460.537C629.006 459.703 630.938 458.908 632.889 458.155L637.158 456.488C639.394 455.616 641.285 454.801 642.832 454.044C644.42 453.248 646.072 452.229 647.787 450.989C649.503 449.709 650.877 448.345 651.908 446.898C652.98 445.411 653.854 443.6 654.531 441.463C655.249 439.287 655.627 436.866 655.664 434.2C655.72 430.161 654.839 426.681 653.02 423.759C651.201 420.838 648.725 418.679 645.591 417.283C643.422 416.258 640.922 415.735 638.093 415.715ZM686.547 420.362L672.598 424.747L672.748 414.023L689.813 408.024L697.939 408.082L696.699 496.661L685.48 496.581L686.547 420.362Z" fill="#2E0091" />
    </g>
    <defs>
        <clipPath id="clip0">
            <rect width="823" height="641" fill="white" />
        </clipPath>
    </defs>
</svg>
