<svg width="875" height="809" viewBox="0 0 875 809" fill="none" xmlns="http://www.w3.org/2000/svg">
    <path d="M5.84517 91.8291L224.303 79.8361L227.057 126.732L8.59866 138.725L5.84517 91.8291Z" fill="#4100CC" />
    <path d="M5.84517 91.8291L224.303 79.8361L227.057 126.732L8.59866 138.725L5.84517 91.8291Z" stroke="black" />
    <path d="M17.9561 116.978C18.0657 118.845 18.2481 120.531 18.5034 122.037C18.7761 123.524 19.1858 124.975 19.7325 126.391C20.2966 127.787 20.9857 128.945 21.7999 129.864C22.6325 130.782 23.6854 131.503 24.9584 132.027C26.2488 132.53 27.7257 132.737 29.3891 132.645C31.4221 132.534 33.1437 132.013 34.5539 131.083C35.964 130.153 36.9954 128.928 37.6478 127.409C38.0861 126.347 38.2656 125.142 38.1864 123.793L37.9065 119.025L28.5361 119.54L28.2806 115.188L42.5303 114.406L43.7785 135.665L39.7586 135.886L39.0367 132.116C38.0994 133.52 36.7952 134.676 35.1241 135.584C33.4704 136.472 31.5808 136.974 29.4554 137.091C24.5761 137.359 20.6484 135.674 17.6722 132.037C14.7753 128.489 13.1419 123.564 12.7719 117.263C12.4974 112.588 13.0279 108.518 14.3634 105.052C15.6988 101.586 17.7887 98.9691 20.6329 97.2002C22.5291 96.0209 24.7525 95.3613 27.303 95.2213C32.3116 94.9463 36.3839 96.7248 39.5199 100.557C40.5189 101.781 41.3705 103.18 42.0748 104.754L37.3324 106.405C36.4553 104.099 35.2406 102.358 33.6883 101.183C32.1544 100.006 30.1122 99.4883 27.5617 99.6283C24.0871 99.819 21.5174 101.527 19.8525 104.751C18.2856 107.747 17.6534 111.823 17.9561 116.978ZM73.4667 119.298C73.6674 122.716 73.1838 125.69 72.0159 128.22C70.848 130.749 69.1142 132.643 66.8147 133.9C65.323 134.705 63.6623 135.157 61.8326 135.258C60.2986 135.342 58.8712 135.188 57.5503 134.798C56.2284 134.388 55.0711 133.784 54.0786 132.986C53.1046 132.187 52.254 131.279 51.5268 130.262C50.7997 129.245 50.1866 128.12 49.6878 126.887C48.9672 125.036 48.5396 122.965 48.4051 120.673C48.2001 117.181 48.6717 114.161 49.8201 111.614C50.9684 109.067 52.7119 107.183 55.0506 105.961C56.5445 105.193 58.2062 104.758 60.036 104.658C61.5884 104.573 63.0251 104.726 64.346 105.117C65.6658 105.489 66.8121 106.066 67.785 106.846C68.7754 107.608 69.6249 108.497 70.3336 109.515C71.0597 110.513 71.6733 111.647 72.1743 112.918C72.8949 114.769 73.3257 116.895 73.4667 119.298ZM68.532 119.569C68.3877 117.111 67.8944 115.025 67.052 113.31C66.2086 111.577 65.0156 110.363 63.473 109.669C62.5011 109.222 61.4422 109.03 60.2963 109.093C59.5016 109.136 58.7688 109.288 58.098 109.547C57.4272 109.806 56.8445 110.144 56.3497 110.561C55.8724 110.958 55.4467 111.444 55.0727 112.021C54.6975 112.579 54.398 113.161 54.1739 113.767C53.9499 114.372 53.7574 115.041 53.5964 115.773C53.3244 117.141 53.2389 118.684 53.3398 120.403C53.4798 122.786 53.9709 124.835 54.8133 126.55C55.6741 128.264 56.8671 129.478 58.3923 130.191C59.3468 130.658 60.4062 130.859 61.5706 130.795C62.5501 130.741 63.4275 130.526 64.2027 130.15C64.9953 129.754 65.6509 129.236 66.1696 128.596C66.7067 127.955 67.139 127.264 67.4663 126.523C67.8121 125.781 68.0791 124.96 68.2673 124.06C68.5403 122.71 68.6286 121.213 68.532 119.569ZM126.347 90.5625C121.996 106.132 118.13 119.877 114.751 131.796L109.678 132.075L93.3293 92.3751L98.7076 92.0798L111.88 126.476C112.256 124.991 112.916 122.341 113.861 118.526C114.804 114.693 115.507 111.836 115.972 109.957C116.454 108.058 117.08 105.614 117.85 102.624C118.62 99.6345 119.347 96.8695 120.033 94.3293C120.338 93.2188 120.65 92.0616 120.969 90.8577L126.347 90.5625ZM157.301 114.695C157.502 118.114 157.018 121.088 155.85 123.617C154.682 126.147 152.949 128.04 150.649 129.297C149.157 130.102 147.497 130.555 145.667 130.655C144.133 130.739 142.706 130.586 141.385 130.195C140.063 129.786 138.906 129.182 137.913 128.384C136.939 127.584 136.088 126.676 135.361 125.66C134.634 124.643 134.021 123.518 133.522 122.285C132.802 120.434 132.374 118.362 132.239 116.071C132.034 112.579 132.506 109.559 133.654 107.012C134.803 104.465 136.546 102.58 138.885 101.358C140.379 100.59 142.041 100.156 143.87 100.056C145.423 99.9704 146.859 100.123 148.18 100.514C149.5 100.887 150.646 101.463 151.619 102.244C152.61 103.005 153.459 103.895 154.168 104.913C154.894 105.911 155.508 107.045 156.009 108.315C156.729 110.166 157.16 112.293 157.301 114.695ZM152.366 114.966C152.222 112.509 151.729 110.422 150.886 108.708C150.043 106.974 148.85 105.761 147.307 105.067C146.335 104.62 145.277 104.427 144.131 104.49C143.336 104.534 142.603 104.685 141.932 104.945C141.262 105.204 140.679 105.542 140.184 105.958C139.707 106.355 139.281 106.842 138.907 107.419C138.532 107.977 138.232 108.559 138.008 109.164C137.784 109.77 137.592 110.438 137.431 111.17C137.159 112.538 137.073 114.082 137.174 115.8C137.314 118.184 137.805 120.233 138.648 121.948C139.508 123.662 140.701 124.875 142.227 125.589C143.181 126.055 144.241 126.257 145.405 126.193C146.385 126.139 147.262 125.924 148.037 125.548C148.83 125.152 149.485 124.634 150.004 123.994C150.541 123.353 150.973 122.662 151.301 121.921C151.646 121.179 151.913 120.358 152.102 119.458C152.375 118.108 152.463 116.611 152.366 114.966ZM173.971 129.074C172.215 129.17 170.708 128.938 169.452 128.376C168.195 127.815 167.207 126.933 166.487 125.731C165.785 124.509 165.381 122.992 165.275 121.181L164.275 104.163L160.45 104.373L160.194 100.022L164.02 99.8115L163.555 91.8844L168.351 91.6211L168.816 99.5482L176.301 99.1373L176.557 103.489L169.072 103.9L170.071 120.918C170.145 122.175 170.597 123.095 171.429 123.68C172.26 124.264 173.286 124.523 174.506 124.456C174.82 124.439 175.143 124.403 175.473 124.347C175.821 124.273 176.159 124.18 176.486 124.069C176.831 123.958 177.167 123.828 177.492 123.681L179.134 127.956C177.318 128.612 175.597 128.984 173.971 129.074ZM207.789 119.57C206.895 122.029 205.518 124.005 203.659 125.497C201.818 126.989 199.465 127.813 196.601 127.97C195.011 128.058 193.538 127.907 192.18 127.518C190.822 127.129 189.629 126.546 188.6 125.768C187.589 124.971 186.711 124.064 185.965 123.048C185.219 122.014 184.595 120.862 184.094 119.592C183.355 117.742 182.918 115.671 182.783 113.38C182.577 109.869 183.048 106.831 184.195 104.265C185.36 101.68 187.101 99.7586 189.419 98.5005C190.911 97.6957 192.572 97.243 194.401 97.1426C195.991 97.0553 197.456 97.2251 198.798 97.652C200.139 98.0788 201.299 98.7196 202.276 99.5743C203.252 100.411 204.087 101.366 204.78 102.44C205.492 103.513 206.1 104.712 206.605 106.038C207.336 108.074 207.779 110.413 207.935 113.056L187.78 114.162C187.99 117.117 188.814 119.453 190.25 121.173C191.703 122.873 193.76 123.649 196.422 123.503C199.693 123.324 201.921 121.644 203.107 118.465L207.789 119.57ZM202.356 108.996C201.524 105.242 199.839 102.906 197.3 101.989C196.486 101.7 195.635 101.579 194.748 101.628C193.214 101.712 191.927 102.209 190.886 103.119C189.863 104.01 189.086 105.137 188.554 106.501C188.148 107.487 187.907 108.585 187.829 109.794L202.356 108.996ZM219.997 125.713C219.422 126.337 218.589 126.68 217.499 126.74C216.408 126.799 215.541 126.55 214.896 125.993C214.252 125.435 213.897 124.602 213.832 123.493C213.768 122.403 214.024 121.554 214.6 120.948C215.176 120.342 216.01 120.009 217.1 119.949C218.191 119.889 219.058 120.138 219.703 120.696C220.346 121.235 220.7 122.041 220.762 123.112C220.827 124.203 220.571 125.069 219.997 125.713ZM215.117 85.2165C215.135 85.2154 215.163 85.2139 215.2 85.2119C215.92 85.1723 216.533 85.3426 217.037 85.7227C217.541 86.0844 217.904 86.5835 218.127 87.2201L219.057 117.283L214.982 117.507L212.388 87.5351C212.728 86.0705 213.638 85.2976 215.117 85.2165Z" fill="#FFF739" />
    <path d="M287.106 644.394L752.926 676.517L758.493 676.901L759.019 671.174L810.643 108.963L811.198 102.921L805.279 103.209L20.2014 141.409L14.1121 141.706L14.7347 147.846L61.3188 607.304L61.7358 611.418L65.748 611.934L205.247 629.891L205.228 692.023L205.225 702.112L213.582 696.221L287.106 644.394Z" stroke="#4100CC" stroke-width="11" />
    <circle cx="215.285" cy="505.278" r="6.58819" transform="rotate(179.393 215.285 505.278)" fill="#4100CC" stroke="#FFF739" stroke-width="2.1" />
    <circle cx="231.931" cy="507.022" r="6.58819" transform="rotate(179.393 231.931 507.022)" fill="#4100CC" stroke="#FFF739" stroke-width="2.1" />
    <circle cx="304.878" cy="556.456" r="6.58819" transform="rotate(179.393 304.878 556.456)" fill="#4100CC" stroke="#FFF739" stroke-width="2.1" />
    <circle cx="202.961" cy="469.572" r="6.58819" transform="rotate(179.393 202.961 469.572)" fill="#4100CC" stroke="#FFF739" stroke-width="2.1" />
    <circle cx="223.3" cy="544.288" r="6.58819" transform="rotate(179.393 223.3 544.288)" fill="#4100CC" stroke="#FFF739" stroke-width="2.1" />
    <circle cx="212.2" cy="521.6" r="6.58819" transform="rotate(179.393 212.2 521.6)" fill="#4100CC" stroke="#FFF739" stroke-width="2.1" />
    <circle cx="225.84" cy="524.325" r="6.58819" transform="rotate(179.393 225.84 524.325)" fill="#4100CC" stroke="#FFF739" stroke-width="2.1" />
    <circle cx="301.793" cy="572.779" r="6.58819" transform="rotate(179.393 301.793 572.779)" fill="#4100CC" stroke="#FFF739" stroke-width="2.1" />
    <circle cx="200.004" cy="486.737" r="6.58819" transform="rotate(179.393 200.004 486.737)" fill="#4100CC" stroke="#FFF739" stroke-width="2.1" />
    <circle cx="303.596" cy="538.008" r="6.58819" transform="rotate(179.393 303.596 538.008)" fill="#4100CC" stroke="#FFF739" stroke-width="2.1" />
    <circle cx="199.595" cy="505.445" r="6.58819" transform="rotate(179.393 199.595 505.445)" fill="#4100CC" stroke="#FFF739" stroke-width="2.1" />
    <circle cx="289.187" cy="556.622" r="6.58819" transform="rotate(179.393 289.187 556.622)" fill="#4100CC" stroke="#FFF739" stroke-width="2.1" />
    <circle cx="239.671" cy="538.276" r="6.58819" transform="rotate(0.574224 239.671 538.276)" fill="#4100CC" stroke="#FFF739" stroke-width="2.1" />
    <circle cx="187.271" cy="469.738" r="6.58819" transform="rotate(179.393 187.271 469.738)" fill="#4100CC" stroke="#FFF739" stroke-width="2.1" />
    <circle cx="207.61" cy="544.455" r="6.58819" transform="rotate(179.393 207.61 544.455)" fill="#4100CC" stroke="#FFF739" stroke-width="2.1" />
    <circle cx="160.697" cy="545.548" r="6.58819" transform="rotate(179.393 160.697 545.548)" fill="#4100CC" stroke="#FFF739" stroke-width="2.1" />
    <circle cx="286.102" cy="572.945" r="6.58819" transform="rotate(179.393 286.102 572.945)" fill="#4100CC" stroke="#FFF739" stroke-width="2.1" />
    <circle cx="243.092" cy="522.021" r="6.58819" transform="rotate(0.574224 243.092 522.021)" fill="#4100CC" stroke="#FFF739" stroke-width="2.1" />
    <circle cx="130.938" cy="509.348" r="6.58819" transform="rotate(179.393 130.938 509.348)" fill="#4100CC" stroke="#FFF739" stroke-width="2.1" />
    <circle cx="218.652" cy="561.714" r="6.58819" transform="rotate(179.393 218.652 561.714)" fill="#4100CC" stroke="#FFF739" stroke-width="2.1" />
    <circle cx="183.904" cy="505.611" r="6.58819" transform="rotate(179.393 183.904 505.611)" fill="#4100CC" stroke="#FFF739" stroke-width="2.1" />
    <circle cx="273.497" cy="556.788" r="6.58819" transform="rotate(179.393 273.497 556.788)" fill="#4100CC" stroke="#FFF739" stroke-width="2.1" />
    <circle cx="255.362" cy="538.433" r="6.58819" transform="rotate(0.574224 255.362 538.433)" fill="#4100CC" stroke="#FFF739" stroke-width="2.1" />
    <circle cx="171.58" cy="469.904" r="6.58819" transform="rotate(179.393 171.58 469.904)" fill="#4100CC" stroke="#FFF739" stroke-width="2.1" />
    <circle cx="191.919" cy="544.621" r="6.58819" transform="rotate(179.393 191.919 544.621)" fill="#4100CC" stroke="#FFF739" stroke-width="2.1" />
    <circle cx="179.799" cy="524.926" r="6.58819" transform="rotate(179.393 179.799 524.926)" fill="#4100CC" stroke="#FFF739" stroke-width="2.1" />
    <circle cx="270.412" cy="573.111" r="6.58819" transform="rotate(179.393 270.412 573.111)" fill="#4100CC" stroke="#FFF739" stroke-width="2.1" />
    <circle cx="258.782" cy="522.178" r="6.58819" transform="rotate(0.574224 258.782 522.178)" fill="#4100CC" stroke="#FFF739" stroke-width="2.1" />
    <circle cx="182.623" cy="487.162" r="6.58819" transform="rotate(179.393 182.623 487.162)" fill="#4100CC" stroke="#FFF739" stroke-width="2.1" />
    <circle cx="202.962" cy="561.88" r="6.58819" transform="rotate(179.393 202.962 561.88)" fill="#4100CC" stroke="#FFF739" stroke-width="2.1" />
    <circle cx="164.944" cy="504.725" r="6.58819" transform="rotate(179.393 164.944 504.725)" fill="#4100CC" stroke="#FFF739" stroke-width="2.1" />
    <circle cx="254.537" cy="555.904" r="6.58819" transform="rotate(179.393 254.537 555.904)" fill="#4100CC" stroke="#FFF739" stroke-width="2.1" />
    <circle cx="274.299" cy="539.709" r="6.58819" transform="rotate(0.574224 274.299 539.709)" fill="#4100CC" stroke="#FFF739" stroke-width="2.1" />
    <circle cx="155.889" cy="470.07" r="6.58819" transform="rotate(179.393 155.889 470.07)" fill="#4100CC" stroke="#FFF739" stroke-width="2.1" />
    <circle cx="176.228" cy="544.787" r="6.58819" transform="rotate(179.393 176.228 544.787)" fill="#4100CC" stroke="#FFF739" stroke-width="2.1" />
    <circle cx="164.108" cy="525.093" r="6.58819" transform="rotate(179.393 164.108 525.093)" fill="#4100CC" stroke="#FFF739" stroke-width="2.1" />
    <circle cx="254.721" cy="573.277" r="6.58819" transform="rotate(179.393 254.721 573.277)" fill="#4100CC" stroke="#FFF739" stroke-width="2.1" />
    <circle cx="274.473" cy="522.335" r="6.58819" transform="rotate(0.574224 274.473 522.335)" fill="#4100CC" stroke="#FFF739" stroke-width="2.1" />
    <circle cx="120.198" cy="470.276" r="6.58819" transform="rotate(179.393 120.198 470.276)" fill="#4100CC" stroke="#FFF739" stroke-width="2.1" />
    <circle cx="187.271" cy="562.046" r="6.58819" transform="rotate(179.393 187.271 562.046)" fill="#4100CC" stroke="#FFF739" stroke-width="2.1" />
    <circle cx="149.254" cy="504.892" r="6.58819" transform="rotate(179.393 149.254 504.892)" fill="#4100CC" stroke="#FFF739" stroke-width="2.1" />
    <circle cx="238.846" cy="556.07" r="6.58819" transform="rotate(179.393 238.846 556.07)" fill="#4100CC" stroke="#FFF739" stroke-width="2.1" />
    <circle cx="289.99" cy="539.866" r="6.58819" transform="rotate(0.574224 289.99 539.866)" fill="#4100CC" stroke="#FFF739" stroke-width="2.1" />
    <circle cx="140.199" cy="470.236" r="6.58819" transform="rotate(179.393 140.199 470.236)" fill="#4100CC" stroke="#FFF739" stroke-width="2.1" />
    <circle cx="195.823" cy="526.782" r="6.58819" transform="rotate(179.393 195.823 526.782)" fill="#4100CC" stroke="#FFF739" stroke-width="2.1" />
    <circle cx="148.418" cy="525.259" r="6.58819" transform="rotate(179.393 148.418 525.259)" fill="#4100CC" stroke="#FFF739" stroke-width="2.1" />
    <circle cx="239.03" cy="573.444" r="6.58819" transform="rotate(179.393 239.03 573.444)" fill="#4100CC" stroke="#FFF739" stroke-width="2.1" />
    <circle cx="290.164" cy="522.492" r="6.58819" transform="rotate(0.574224 290.164 522.492)" fill="#4100CC" stroke="#FFF739" stroke-width="2.1" />
    <circle cx="166.234" cy="488.595" r="6.58819" transform="rotate(179.393 166.234 488.595)" fill="#4100CC" stroke="#FFF739" stroke-width="2.1" />
    <circle cx="171.58" cy="562.212" r="6.58819" transform="rotate(179.393 171.58 562.212)" fill="#4100CC" stroke="#FFF739" stroke-width="2.1" />
    <path d="M252.163 233.698L251.668 269.064L242.416 268.998L243.478 193.125L252.73 193.191L252.278 225.493L286.375 225.735L286.827 193.433L295.976 193.498L294.914 269.371L285.765 269.306L286.26 233.94L252.163 233.698ZM352.787 242.204C352.697 248.609 351.39 254.105 348.865 258.692C346.341 263.279 342.846 266.613 338.381 268.694C335.486 270.023 332.323 270.676 328.892 270.652C326.016 270.631 323.372 270.18 320.958 269.297C318.545 268.379 316.466 267.118 314.721 265.513C313.011 263.908 311.546 262.115 310.326 260.132C309.106 258.15 308.114 255.979 307.35 253.619C306.256 250.079 305.739 246.163 305.799 241.87C305.891 235.326 307.182 229.744 309.672 225.122C312.163 220.5 315.675 217.183 320.208 215.173C323.102 213.912 326.264 213.294 329.695 213.318C332.606 213.339 335.268 213.791 337.681 214.673C340.095 215.522 342.158 216.731 343.869 218.301C345.614 219.837 347.08 221.596 348.265 223.578C349.485 225.526 350.477 227.714 351.24 230.143C352.334 233.683 352.85 237.703 352.787 242.204ZM343.535 242.138C343.599 237.533 342.962 233.582 341.621 230.283C340.282 226.949 338.219 224.545 335.432 223.071C333.678 222.124 331.727 221.643 329.579 221.627C328.089 221.617 326.7 221.815 325.412 222.221C324.124 222.627 322.99 223.191 322.009 223.911C321.064 224.597 320.203 225.456 319.426 226.489C318.649 227.488 318.011 228.539 317.51 229.644C317.01 230.748 316.559 231.974 316.159 233.322C315.466 235.845 315.096 238.716 315.051 241.936C314.989 246.402 315.627 250.284 316.967 253.583C318.342 256.882 320.405 259.286 323.156 260.795C324.875 261.776 326.826 262.275 329.009 262.291C330.846 262.304 332.514 262.004 334.012 261.391C335.546 260.744 336.841 259.853 337.897 258.718C338.987 257.583 339.888 256.343 340.6 254.998C341.346 253.653 341.956 252.151 342.43 250.492C343.124 248.004 343.492 245.219 343.535 242.138ZM386.648 263.012C389.559 263.033 392.083 262.237 394.219 260.625C396.391 258.978 398.067 256.861 399.247 254.272L407.839 256.878C405.907 261.227 403.172 264.722 399.635 267.363C396.133 270.004 391.765 271.306 386.533 271.269C383.691 271.249 381.081 270.815 378.702 269.967C376.322 269.119 374.259 267.944 372.513 266.443C370.802 264.908 369.335 263.2 368.114 261.322C366.893 259.409 365.901 257.29 365.136 254.964C363.939 251.355 363.374 247.179 363.44 242.435C363.534 235.753 364.861 230.067 367.422 225.376C369.983 220.651 373.582 217.283 378.22 215.273C381.079 214.012 384.12 213.393 387.343 213.416C392.575 213.454 396.905 214.817 400.333 217.508C403.796 220.199 406.432 223.749 408.241 228.159L399.578 230.591C398.471 227.986 396.889 225.863 394.833 224.221C392.777 222.544 390.242 221.695 387.227 221.674C385.772 221.663 384.417 221.879 383.163 222.32C381.91 222.727 380.81 223.29 379.865 224.01C378.919 224.731 378.058 225.608 377.281 226.641C376.504 227.674 375.848 228.743 375.312 229.847C374.812 230.917 374.362 232.108 373.963 233.421C373.164 236.012 372.741 239.039 372.692 242.501C372.626 247.21 373.298 251.231 374.707 254.565C376.115 257.899 378.265 260.286 381.156 261.726C382.877 262.57 384.708 262.998 386.648 263.012ZM426.862 219.93C430.351 215.8 435.127 213.756 441.192 213.799C446.043 213.834 450.099 214.988 453.359 217.262C456.62 219.501 459.038 222.565 460.612 226.454C461.818 229.406 462.392 232.976 462.333 237.166L461.867 270.506L452.823 270.442L453.286 237.361C453.349 232.86 452.238 229.251 449.954 226.534C447.67 223.817 444.432 222.444 440.239 222.414C437.19 222.392 434.615 223.119 432.515 224.592C430.415 226.066 428.863 228.064 427.857 230.584C427.068 232.448 426.656 234.644 426.621 237.171L426.158 270.252L417.166 270.188L418.229 194.263L427.221 194.327L426.862 219.93ZM503.88 228.891C501.647 224.963 498.002 222.98 492.942 222.944C487.918 222.909 484.641 224.27 483.112 227.03C482.651 227.823 482.414 228.652 482.402 229.518C482.393 230.175 482.454 230.782 482.584 231.337C482.75 231.892 483.037 232.413 483.446 232.901C483.89 233.354 484.232 233.72 484.47 233.999C484.744 234.243 485.26 234.559 486.017 234.945C486.774 235.296 487.256 235.525 487.463 235.63C487.67 235.701 488.204 235.913 489.065 236.265C489.617 236.477 490.41 236.759 491.445 237.113C492.514 237.467 493.221 237.697 493.566 237.803L494.653 238.174C496.55 238.811 498.05 239.341 499.153 239.764C500.256 240.188 501.616 240.786 503.234 241.559C504.887 242.333 506.21 243.104 507.205 243.873C508.234 244.642 509.242 245.619 510.231 246.803C511.22 247.953 511.965 249.204 512.465 250.558C513 251.982 513.255 253.576 513.23 255.342C513.164 260.085 510.976 264.086 506.668 267.345C505.373 268.305 503.923 269.143 502.318 269.859C500.749 270.575 498.974 271.134 496.993 271.535C495.046 271.937 493.034 272.13 490.955 272.115C483.158 272.06 477.077 269.506 472.712 264.455C471.348 262.852 470.282 261.027 469.514 258.978L478.357 254.782C478.874 257.522 480.247 259.661 482.478 261.2C484.71 262.705 487.541 263.469 490.971 263.494C493.64 263.513 496.002 263.097 498.058 262.246C500.115 261.395 501.64 260.159 502.633 258.539C503.271 257.539 503.598 256.451 503.614 255.274C503.629 254.2 503.383 253.246 502.875 252.412C502.402 251.543 501.839 250.864 501.188 250.374C500.571 249.885 499.78 249.412 498.816 248.955C497.37 248.287 495.526 247.599 493.283 246.89C491.075 246.182 489.091 245.597 487.33 245.134C485.604 244.637 483.777 243.949 481.848 243.069C479.92 242.19 478.322 241.226 477.054 240.179C475.787 239.131 474.733 237.687 473.892 235.845C473.086 234.005 472.7 231.872 472.734 229.449C472.791 225.398 474.728 221.915 478.546 218.999C482.539 215.98 487.308 214.491 492.852 214.53C497.288 214.561 501.138 215.541 504.403 217.469C507.703 219.396 510.37 221.995 512.404 225.264L503.88 228.891ZM547.156 264.153C550.066 264.174 552.59 263.378 554.727 261.766C556.898 260.119 558.574 258.001 559.754 255.413L568.347 258.019C566.414 262.368 563.68 265.863 560.142 268.504C556.64 271.145 552.272 272.447 547.04 272.41C544.199 272.39 541.588 271.956 539.209 271.108C536.829 270.26 534.767 269.085 533.02 267.584C531.309 266.048 529.843 264.341 528.621 262.463C527.401 260.55 526.408 258.431 525.643 256.105C524.446 252.496 523.881 248.32 523.947 243.576C524.041 236.894 525.368 231.208 527.929 226.517C530.49 221.792 534.09 218.424 538.727 216.414C541.586 215.153 544.627 214.534 547.85 214.557C553.082 214.594 557.412 215.958 560.84 218.649C564.303 221.34 566.939 224.89 568.749 229.3L560.085 231.732C558.978 229.127 557.396 227.004 555.34 225.362C553.284 223.685 550.749 222.836 547.734 222.815C546.279 222.804 544.924 223.02 543.671 223.461C542.417 223.867 541.318 224.431 540.372 225.151C539.426 225.872 538.565 226.749 537.788 227.782C537.011 228.815 536.355 229.884 535.82 230.988C535.32 232.058 534.87 233.249 534.47 234.562C533.671 237.153 533.248 240.18 533.199 243.642C533.133 248.351 533.805 252.372 535.214 255.706C536.623 259.04 538.773 261.427 541.663 262.867C543.384 263.711 545.215 264.139 547.156 264.153ZM587.37 221.071C590.858 216.941 595.635 214.897 601.699 214.94C606.55 214.975 610.606 216.129 613.866 218.403C617.127 220.642 619.545 223.706 621.119 227.595C622.325 230.547 622.899 234.117 622.841 238.306L622.374 271.647L613.33 271.583L613.793 238.502C613.856 234.001 612.745 230.392 610.462 227.675C608.178 224.958 604.939 223.585 600.746 223.555C597.697 223.533 595.122 224.259 593.022 225.733C590.923 227.207 589.37 229.205 588.364 231.725C587.576 233.589 587.164 235.785 587.128 238.312L586.665 271.393L577.673 271.329L578.736 195.404L587.728 195.468L587.37 221.071ZM668.861 266.888C665.337 271.122 660.507 273.217 654.374 273.173C649.557 273.139 645.519 272.002 642.258 269.763C638.997 267.524 636.579 264.46 635.005 260.57C633.799 257.619 633.225 254.031 633.284 249.807L633.746 216.778L642.739 216.842L642.283 249.404C642.22 253.87 643.331 257.461 645.615 260.178C647.933 262.896 651.189 264.269 655.382 264.299C658.431 264.321 660.989 263.594 663.054 262.12C665.119 260.646 666.689 258.666 667.764 256.181C668.517 254.316 668.912 252.12 668.947 249.593L669.403 217.031L678.447 217.096L677.678 272.092L669.205 272.032L668.861 266.888ZM689.217 272.174L690.276 196.457L699.269 196.521L698.209 272.238L689.217 272.174ZM260.3 313.838L279.366 398.892L301.092 314.128L315.185 314.228L334.464 399.284C340.572 374.465 347.3 347.48 354.649 318.33C355 316.87 355.301 315.599 355.553 314.515L369.787 314.617C368.696 318.383 359.875 349.811 343.324 408.9C342.479 411.913 341.636 414.832 340.793 417.657L327.196 417.56L312.096 352.773L307.712 332.008C305.657 340.533 303.43 349.527 301.031 358.993C298.633 368.411 295.912 378.936 292.869 390.567C289.874 402.151 287.577 411.051 285.979 417.267L272.523 417.171C269.74 406.867 267.005 396.492 264.318 386.047C261.678 375.602 258.324 362.251 254.255 345.993C250.233 329.689 247.574 318.937 246.278 313.739L260.3 313.838ZM410.627 351.988C402.79 351.932 397.895 355.86 395.943 363.772L383.737 360.359C385.851 354.383 389.247 349.642 393.923 346.137C398.599 342.632 404.502 340.905 411.631 340.956C416.164 340.988 420.237 341.772 423.851 343.307C427.514 344.795 430.531 346.822 432.903 349.386C435.276 351.903 437.146 354.913 438.514 358.413C440.065 362.293 440.803 366.874 440.729 372.157L440.083 418.362L428.043 418.277L427.583 410.702C421.88 416.7 414.756 419.668 406.21 419.608C400.261 419.565 395.156 418.303 390.894 415.819C386.679 413.289 383.611 409.87 381.688 405.563C380.407 402.629 379.791 399.393 379.841 395.856C379.886 392.601 380.447 389.633 381.524 386.951C382.601 384.223 384.073 381.898 385.942 379.977C387.811 378.009 389.888 376.372 392.172 375.068C394.505 373.716 397.022 372.649 399.725 371.866C403.518 370.761 407.397 370.222 411.363 370.25C417.406 370.293 422.819 371.558 427.6 374.046L427.63 371.923C427.718 365.602 426.37 360.709 423.586 357.246C420.801 353.782 416.481 352.029 410.627 351.988ZM411.563 381.291C406.039 381.252 401.584 382.423 398.198 384.805C394.86 387.14 393.157 390.737 393.089 395.596C392.971 403.992 398.271 408.229 408.989 408.305C413.144 408.335 416.674 407.393 419.582 405.479C422.536 403.519 424.674 400.915 425.994 397.67C426.875 395.459 427.334 393.079 427.369 390.532L427.441 385.438C423.748 382.722 418.456 381.34 411.563 381.291ZM467.53 349.915C472.283 344.288 478.791 341.504 487.053 341.562C493.663 341.609 499.189 343.182 503.632 346.28C508.075 349.331 511.369 353.506 513.514 358.805C515.157 362.827 515.939 367.691 515.859 373.399L515.223 418.826L502.901 418.738L503.532 373.665C503.617 367.533 502.104 362.616 498.993 358.914C495.881 355.212 491.469 353.341 485.756 353.3C481.601 353.271 478.093 354.26 475.232 356.268C472.371 358.277 470.255 360.998 468.885 364.432C467.811 366.972 467.249 369.964 467.201 373.407L466.57 418.48L454.318 418.393L455.766 314.945L468.018 315.032L467.53 349.915ZM531.086 419.009L532.53 315.844L544.782 315.931L543.338 419.096L531.086 419.009ZM620.785 401.531C618.055 407.645 614.187 412.453 609.18 415.955C604.22 419.458 598.081 421.184 590.763 421.132C586.703 421.103 582.981 420.487 579.598 419.283C576.215 418.08 573.288 416.408 570.815 414.267C568.39 412.08 566.323 409.636 564.614 406.935C562.906 404.186 561.532 401.157 560.492 397.847C558.954 393.024 558.226 387.688 558.308 381.839C558.433 372.876 560.193 365.222 563.587 358.878C567.029 352.486 571.815 347.873 577.946 345.039C581.891 343.227 586.2 342.338 590.874 342.371C594.934 342.4 598.632 343.063 601.966 344.361C605.3 345.658 608.131 347.471 610.46 349.799C612.789 352.08 614.736 354.642 616.302 357.483C617.915 360.325 619.24 363.472 620.277 366.923C621.762 372.218 622.456 378.238 622.362 384.983L570.876 384.617C570.865 392.165 572.527 398.239 575.862 402.839C579.245 407.392 584.336 409.693 591.135 409.741C599.492 409.801 605.472 405.88 609.077 397.98L620.785 401.531ZM608.92 373.778C607.497 364.096 603.642 357.889 597.353 355.155C595.334 354.291 593.192 353.852 590.926 353.835C587.007 353.808 583.64 354.869 580.824 357.019C578.056 359.122 575.869 361.866 574.264 365.252C573.049 367.696 572.231 370.45 571.811 373.514L608.92 373.778ZM648.612 351.486C653.368 345.67 659.948 342.791 668.352 342.851C674.961 342.898 680.488 344.471 684.93 347.569C689.373 350.62 692.667 354.795 694.812 360.094C696.455 364.115 697.237 368.98 697.157 374.688L696.522 420.114L684.199 420.027L684.825 375.308C684.911 369.175 683.398 364.258 680.286 360.556C677.174 356.855 672.762 354.983 667.049 354.943C662.894 354.913 659.386 355.903 656.525 357.911C653.664 359.919 651.548 362.64 650.178 366.074C649.104 368.614 648.543 371.606 648.494 375.05L647.868 419.769L635.617 419.682L636.672 344.254L648.216 344.336L648.612 351.486Z" fill="#4100CC" />
    <path d="M500.191 490.735C491.458 490.673 485.431 495.256 482.108 504.483L471.853 500.532C473.737 495.94 476.318 492.08 479.596 488.953C482.875 485.785 486.828 483.551 491.455 482.25C494.337 481.423 497.375 481.02 500.569 481.043C507.078 481.089 512.616 482.623 517.182 485.645C521.79 488.667 525.19 492.69 527.384 497.715C528.911 501.281 529.642 505.346 529.579 509.91C529.54 512.697 529.22 515.32 528.619 517.78C528.019 520.2 527.242 522.335 526.286 524.187C525.37 526.038 524.153 527.807 522.633 529.493C521.155 531.139 519.639 532.562 518.086 533.763C516.574 534.924 514.758 536.062 512.64 537.178C510.563 538.294 508.609 539.25 506.778 540.045C504.989 540.8 502.915 541.613 500.558 542.485C495.356 544.387 491.734 546.058 489.693 547.498C485.283 550.617 483.017 555.045 482.896 560.78L482.89 561.204L528.007 561.525L527.87 571.34L471.049 570.936L471.148 563.908C471.201 560.111 471.653 556.701 472.504 553.677C473.396 550.613 474.646 547.956 476.254 545.705C477.904 543.415 479.77 541.469 481.855 539.868C483.98 538.267 486.426 536.83 489.193 535.557C491.105 534.722 493.036 533.928 494.988 533.174L499.256 531.508C501.492 530.635 503.384 529.821 504.931 529.064C506.518 528.268 508.17 527.249 509.886 526.009C511.602 524.729 512.975 523.365 514.006 521.918C515.078 520.431 515.953 518.619 516.629 516.483C517.347 514.307 517.725 511.886 517.762 509.22C517.819 505.181 516.937 501.7 515.119 498.779C513.3 495.858 510.823 493.699 507.689 492.303C505.52 491.278 503.021 490.755 500.191 490.735ZM538.795 527.548C538.885 521.125 539.594 515.212 540.923 509.809C542.293 504.365 544.322 499.532 547.009 495.309C549.697 491.047 552.938 487.697 556.732 485.259C560.607 482.823 565.071 481.622 570.125 481.658C579.787 481.727 587.323 486.366 592.733 495.574C595.182 499.671 597.035 504.512 598.291 510.095C599.588 515.679 600.192 521.642 600.103 527.983C599.982 536.587 598.703 544.253 596.263 550.982C593.824 557.711 590.333 563.058 585.789 567.025C580.96 571.233 575.311 573.313 568.842 573.267C559.14 573.198 551.563 568.6 546.111 559.472C541.055 550.953 538.616 540.311 538.795 527.548ZM550.317 527.63C550.21 535.223 550.966 541.934 552.582 547.763C554.199 553.551 556.847 557.892 560.526 560.786C562.926 562.662 565.743 563.611 568.977 563.634C575.162 563.678 580.002 560.238 583.495 553.315C586.738 546.955 588.433 538.484 588.581 527.902C588.688 520.267 587.913 513.496 586.258 507.586C584.643 501.636 581.996 497.194 578.317 494.26C575.959 492.344 573.183 491.375 569.989 491.352C563.763 491.308 558.903 494.828 555.407 501.913C552.161 508.515 550.464 517.087 550.317 527.63ZM638.093 491.715C629.36 491.653 623.333 496.236 620.009 505.463L609.755 501.512C611.638 496.92 614.219 493.06 617.498 489.933C620.776 486.765 624.73 484.531 629.357 483.231C632.239 482.403 635.277 482 638.471 482.023C644.98 482.069 650.517 483.603 655.084 486.625C659.691 489.647 663.092 493.67 665.286 498.695C666.813 502.261 667.544 506.326 667.48 510.89C667.441 513.677 667.122 516.301 666.521 518.761C665.921 521.18 665.143 523.315 664.188 525.167C663.272 527.019 662.055 528.787 660.535 530.473C659.057 532.119 657.541 533.542 655.987 534.743C654.475 535.904 652.66 537.042 650.542 538.158C648.465 539.274 646.51 540.23 644.68 541.025C642.89 541.78 640.817 542.593 638.46 543.465C633.258 545.367 629.636 547.038 627.595 548.478C623.184 551.597 620.919 556.025 620.798 561.76L620.792 562.184L665.909 562.505L665.771 572.32L608.951 571.916L609.05 564.888C609.103 561.091 609.555 557.681 610.406 554.657C611.298 551.594 612.548 548.936 614.156 546.686C615.805 544.395 617.672 542.449 619.757 540.848C621.881 539.247 624.327 537.81 627.095 536.537C629.006 535.703 630.938 534.908 632.889 534.155L637.158 532.488C639.394 531.616 641.285 530.801 642.832 530.044C644.42 529.248 646.072 528.229 647.787 526.989C649.503 525.709 650.877 524.345 651.908 522.898C652.98 521.411 653.854 519.6 654.531 517.463C655.249 515.287 655.627 512.866 655.664 510.2C655.72 506.161 654.839 502.681 653.02 499.759C651.201 496.838 648.725 494.679 645.591 493.283C643.422 492.258 640.922 491.735 638.093 491.715ZM686.547 496.362L672.598 500.747L672.748 490.023L689.813 484.024L697.939 484.082L696.699 572.661L685.48 572.581L686.547 496.362Z" fill="#4100CC" />
</svg>
