<svg width="85" height="10" viewBox="0 0 255 30" fill="none" xmlns="http://www.w3.org/2000/svg">
    <path d="M7.125 18.1484C9.07812 18.1484 10.5391 17.5586 11.5078 16.3789C12.4844 15.1914 12.9727 13.5508 12.9727 11.457C12.9727 9.87109 12.6914 8.55078 12.1289 7.49609C11.5664 6.43359 10.7344 5.66797 9.63281 5.19922C8.89844 4.88672 8.04297 4.73047 7.06641 4.73047H4.45312V18.1484H7.125ZM2.36719 20.0117V2.87891H7.04297C9.00391 2.87891 10.6211 3.32812 11.8945 4.22656C13.1758 5.125 14.0859 6.36328 14.625 7.94141C14.9922 8.99609 15.1758 10.168 15.1758 11.457C15.1758 13.4414 14.7656 15.1094 13.9453 16.4609C13.1328 17.8125 11.9922 18.7891 10.5234 19.3906C9.52344 19.8047 8.39062 20.0117 7.125 20.0117H2.36719ZM19.8047 5.70312C19.5391 6.04687 19.1797 6.21875 18.7266 6.21875C18.2734 6.21875 17.9102 6.04687 17.6367 5.70312C17.3711 5.35938 17.2383 4.94531 17.2383 4.46094C17.2383 4.10938 17.3203 3.79297 17.4844 3.51172C17.6484 3.22266 17.8594 3.00781 18.1172 2.86719C18.2969 2.75781 18.5 2.70312 18.7266 2.70312C19.1797 2.70312 19.5391 2.875 19.8047 3.21875C20.0781 3.5625 20.2148 3.97656 20.2148 4.46094C20.2148 4.94531 20.0781 5.35938 19.8047 5.70312ZM19.7578 20.0117H17.7305V7.625H19.7578V20.0117ZM28.4531 10.0039C27.9922 9.62891 27.4883 9.44141 26.9414 9.44141C26.1133 9.44141 25.4922 9.75391 25.0781 10.3789C24.6719 10.9961 24.4688 11.7891 24.4688 12.7578V19.9883H22.4414V7.58984H24.3516L24.4336 8.76172C24.6445 8.48828 24.8867 8.24609 25.1602 8.03516C25.4414 7.82422 25.7656 7.65234 26.1328 7.51953C26.5078 7.38672 26.8945 7.32031 27.293 7.32031C28.0898 7.32031 28.8477 7.58203 29.5664 8.10547L28.4531 10.0039ZM41.8828 17.0117C41.4453 18.0273 40.8164 18.8281 39.9961 19.4141C39.1836 20 38.1719 20.293 36.9609 20.293C36.2891 20.293 35.6719 20.1953 35.1094 20C34.5469 19.8047 34.0586 19.5312 33.6445 19.1797C33.2383 18.8203 32.8906 18.418 32.6016 17.9727C32.3125 17.5195 32.0781 17.0195 31.8984 16.4727C31.6328 15.6758 31.5 14.793 31.5 13.8242C31.5 12.3398 31.7734 11.0703 32.3203 10.0156C32.875 8.95312 33.6562 8.18359 34.6641 7.70703C35.3125 7.40234 36.0234 7.25 36.7969 7.25C37.4688 7.25 38.082 7.35547 38.6367 7.56641C39.1914 7.77734 39.6641 8.07422 40.0547 8.45703C40.4453 8.83203 40.7734 9.25391 41.0391 9.72266C41.3125 10.1914 41.5391 10.7109 41.7188 11.2812C41.9766 12.1562 42.1055 13.1523 42.1055 14.2695H33.5859C33.6016 15.5195 33.8906 16.5234 34.4531 17.2812C35.0234 18.0312 35.8711 18.4062 36.9961 18.4062C38.3789 18.4062 39.3594 17.75 39.9375 16.4375L41.8828 17.0117ZM39.8555 12.4297C39.5977 10.8281 38.9453 9.80469 37.8984 9.35938C37.5625 9.21875 37.207 9.14844 36.832 9.14844C36.1836 9.14844 35.6289 9.32812 35.168 9.6875C34.7148 10.0391 34.3594 10.4961 34.1016 11.0586C33.9062 11.4648 33.7773 11.9219 33.7148 12.4297H39.8555ZM46.4062 14.5742V20.0117H44.3789V2.92578H46.4062V12.1719L52.1836 7.625H54.9961L49.6172 11.9727L55.3008 20.0117H52.7109L48.0117 13.2734L46.4062 14.5742ZM61.8281 20.2344C61.0859 20.2344 60.457 20.1016 59.9414 19.8359C59.4258 19.5703 59.0312 19.1758 58.7578 18.6523C58.4922 18.1211 58.3594 17.4727 58.3594 16.707V9.51172H56.7422V7.67188H58.3594V4.32031H60.3867V7.67188H63.5508V9.51172H60.3867V16.707C60.3867 17.2383 60.5547 17.6367 60.8906 17.9023C61.2266 18.168 61.6523 18.3008 62.168 18.3008C62.3008 18.3008 62.4375 18.293 62.5781 18.2773C62.7266 18.2539 62.8711 18.2227 63.0117 18.1836C63.1602 18.1445 63.3047 18.0977 63.4453 18.043L64.0312 19.8828C63.25 20.1172 62.5156 20.2344 61.8281 20.2344ZM73.5117 9.35938V7.625H82.3711V9.10156L75.4453 18.2891H82.207V20.0117H72.9141V18.5L79.8047 9.35938H73.5117ZM92.8594 18.8516C92.0781 19.8125 90.9961 20.293 89.6133 20.293C88.5273 20.293 87.6133 20.043 86.8711 19.543C86.1289 19.043 85.5742 18.3555 85.207 17.4805C84.9258 16.8164 84.7852 16.0078 84.7852 15.0547V7.60156H86.8125V14.9492C86.8125 15.957 87.0742 16.7656 87.5977 17.375C88.1289 17.9844 88.8672 18.2891 89.8125 18.2891C90.5 18.2891 91.0742 18.1211 91.5352 17.7852C91.9961 17.4492 92.3438 17 92.5781 16.4375C92.7422 16.0156 92.8242 15.5195 92.8242 14.9492V7.60156H94.8633V20.0117H92.9531L92.8594 18.8516ZM99.2227 8.71484C99.4336 8.44141 99.668 8.20312 99.9258 8C100.184 7.79688 100.492 7.625 100.852 7.48438C101.219 7.34375 101.602 7.27344 102 7.27344C102.773 7.27344 103.449 7.45703 104.027 7.82422C104.613 8.19141 105.086 8.67578 105.445 9.27734C105.812 8.66797 106.289 8.18359 106.875 7.82422C107.469 7.45703 108.156 7.27344 108.938 7.27344C109.445 7.27344 109.914 7.35156 110.344 7.50781C110.773 7.66406 111.148 7.88281 111.469 8.16406C111.789 8.4375 112.062 8.74609 112.289 9.08984C112.516 9.43359 112.707 9.8125 112.863 10.2266C113.105 10.8828 113.227 11.6445 113.227 12.5117V19.9414H111.199V12.5938C111.199 11.6094 110.996 10.8125 110.59 10.2031C110.184 9.58594 109.559 9.27734 108.715 9.27734C107.895 9.27734 107.277 9.57812 106.863 10.1797C106.449 10.7812 106.242 11.5586 106.242 12.5117V19.9414H104.215V12.5938C104.215 11.6094 104.012 10.8125 103.605 10.2031C103.199 9.58594 102.574 9.27734 101.73 9.27734C100.902 9.27734 100.281 9.58984 99.8672 10.2148C99.4609 10.832 99.2578 11.625 99.2578 12.5938V19.9414H97.2305V7.54297H99.1406L99.2227 8.71484ZM124.348 2.91406L127.699 16.9766L131.098 2.91406H133.43L136.816 16.9766C137.77 12.8594 138.82 8.38281 139.969 3.54688C140.023 3.30469 140.07 3.09375 140.109 2.91406H142.465C142.293 3.53906 140.906 8.75391 138.305 18.5586C138.172 19.0586 138.039 19.543 137.906 20.0117H135.656L133.008 9.30078L132.234 5.86719C131.914 7.28125 131.566 8.77344 131.191 10.3438C130.816 11.9062 130.391 13.6523 129.914 15.582C129.445 17.5039 129.086 18.9805 128.836 20.0117H126.609C126.125 18.3086 125.648 16.5938 125.18 14.8672C124.719 13.1406 124.133 10.9336 123.422 8.24609C122.719 5.55078 122.254 3.77344 122.027 2.91406H124.348ZM149.309 9.05469C148.012 9.05469 147.211 9.71094 146.906 11.0234L144.879 10.4727C145.215 9.48047 145.766 8.69141 146.531 8.10547C147.297 7.51953 148.27 7.22656 149.449 7.22656C150.199 7.22656 150.875 7.35156 151.477 7.60156C152.086 7.84375 152.59 8.17578 152.988 8.59766C153.387 9.01172 153.703 9.50781 153.938 10.0859C154.203 10.7266 154.336 11.4844 154.336 12.3594V20.0117H152.344L152.25 18.7578C151.32 19.7578 150.148 20.2578 148.734 20.2578C147.75 20.2578 146.902 20.0547 146.191 19.6484C145.488 19.2344 144.973 18.6719 144.645 17.9609C144.426 17.4766 144.316 16.9414 144.316 16.3555C144.316 15.8164 144.402 15.3242 144.574 14.8789C144.746 14.4258 144.984 14.0391 145.289 13.7188C145.594 13.3906 145.934 13.1172 146.309 12.8984C146.691 12.6719 147.105 12.4922 147.551 12.3594C148.176 12.1719 148.816 12.0781 149.473 12.0781C150.473 12.0781 151.371 12.2812 152.168 12.6875V12.3359C152.168 11.2891 151.934 10.4805 151.465 9.91016C150.996 9.33984 150.277 9.05469 149.309 9.05469ZM149.531 13.9062C148.617 13.9062 147.883 14.1055 147.328 14.5039C146.781 14.8945 146.508 15.4922 146.508 16.2969C146.508 17.6875 147.395 18.3828 149.168 18.3828C149.855 18.3828 150.438 18.2227 150.914 17.9023C151.398 17.5742 151.746 17.1406 151.957 16.6016C152.098 16.2344 152.168 15.8398 152.168 15.418V14.5742C151.551 14.1289 150.672 13.9062 149.531 13.9062ZM158.719 8.64453C159.492 7.70703 160.562 7.23828 161.93 7.23828C163.023 7.23828 163.941 7.49219 164.684 8C165.426 8.5 165.98 9.1875 166.348 10.0625C166.629 10.7266 166.77 11.5312 166.77 12.4766V20H164.73V12.5352C164.73 11.5195 164.469 10.707 163.945 10.0977C163.422 9.48828 162.688 9.18359 161.742 9.18359C161.055 9.18359 160.477 9.35156 160.008 9.6875C159.539 10.0234 159.195 10.4766 158.977 11.0469C158.805 11.4688 158.719 11.9648 158.719 12.5352V20H156.691V2.86719H158.719V8.64453ZM169.395 20.0117V2.92578H171.422V20.0117H169.395ZM178.898 20.293C178.289 20.293 177.723 20.1758 177.199 19.9414C176.676 19.707 176.234 19.3984 175.875 19.0156V25.1211H173.848V7.50781H175.758L175.84 8.57422C176.441 7.68359 177.387 7.23828 178.676 7.23828C179.332 7.23828 179.934 7.33984 180.48 7.54297C181.027 7.74609 181.5 8.03125 181.898 8.39844C182.297 8.75781 182.633 9.16406 182.906 9.61719C183.188 10.0703 183.414 10.5703 183.586 11.1172C183.852 11.9297 183.984 12.832 183.984 13.8242C183.984 15.3008 183.711 16.5664 183.164 17.6211C182.625 18.668 181.859 19.418 180.867 19.8711C180.25 20.1523 179.594 20.293 178.898 20.293ZM175.875 15.0547C175.875 15.8047 176.039 16.4531 176.367 17C176.695 17.5469 177.133 17.9414 177.68 18.1836C178.016 18.332 178.348 18.4062 178.676 18.4062C180.152 18.4062 181.141 17.543 181.641 15.8164C181.805 15.2461 181.887 14.582 181.887 13.8242C181.887 12.8008 181.715 11.9102 181.371 11.1523C181.027 10.3945 180.535 9.83594 179.895 9.47656C179.504 9.26562 179.09 9.16016 178.652 9.16016C178.434 9.16016 178.227 9.18359 178.031 9.23047C177.836 9.26953 177.656 9.33203 177.492 9.41797C177.328 9.49609 177.176 9.58984 177.035 9.69922C176.895 9.80859 176.766 9.93359 176.648 10.0742C176.539 10.207 176.438 10.3516 176.344 10.5078C176.258 10.6562 176.18 10.8164 176.109 10.9883C175.953 11.3945 175.875 11.8633 175.875 12.3945V15.0547ZM196.98 13.7891C196.98 15.2344 196.703 16.4766 196.148 17.5156C195.594 18.5547 194.816 19.3125 193.816 19.7891C193.168 20.0938 192.457 20.2461 191.684 20.2461C191.035 20.2461 190.438 20.1484 189.891 19.9531C189.344 19.75 188.871 19.4688 188.473 19.1094C188.082 18.75 187.746 18.3477 187.465 17.9023C187.184 17.457 186.953 16.9688 186.773 16.4375C186.516 15.6406 186.387 14.7578 186.387 13.7891C186.387 12.3125 186.66 11.0508 187.207 10.0039C187.754 8.95703 188.535 8.20312 189.551 7.74219C190.199 7.45312 190.91 7.30859 191.684 7.30859C192.34 7.30859 192.941 7.40625 193.488 7.60156C194.035 7.78906 194.504 8.05859 194.895 8.41016C195.293 8.75391 195.629 9.14844 195.902 9.59375C196.184 10.0312 196.414 10.5234 196.594 11.0703C196.852 11.8672 196.98 12.7734 196.98 13.7891ZM194.895 13.7891C194.895 12.75 194.738 11.8594 194.426 11.1172C194.113 10.3672 193.641 9.82812 193.008 9.5C192.609 9.28906 192.168 9.18359 191.684 9.18359C191.348 9.18359 191.035 9.23047 190.746 9.32422C190.457 9.41797 190.203 9.54688 189.984 9.71094C189.773 9.86719 189.582 10.0625 189.41 10.2969C189.238 10.5234 189.098 10.7617 188.988 11.0117C188.879 11.2617 188.781 11.5391 188.695 11.8438C188.547 12.4141 188.473 13.0625 188.473 13.7891C188.473 14.7969 188.629 15.6719 188.941 16.4141C189.262 17.1562 189.734 17.6953 190.359 18.0312C190.75 18.25 191.191 18.3594 191.684 18.3594C192.098 18.3594 192.473 18.2891 192.809 18.1484C193.152 18 193.441 17.7969 193.676 17.5391C193.918 17.2812 194.117 17 194.273 16.6953C194.438 16.3906 194.57 16.0508 194.672 15.6758C194.82 15.1133 194.895 14.4844 194.895 13.7891ZM205.359 10.0039C204.898 9.62891 204.395 9.44141 203.848 9.44141C203.02 9.44141 202.398 9.75391 201.984 10.3789C201.578 10.9961 201.375 11.7891 201.375 12.7578V19.9883H199.348V7.58984H201.258L201.34 8.76172C201.551 8.48828 201.793 8.24609 202.066 8.03516C202.348 7.82422 202.672 7.65234 203.039 7.51953C203.414 7.38672 203.801 7.32031 204.199 7.32031C204.996 7.32031 205.754 7.58203 206.473 8.10547L205.359 10.0039ZM212.742 20.2344C212 20.2344 211.371 20.1016 210.855 19.8359C210.34 19.5703 209.945 19.1758 209.672 18.6523C209.406 18.1211 209.273 17.4727 209.273 16.707V9.51172H207.656V7.67188H209.273V4.32031H211.301V7.67188H214.465V9.51172H211.301V16.707C211.301 17.2383 211.469 17.6367 211.805 17.9023C212.141 18.168 212.566 18.3008 213.082 18.3008C213.215 18.3008 213.352 18.293 213.492 18.2773C213.641 18.2539 213.785 18.2227 213.926 18.1836C214.074 18.1445 214.219 18.0977 214.359 18.043L214.945 19.8828C214.164 20.1172 213.43 20.2344 212.742 20.2344ZM221.684 9.05469C220.387 9.05469 219.586 9.71094 219.281 11.0234L217.254 10.4727C217.59 9.48047 218.141 8.69141 218.906 8.10547C219.672 7.51953 220.645 7.22656 221.824 7.22656C222.574 7.22656 223.25 7.35156 223.852 7.60156C224.461 7.84375 224.965 8.17578 225.363 8.59766C225.762 9.01172 226.078 9.50781 226.312 10.0859C226.578 10.7266 226.711 11.4844 226.711 12.3594V20.0117H224.719L224.625 18.7578C223.695 19.7578 222.523 20.2578 221.109 20.2578C220.125 20.2578 219.277 20.0547 218.566 19.6484C217.863 19.2344 217.348 18.6719 217.02 17.9609C216.801 17.4766 216.691 16.9414 216.691 16.3555C216.691 15.8164 216.777 15.3242 216.949 14.8789C217.121 14.4258 217.359 14.0391 217.664 13.7188C217.969 13.3906 218.309 13.1172 218.684 12.8984C219.066 12.6719 219.48 12.4922 219.926 12.3594C220.551 12.1719 221.191 12.0781 221.848 12.0781C222.848 12.0781 223.746 12.2812 224.543 12.6875V12.3359C224.543 11.2891 224.309 10.4805 223.84 9.91016C223.371 9.33984 222.652 9.05469 221.684 9.05469ZM221.906 13.9062C220.992 13.9062 220.258 14.1055 219.703 14.5039C219.156 14.8945 218.883 15.4922 218.883 16.2969C218.883 17.6875 219.77 18.3828 221.543 18.3828C222.23 18.3828 222.812 18.2227 223.289 17.9023C223.773 17.5742 224.121 17.1406 224.332 16.6016C224.473 16.2344 224.543 15.8398 224.543 15.418V14.5742C223.926 14.1289 223.047 13.9062 221.906 13.9062ZM229.301 20.0117V2.92578H231.328V20.0117H229.301Z" fill="#2E0091" />
    <path d="M253.707 12.7071C254.098 12.3166 254.098 11.6834 253.707 11.2929L247.343 4.92893C246.953 4.53841 246.319 4.53841 245.929 4.92893C245.538 5.31946 245.538 5.95262 245.929 6.34315L251.586 12L245.929 17.6569C245.538 18.0474 245.538 18.6805 245.929 19.0711C246.319 19.4616 246.953 19.4616 247.343 19.0711L253.707 12.7071ZM238 13H253V11H238V13Z" fill="#2E0091" />
</svg>
