<svg width="33" height="43" viewBox="0 0 33 43" fill="none" xmlns="http://www.w3.org/2000/svg">
    <rect x="1.15086" y="1.38365" width="30.6983" height="39.6983" stroke="#5319F8" stroke-width="2.30172" />
    <path d="M6 6.73344C7.90682 6.68275 9.40736 6.51035 11.2973 6.92902C12.0701 7.10022 13.0294 7.06563 13.7673 6.71947C14.5331 6.3602 15.9071 5.13829 16.6997 5.23862C17.862 5.38576 18.802 6.90489 20 7.18049C20.7998 7.36447 21.8165 7.05675 22.4489 6.35624C23.1135 5.6202 26.0508 6.23051 27 6.23051" stroke="#5319F8" stroke-width="2.30172" stroke-linecap="round" stroke-linejoin="round" />
    <path d="M7 28.9831C8.81602 28.9578 10.2451 28.8716 12.045 29.0809C12.781 29.1665 13.6946 29.1492 14.3974 28.9761C15.1268 28.7965 16.4353 28.1855 17.1902 28.2357C18.2972 28.3093 19.1924 29.0688 20.3333 29.2066C21.095 29.2986 22.0633 29.1448 22.6657 28.7945C23.2985 28.4265 26.096 28.7316 27 28.7316" stroke="#5319F8" stroke-width="2.30172" stroke-linecap="round" stroke-linejoin="round" />
    <path d="M7 11.861C8.362 11.985 9.58746 12.0567 10.9192 11.7339C11.2438 11.6552 11.8911 11.3889 12.2121 11.3889C14.8149 11.3889 17.0975 12.9253 19.7576 11.8519C19.9211 11.7859 20.736 11.196 20.9293 11.2346C21.4582 11.3402 21.9261 11.7268 22.4949 11.8247C23.4395 11.9873 24.0991 11.5342 25 11.5342" stroke="#5319F8" stroke-width="2.30172" stroke-linecap="round" stroke-linejoin="round" />
    <path d="M8 34.2328C9.43767 34.2328 10.7312 34.2328 12.1369 34.2328C12.4795 34.2328 13.1628 34.2328 13.5017 34.2328C16.249 34.2328 18.6584 34.2328 21.4663 34.2328C21.6389 34.2328 22.4991 34.2328 22.7031 34.2328C23.2614 34.2328 23.7553 34.2328 24.3558 34.2328C25.3529 34.2328 26.049 34.2328 27 34.2328" stroke="#5319F8" stroke-width="2.30172" stroke-linecap="round" stroke-linejoin="round" />
    <path d="M8 16.4889C9.16252 16.6488 10.3193 16.7742 11.4898 16.6584C12.3911 16.5693 13.5281 16.0576 14.4286 16.2951C15.0475 16.4583 15.5099 17.3606 16.0816 17.6999C16.9911 18.2396 18.0302 18.2328 19.0204 18.2328C19.9544 18.2328 20.6751 18.1418 21.3878 17.3729C21.683 17.0544 22.0204 16.488 22.4694 16.8037C23.3747 17.4405 25.0026 17.3194 26 16.9248" stroke="#5319F8" stroke-width="2.30172" stroke-linecap="round" stroke-linejoin="round" />
    <path d="M8 22.9856C9.84725 22.9597 11.3982 22.7672 13.1019 22.4089C13.9694 22.2265 14.6515 22.0916 15.2751 22.5014C16.4962 23.304 17.8018 23.4553 19.549 22.9095C21.8329 22.196 24.6349 22.8125 27 22.398" stroke="#5319F8" stroke-width="2.30172" stroke-linecap="round" stroke-linejoin="round" />
</svg>
