<svg width="33" height="39" viewBox="0 0 33 39" fill="none" xmlns="http://www.w3.org/2000/svg">
    <rect x="0.753131" y="0.781049" width="30.5" height="36.5" transform="rotate(-0.0153521 0.753131 0.781049)" stroke="#2E0091" stroke-width="1.5" />
    <path d="M5.00679 14.7801C7.00441 14.7542 8.57638 14.6676 10.5564 14.8764C11.366 14.9618 12.371 14.9442 13.1439 14.7709C13.9462 14.5911 15.3854 13.9798 16.2158 14.0297C17.4335 14.1029 18.4184 14.8622 19.6735 14.9997C20.5114 15.0915 21.5765 14.9373 22.239 14.5869C22.935 14.2187 26.0123 14.523 27.0067 14.5228" stroke="#2E0091" stroke-linecap="round" stroke-linejoin="round" />
    <path d="M5.01045 28.7801C7.00807 28.7542 8.58004 28.6676 10.56 28.8764C11.3696 28.9618 12.3746 28.9442 13.1476 28.7709C13.9499 28.5911 15.3891 27.9798 16.2195 28.0297C17.4371 28.1029 18.4221 28.8622 19.6772 28.9997C20.5151 29.0915 21.5802 28.9373 22.2426 28.5869C22.9387 28.2187 26.016 28.523 27.0104 28.5228" stroke="#2E0091" stroke-linecap="round" stroke-linejoin="round" />
    <path d="M6.00606 11.7801C7.91288 11.7543 9.41339 11.6677 11.3034 11.8765C12.0762 11.9619 13.0355 11.9443 13.7733 11.771C14.5391 11.5912 15.9129 10.9799 16.7056 11.0298C17.8679 11.1031 18.8081 11.8624 20.0061 11.9999C20.8059 12.0917 21.8226 11.9375 22.455 11.5871C23.1194 11.2189 26.0568 11.5233 27.006 11.523" stroke="#2E0091" stroke-linecap="round" stroke-linejoin="round" />
    <path d="M6.00972 25.7801C7.91654 25.7543 9.41705 25.6677 11.307 25.8765C12.0798 25.9619 13.0391 25.9443 13.777 25.771C14.5428 25.5912 15.9166 24.9799 16.7092 25.0298C17.8716 25.1031 18.8117 25.8624 20.0098 25.9999C20.8096 26.0917 21.8263 25.9375 22.4586 25.5871C23.123 25.2189 26.0604 25.5233 27.0097 25.523" stroke="#2E0091" stroke-linecap="round" stroke-linejoin="round" />
    <path d="M6.00456 6.658C7.44227 6.78157 8.73582 6.85293 10.1415 6.52979C10.4841 6.45103 11.1672 6.18455 11.5061 6.18445C14.2535 6.18372 16.6633 7.71947 19.4709 6.64531C19.6435 6.57928 20.5034 5.9891 20.7075 6.02766C21.2658 6.13314 21.7599 6.51957 22.3603 6.6173C23.3575 6.7796 24.0535 6.32634 25.0045 6.32609" stroke="#2E0091" stroke-linecap="round" stroke-linejoin="round" />
    <path d="M6.00822 20.658C7.44593 20.7816 8.73948 20.8529 10.1451 20.5298C10.4877 20.451 11.1709 20.1845 11.5098 20.1845C14.2571 20.1837 16.6669 21.7195 19.4746 20.6453C19.6471 20.5793 20.5071 19.9891 20.7112 20.0277C21.2695 20.1331 21.7635 20.5196 22.364 20.6173C23.3611 20.7796 24.0571 20.3263 25.0081 20.3261" stroke="#2E0091" stroke-linecap="round" stroke-linejoin="round" />
    <path d="M7.00513 9.0293C8.23223 9.02897 9.45328 9.02864 10.6888 9.02831C11.6402 9.02805 12.8404 9.02773 13.7908 9.02748C14.4442 9.0273 14.9322 9.02717 15.5357 9.02701C16.4958 9.02675 17.5925 9.02646 18.6378 9.02618C19.6237 9.02592 20.3844 9.02571 21.1366 9.02551C21.4483 9.02543 21.8045 9.02533 22.2784 9.0252C23.234 9.02495 24.9523 9.02449 26.0051 9.02421" stroke="#2E0091" stroke-linecap="round" stroke-linejoin="round" />
    <path d="M7.00903 23.0293C8.23613 23.029 9.45718 23.0286 10.6927 23.0283C11.6441 23.0281 12.8443 23.0277 13.7947 23.0275C14.4481 23.0273 14.9361 23.0272 15.5396 23.027C16.4997 23.0268 17.5964 23.0265 18.6417 23.0262C19.6276 23.0259 20.3883 23.0257 21.1406 23.0255C21.4522 23.0254 21.8084 23.0253 22.2823 23.0252C23.2379 23.0249 24.9563 23.0245 26.009 23.0242" stroke="#2E0091" stroke-linecap="round" stroke-linejoin="round" />
    <path d="M7.00736 17.1573C8.23448 17.237 9.45555 17.2993 10.6911 17.2411C11.6424 17.1963 12.8426 16.9401 13.793 17.0586C14.4464 17.1401 14.9346 17.5911 15.5381 17.7606C16.4982 18.0302 17.595 18.0265 18.6402 18.0262C19.6262 18.0259 20.3869 17.9802 21.139 17.5956C21.4506 17.4362 21.8067 17.1529 22.2806 17.3107C23.2363 17.6288 24.9547 17.5678 26.0074 17.3702" stroke="#2E0091" stroke-linecap="round" stroke-linejoin="round" />
    <path d="M7.01126 31.1573C8.23839 31.237 9.45945 31.2993 10.695 31.2411C11.6463 31.1963 12.8465 30.9401 13.797 31.0586C14.4503 31.1401 14.9385 31.5911 15.542 31.7606C16.5022 32.0302 17.5989 32.0265 18.6442 32.0262C19.6301 32.0259 20.3908 31.9802 21.1429 31.5956C21.4545 31.4362 21.8106 31.1529 22.2845 31.3107C23.2403 31.6288 24.9586 31.5678 26.0113 31.3702" stroke="#2E0091" stroke-linecap="round" stroke-linejoin="round" />
</svg>    