<svg width="80" height="80" viewBox="0 0 80 80" fill="none" xmlns="http://www.w3.org/2000/svg">
    <path d="M10.8929 59.047C10.4552 58.327 9.79881 57.9672 8.92381 57.9674C8.48176 57.9675 8.10352 58.0474 7.78911 58.207C7.4747 58.362 7.24918 58.5877 7.11254 58.8839C7.03055 59.0617 6.98959 59.2485 6.98964 59.4445C6.98967 59.5676 7.00338 59.686 7.03075 59.8C7.05812 59.9093 7.09233 60.0096 7.13337 60.1007C7.17441 60.1873 7.2314 60.2739 7.30434 60.3604C7.38183 60.4425 7.45249 60.5131 7.51631 60.5723C7.58468 60.6315 7.67357 60.693 7.78296 60.7568C7.89235 60.816 7.98351 60.8661 8.05644 60.9071C8.13392 60.9436 8.23647 60.9868 8.36409 61.0369C8.49626 61.087 8.59881 61.1257 8.67174 61.153C8.74466 61.1758 8.84949 61.21 8.98622 61.2555C9.12295 61.301 9.22094 61.3329 9.28019 61.3511C9.5491 61.4468 9.76787 61.5264 9.9365 61.5902C10.1097 61.654 10.3125 61.7405 10.545 61.8498C10.782 61.9591 10.978 62.0684 11.133 62.1778C11.2925 62.2826 11.4497 62.4147 11.6047 62.5741C11.7643 62.729 11.8965 62.8976 12.0014 63.0799C12.1792 63.3852 12.2681 63.7634 12.2683 64.2146C12.2684 64.6612 12.1751 65.0645 11.9883 65.4246C11.8016 65.7847 11.5578 66.0947 11.2571 66.3545C10.9427 66.6189 10.5691 66.8309 10.1362 66.9905C9.70329 67.1456 9.23163 67.2232 8.72122 67.2233C8.39765 67.2234 8.08774 67.1916 7.7915 67.1279C7.49982 67.0687 7.2332 66.9845 6.99163 66.8752C6.75006 66.7613 6.529 66.6315 6.32844 66.4857C6.13244 66.3354 5.95238 66.1668 5.78827 65.98C5.56033 65.7248 5.37796 65.4401 5.24116 65.1256L6.39628 64.5511C6.51034 65.0342 6.77021 65.4123 7.17588 65.6857C7.58611 65.9544 8.08973 66.0887 8.68673 66.0886C9.18803 66.0885 9.62323 65.9904 9.99232 65.7943C10.366 65.5937 10.6416 65.3202 10.8192 64.9738C10.9286 64.755 10.9832 64.5225 10.9831 64.2764C10.9831 64.1306 10.9625 63.9939 10.9215 63.8663C10.8804 63.7387 10.8326 63.6294 10.7778 63.5382C10.7231 63.4425 10.6434 63.3514 10.5385 63.2648C10.4337 63.1737 10.3402 63.1031 10.2582 63.053C10.1761 62.9983 10.0622 62.9391 9.91634 62.8754C9.77049 62.807 9.65654 62.7569 9.5745 62.7251C9.49246 62.6932 9.37396 62.6499 9.219 62.5953C9.1871 62.5862 9.16431 62.5793 9.15063 62.5748C9.05036 62.5338 8.8954 62.4792 8.68575 62.4109C8.48065 62.338 8.32341 62.2833 8.21402 62.2469C8.10464 62.2059 7.95651 62.149 7.76964 62.0761C7.58733 62.0033 7.4392 61.9395 7.32525 61.8849C7.21586 61.8256 7.08596 61.7528 6.93555 61.6662C6.78513 61.5797 6.65978 61.4931 6.5595 61.4065C6.45922 61.3154 6.35665 61.2129 6.2518 61.099C6.14695 60.9805 6.05577 60.8575 5.97827 60.7299C5.79589 60.4155 5.70464 60.0282 5.70452 59.5679C5.70431 58.8114 6.00265 58.1733 6.59951 57.6536C6.882 57.412 7.21919 57.2228 7.61108 57.0859C8.00297 56.9446 8.43361 56.8738 8.90301 56.8737C9.59572 56.8735 10.2019 57.0192 10.7215 57.3107C11.2411 57.6022 11.6696 57.9918 12.007 58.4793L10.8929 59.047ZM16.0151 67.153C15.5822 67.1531 15.2153 67.0758 14.9145 66.9209C14.6137 66.766 14.3835 66.536 14.2239 66.2307C14.0688 65.9208 13.9913 65.5426 13.9912 65.096L13.99 60.8987L13.0467 60.8989L13.0464 59.8257L13.9897 59.8254L13.9892 57.8704L15.1718 57.8701L15.1724 59.8251L17.0181 59.8246L17.0183 60.8979L15.1726 60.8984L15.1738 65.0956C15.1739 65.4055 15.2719 65.6379 15.4679 65.7928C15.6639 65.9477 15.9123 66.0251 16.2131 66.025C16.2906 66.025 16.3703 66.0204 16.4523 66.0113C16.5389 65.9976 16.6232 65.9794 16.7053 65.9566C16.7918 65.9337 16.8761 65.9064 16.9582 65.8745L17.3002 66.9476C16.8446 67.0844 16.4162 67.1529 16.0151 67.153ZM23.138 66.3445C22.6824 66.9052 22.0513 67.1856 21.2446 67.1858C20.6112 67.186 20.0779 67.0403 19.6449 66.7487C19.2119 66.4572 18.8882 66.0562 18.6739 65.5459C18.5097 65.1585 18.4276 64.6869 18.4274 64.1309L18.4263 59.7832L19.6089 59.7829L19.61 64.0691C19.6102 64.657 19.763 65.1286 20.0684 65.484C20.3784 65.8394 20.8091 66.017 21.3605 66.0168C21.7616 66.0167 22.0965 65.9187 22.3653 65.7226C22.6342 65.5266 22.8369 65.2645 22.9735 64.9363C23.0692 64.6902 23.1169 64.4008 23.1169 64.0681L23.1157 59.782L24.3052 59.7817L24.3071 67.0209L23.1928 67.0212L23.138 66.3445ZM28.6733 59.5686C29.0242 59.5685 29.3523 59.639 29.6577 59.7802C29.9631 59.9169 30.2229 60.0945 30.4371 60.3132L30.4363 57.0183L31.6189 57.018L31.6216 67.019L30.5073 67.0193L30.4593 66.404C30.1085 66.9237 29.5549 67.1836 28.7984 67.1838C28.4201 67.1839 28.0715 67.127 27.7524 67.0132C27.4334 66.8993 27.1576 66.7399 26.9251 66.5349C26.6972 66.3299 26.5012 66.0998 26.3371 65.8446C26.1729 65.5849 26.0407 65.2978 25.9403 64.9834C25.7853 64.5186 25.7077 63.9945 25.7075 63.4112C25.7073 62.5453 25.8643 61.8024 26.1786 61.1825C26.4929 60.5581 26.9394 60.1068 27.5181 59.8287C27.878 59.6554 28.2631 59.5687 28.6733 59.5686ZM30.4378 62.6921C30.4377 62.2501 30.3396 61.865 30.1435 61.5369C29.952 61.2089 29.699 60.9697 29.3845 60.8194C29.1886 60.7237 28.9926 60.6759 28.7966 60.676C28.5596 60.676 28.3409 60.7194 28.1404 60.806C27.9445 60.8881 27.7781 61.0066 27.6415 61.1616C27.5048 61.3121 27.3886 61.4762 27.293 61.6539C27.2019 61.8317 27.1267 62.0277 27.0675 62.2419C26.9719 62.5837 26.9242 62.9733 26.9243 63.4108C26.9245 64.0033 27.0249 64.516 27.2255 64.9489C27.4261 65.3817 27.7156 65.6961 28.0939 65.892C28.3218 66.0059 28.5634 66.0628 28.8186 66.0627C29.1786 66.0626 29.4839 65.9645 29.7345 65.7685C29.9851 65.5679 30.1742 65.3104 30.3017 64.9959C30.3928 64.7589 30.4383 64.4854 30.4382 64.1755L30.4378 62.6921ZM34.3605 58.6716C34.2056 58.8721 33.996 58.9724 33.7317 58.9725C33.4674 58.9726 33.2554 58.8724 33.0959 58.6719C32.9409 58.4714 32.8633 58.2299 32.8633 57.9473C32.8632 57.7423 32.911 57.5577 33.0067 57.3936C33.1023 57.2249 33.2253 57.0996 33.3757 57.0175C33.4805 56.9537 33.599 56.9218 33.7312 56.9217C33.9955 56.9217 34.2051 57.0219 34.3601 57.2223C34.5197 57.4228 34.5995 57.6643 34.5996 57.9469C34.5997 58.2294 34.52 58.471 34.3605 58.6716ZM34.3354 67.0182L33.1528 67.0186L33.1509 59.793L34.3335 59.7927L34.3354 67.0182ZM39.3521 63.6331L35.1685 63.5864L35.1682 62.6704L39.3518 62.6897L39.3521 63.6331ZM47.5346 63.3848C47.5349 64.2279 47.3733 64.9526 47.0499 65.5588C46.7265 66.165 46.2731 66.6072 45.6899 66.8853C45.3117 67.0631 44.897 67.1521 44.4458 67.1522C44.0676 67.1524 43.7189 67.0955 43.3999 66.9816C43.0808 66.8632 42.8051 66.6992 42.5726 66.4897C42.3447 66.2801 42.1486 66.0454 41.9845 65.7857C41.8204 65.526 41.6859 65.2412 41.581 64.9313C41.4304 64.4665 41.3551 63.9516 41.355 63.3865C41.3547 62.5251 41.514 61.7891 41.8329 61.1783C42.1517 60.5676 42.6073 60.1277 43.1997 59.8586C43.5779 59.6899 43.9926 59.6055 44.4438 59.6054C44.8266 59.6053 45.1775 59.6621 45.4966 59.776C45.8156 59.8853 46.0891 60.0424 46.317 60.2475C46.5495 60.4479 46.7455 60.678 46.9051 60.9377C47.0692 61.1929 47.2037 61.48 47.3086 61.7989C47.4591 62.2637 47.5345 62.7924 47.5346 63.3848ZM46.3178 63.3851C46.3177 62.779 46.2264 62.2595 46.044 61.8266C45.8616 61.3892 45.5858 61.0748 45.2166 60.8835C44.9841 60.7605 44.7266 60.699 44.4441 60.6991C44.2481 60.6992 44.0658 60.7266 43.8972 60.7813C43.7286 60.836 43.5805 60.9113 43.4529 61.007C43.3299 61.0982 43.2183 61.2121 43.1181 61.3489C43.0179 61.4811 42.9359 61.6201 42.8721 61.766C42.8083 61.9118 42.7514 62.0736 42.7013 62.2513C42.6148 62.5841 42.5716 62.9623 42.5718 63.3861C42.5719 63.974 42.6632 64.4844 42.8456 64.9173C43.0326 65.3502 43.3084 65.6646 43.673 65.8605C43.9009 65.988 44.1584 66.0517 44.4455 66.0517C44.687 66.0516 44.9058 66.0105 45.1017 65.9284C45.3022 65.8418 45.4708 65.7233 45.6075 65.5728C45.7487 65.4224 45.8649 65.2583 45.956 65.0806C46.0516 64.9028 46.1291 64.7045 46.1883 64.4858C46.2748 64.1576 46.318 63.7907 46.3178 63.3851ZM52.3677 63.6296L48.1841 63.5829L48.1839 62.6669L52.3675 62.6863L52.3677 63.6296ZM59.0196 65.6444C59.3748 64.66 59.8917 63.2174 60.5702 61.3169C61.2487 59.4163 61.7565 58.0011 62.0935 57.0713L63.6863 57.0709L63.6889 67.0104L62.5473 67.0107L62.5454 59.8535L62.552 58.9921C62.1877 60.045 61.6549 61.5376 60.9536 63.4701C60.2523 65.4026 59.8265 66.583 59.6762 67.0114L58.3774 67.0118C58.236 66.6199 57.8119 65.4488 57.105 63.4985C56.4026 61.5481 55.8668 60.0466 55.4973 58.994L55.5112 59.8553L55.5132 67.0126L54.3716 67.0129L54.3689 57.0734L55.9548 57.073L59.0196 65.6444ZM67.8777 60.6176C67.1211 60.6179 66.6541 61.0008 66.4766 61.7665L65.2939 61.4455C65.4897 60.8667 65.8109 60.4063 66.2574 60.0644C66.7039 59.7225 67.2712 59.5514 67.9594 59.5512C68.3969 59.5511 68.7911 59.6239 69.1421 59.7697C69.4976 59.9108 69.7916 60.1044 70.0241 60.3505C70.2565 60.5919 70.4412 60.8813 70.578 61.2185C70.7331 61.5921 70.8106 62.0342 70.8108 62.5446L70.812 67.0085L69.6499 67.0088L69.595 66.2773C69.0528 66.8608 68.3693 67.1527 67.5444 67.1529C66.9702 67.153 66.4757 67.0347 66.0609 66.7978C65.6507 66.5564 65.3499 66.2284 65.1583 65.8137C65.0307 65.5312 64.9668 65.219 64.9667 64.8772C64.9666 64.5628 65.0167 64.2756 65.1168 64.0159C65.217 63.7515 65.356 63.5259 65.5337 63.339C65.7113 63.1475 65.9095 62.988 66.1283 62.8603C66.3515 62.7281 66.593 62.6232 66.8528 62.5457C67.2173 62.4362 67.591 62.3814 67.9738 62.3813C68.5572 62.3811 69.0813 62.4995 69.5462 62.7363L69.5461 62.5313C69.546 61.9206 69.4091 61.4489 69.1356 61.1163C68.8621 60.7837 68.4428 60.6175 67.8777 60.6176ZM68.0083 63.4477C67.4751 63.4478 67.0467 63.5642 66.7232 63.7967C66.4043 64.0246 66.2449 64.3733 66.245 64.8427C66.2452 65.6539 66.7626 66.0594 67.7971 66.0591C68.1981 66.059 68.5376 65.9655 68.8156 65.7785C69.0981 65.587 69.3008 65.3341 69.4238 65.0196C69.5057 64.8054 69.5467 64.5752 69.5466 64.3291L69.5465 63.8369C69.1864 63.5773 68.6737 63.4475 68.0083 63.4477ZM74.6948 67.1373C74.2619 67.1374 73.895 67.06 73.5942 66.9052C73.2934 66.7503 73.0632 66.5202 72.9036 66.2149C72.7485 65.9051 72.671 65.5268 72.6708 65.0802L72.6697 60.883L71.7264 60.8832L71.7261 59.81L72.6694 59.8097L72.6689 57.8546L73.8515 57.8543L73.852 59.8094L75.6977 59.8089L75.698 60.8822L73.8523 60.8827L73.8535 65.0799C73.8535 65.3898 73.9516 65.6222 74.1476 65.7771C74.3436 65.932 74.592 66.0094 74.8928 66.0093C74.9702 66.0093 75.05 66.0047 75.132 65.9956C75.2186 65.9819 75.3029 65.9636 75.3849 65.9408C75.4715 65.918 75.5558 65.8907 75.6378 65.8587L75.9799 66.9319C75.5242 67.0687 75.0959 67.1372 74.6948 67.1373Z" fill="#4100CC" />
    <path d="M34.8074 38.2068L61.9158 36.5168L62.6912 36.4685L62.6156 35.6953L60.0099 9.03864L59.9278 8.19869L59.1033 8.37891L15.2694 17.9602L14.5386 18.1199L14.6965 18.8512L18.9034 38.3309L19.0292 38.9135L19.6252 38.9225L29.1878 39.0671L30.5155 42.7658L31.0368 44.2181L31.8568 42.9109L34.8074 38.2068Z" stroke="#4100CC" stroke-width="1.5" />
</svg>
