<svg width="80" height="80" viewBox="0 0 80 80" fill="none" xmlns="http://www.w3.org/2000/svg">
    <path d="M10.886 59.047C10.4483 58.327 9.79198 57.9672 8.91698 57.9674C8.47492 57.9676 8.09669 58.0474 7.78228 58.207C7.46787 58.362 7.24234 58.5877 7.1057 58.8839C7.02372 59.0617 6.98275 59.2485 6.9828 59.4445C6.98284 59.5676 6.99654 59.686 7.02391 59.8C7.05129 59.9093 7.08549 60.0096 7.12653 60.1007C7.16757 60.1873 7.22456 60.2739 7.2975 60.3604C7.375 60.4425 7.44566 60.5131 7.50947 60.5723C7.57785 60.6315 7.66673 60.693 7.77612 60.7568C7.88551 60.816 7.97667 60.8661 8.0496 60.9071C8.12709 60.9436 8.22964 60.9868 8.35725 61.0369C8.48943 61.087 8.59198 61.1257 8.6649 61.153C8.73782 61.1758 8.84265 61.21 8.97938 61.2555C9.11611 61.301 9.2141 61.3329 9.27335 61.3511C9.54226 61.4468 9.76103 61.5265 9.92967 61.5902C10.1029 61.654 10.3057 61.7405 10.5381 61.8498C10.7751 61.9591 10.9711 62.0684 11.1261 62.1778C11.2856 62.2826 11.4429 62.4147 11.5979 62.5741C11.7574 62.729 11.8897 62.8976 11.9945 63.0799C12.1723 63.3852 12.2613 63.7634 12.2614 64.2146C12.2615 64.6612 12.1682 65.0645 11.9815 65.4246C11.7947 65.7847 11.551 66.0947 11.2503 66.3545C10.9359 66.6189 10.5623 66.8309 10.1294 66.9905C9.69646 67.1456 9.2248 67.2232 8.71438 67.2233C8.39081 67.2234 8.08091 67.1916 7.78467 67.1279C7.49298 67.0687 7.22636 66.9845 6.98479 66.8752C6.74323 66.7613 6.52216 66.6315 6.3216 66.4857C6.1256 66.3354 5.94554 66.1668 5.78143 65.98C5.5535 65.7248 5.37113 65.4401 5.23433 65.1256L6.38945 64.5511C6.50351 65.0342 6.76337 65.4123 7.16905 65.6857C7.57927 65.9544 8.08289 66.0887 8.6799 66.0886C9.1812 66.0885 9.61639 65.9904 9.98548 65.7943C10.3591 65.5937 10.6348 65.3202 10.8124 64.9738C10.9217 64.755 10.9764 64.5225 10.9763 64.2765C10.9762 64.1306 10.9557 63.9939 10.9147 63.8663C10.8736 63.7387 10.8257 63.6294 10.771 63.5382C10.7163 63.4425 10.6365 63.3514 10.5317 63.2649C10.4268 63.1737 10.3334 63.1031 10.2513 63.053C10.1693 62.9983 10.0554 62.9391 9.9095 62.8754C9.76365 62.807 9.64971 62.7569 9.56767 62.7251C9.48563 62.6932 9.36713 62.6499 9.21216 62.5953C9.18026 62.5862 9.15747 62.5793 9.1438 62.5748C9.04353 62.5338 8.88856 62.4792 8.67891 62.4109C8.47381 62.338 8.31657 62.2833 8.20719 62.2469C8.0978 62.2059 7.94967 62.149 7.76281 62.0761C7.58049 62.0033 7.43237 61.9395 7.31842 61.8849C7.20903 61.8256 7.07913 61.7528 6.92871 61.6662C6.7783 61.5797 6.65295 61.4931 6.55267 61.4065C6.45238 61.3154 6.34981 61.2129 6.24497 61.099C6.14012 60.9805 6.04894 60.8575 5.97143 60.7299C5.78905 60.4155 5.6978 60.0282 5.69768 59.5679C5.69748 58.8114 5.99581 58.1733 6.59268 57.6536C6.87516 57.412 7.21235 57.2228 7.60424 57.0859C7.99613 56.9446 8.42678 56.8738 8.89618 56.8737C9.58889 56.8735 10.195 57.0192 10.7147 57.3107C11.2343 57.6022 11.6628 57.9918 12.0001 58.4793L10.886 59.047ZM16.0083 67.153C15.5754 67.1531 15.2085 67.0758 14.9077 66.9209C14.6068 66.766 14.3766 66.536 14.217 66.2307C14.062 65.9208 13.9844 65.5426 13.9843 65.096L13.9832 60.8987L13.0398 60.8989L13.0395 59.8257L13.9829 59.8255L13.9824 57.8704L15.165 57.8701L15.1655 59.8251L17.0112 59.8246L17.0115 60.8979L15.1658 60.8984L15.1669 65.0956C15.167 65.4055 15.2651 65.6379 15.4611 65.7928C15.6571 65.9477 15.9055 66.0251 16.2062 66.025C16.2837 66.025 16.3635 66.0205 16.4455 66.0113C16.5321 65.9976 16.6164 65.9794 16.6984 65.9566C16.785 65.9337 16.8693 65.9064 16.9513 65.8745L17.2934 66.9476C16.8377 67.0845 16.4093 67.1529 16.0083 67.153ZM23.1311 66.3445C22.6756 66.9052 22.0444 67.1856 21.2378 67.1858C20.6043 67.186 20.0711 67.0403 19.6381 66.7487C19.2051 66.4572 18.8814 66.0562 18.6671 65.5459C18.5029 65.1585 18.4207 64.6869 18.4206 64.1309L18.4194 59.7832L19.602 59.7829L19.6032 64.0691C19.6033 64.657 19.7561 65.1286 20.0616 65.484C20.3716 65.8394 20.8023 66.017 21.3537 66.0168C21.7547 66.0167 22.0897 65.9187 22.3585 65.7226C22.6273 65.5266 22.8301 65.2645 22.9667 64.9363C23.0623 64.6902 23.1101 64.4008 23.11 64.0681L23.1089 59.782L24.2983 59.7817L24.3003 67.0209L23.186 67.0212L23.1311 66.3445ZM28.6664 59.5686C29.0173 59.5685 29.3455 59.639 29.6509 59.7802C29.9562 59.9169 30.2161 60.0945 30.4303 60.3132L30.4294 57.0183L31.612 57.018L31.6147 67.019L30.5005 67.0193L30.4524 66.404C30.1017 66.9237 29.548 67.1836 28.7915 67.1838C28.4133 67.1839 28.0646 67.127 27.7456 67.0132C27.4265 66.8993 27.1508 66.7399 26.9183 66.5349C26.6904 66.3299 26.4944 66.0998 26.3302 65.8446C26.1661 65.5849 26.0339 65.2978 25.9335 64.9834C25.7784 64.5186 25.7008 63.9945 25.7007 63.4112C25.7004 62.5453 25.8575 61.8024 26.1717 61.1825C26.486 60.5581 26.9325 60.1068 27.5112 59.8287C27.8712 59.6554 28.2563 59.5687 28.6664 59.5686ZM30.4309 62.6921C30.4308 62.2501 30.3327 61.865 30.1367 61.5369C29.9452 61.2089 29.6922 60.9697 29.3777 60.8194C29.1817 60.7237 28.9857 60.6759 28.7898 60.676C28.5528 60.676 28.3341 60.7194 28.1336 60.806C27.9376 60.8881 27.7713 61.0067 27.6346 61.1616C27.498 61.3121 27.3818 61.4762 27.2861 61.6539C27.195 61.8317 27.1199 62.0277 27.0607 62.2419C26.9651 62.5837 26.9173 62.9734 26.9175 63.4109C26.9176 64.0033 27.018 64.516 27.2187 64.9489C27.4193 65.3817 27.7088 65.6961 28.0871 65.892C28.315 66.0059 28.5565 66.0628 28.8117 66.0627C29.1718 66.0626 29.4771 65.9645 29.7277 65.7685C29.9783 65.5679 30.1673 65.3104 30.2948 64.9959C30.3859 64.7589 30.4314 64.4854 30.4313 64.1755L30.4309 62.6921ZM34.3537 58.6716C34.1988 58.8721 33.9892 58.9724 33.7249 58.9725C33.4605 58.9726 33.2486 58.8724 33.089 58.6719C32.934 58.4714 32.8565 58.2299 32.8564 57.9473C32.8564 57.7423 32.9042 57.5577 32.9998 57.3936C33.0955 57.225 33.2185 57.0996 33.3689 57.0175C33.4737 56.9537 33.5922 56.9218 33.7243 56.9217C33.9886 56.9217 34.1983 57.0219 34.3533 57.2223C34.5129 57.4228 34.5927 57.6643 34.5928 57.9469C34.5928 58.2294 34.5131 58.471 34.3537 58.6716ZM34.3286 67.0182L33.146 67.0186L33.144 59.793L34.3266 59.7927L34.3286 67.0182ZM39.3453 63.6331L35.1616 63.5864L35.1614 62.6704L39.345 62.6897L39.3453 63.6331ZM47.5278 63.3848C47.528 64.2279 47.3664 64.9526 47.043 65.5588C46.7196 66.165 46.2663 66.6072 45.683 66.8853C45.3048 67.0632 44.8901 67.1521 44.439 67.1523C44.0607 67.1524 43.7121 67.0955 43.393 66.9816C43.074 66.8632 42.7982 66.6992 42.5657 66.4897C42.3378 66.2801 42.1418 66.0454 41.9777 65.7857C41.8135 65.526 41.679 65.2412 41.5741 64.9313C41.4236 64.4665 41.3483 63.9516 41.3481 63.3865C41.3479 62.5251 41.5072 61.7891 41.826 61.1783C42.1449 60.5676 42.6005 60.1277 43.1929 59.8586C43.5711 59.6899 43.9858 59.6055 44.4369 59.6054C44.8198 59.6053 45.1707 59.6621 45.4897 59.776C45.8088 59.8853 46.0822 60.0424 46.3102 60.2475C46.5426 60.4479 46.7387 60.678 46.8982 60.9377C47.0624 61.1929 47.1969 61.48 47.3018 61.7989C47.4523 62.2637 47.5276 62.7924 47.5278 63.3848ZM46.311 63.3851C46.3108 62.779 46.2196 62.2595 46.0372 61.8266C45.8547 61.3892 45.5789 61.0748 45.2098 60.8835C44.9773 60.7605 44.7198 60.6991 44.4372 60.6991C44.2413 60.6992 44.059 60.7266 43.8904 60.7813C43.7218 60.836 43.5737 60.9113 43.4461 61.007C43.3231 61.0982 43.2115 61.2121 43.1112 61.3489C43.011 61.4811 42.929 61.6201 42.8653 61.766C42.8015 61.9118 42.7446 62.0736 42.6945 62.2514C42.608 62.5841 42.5648 62.9623 42.5649 63.3862C42.5651 63.974 42.6564 64.4844 42.8388 64.9173C43.0257 65.3502 43.3015 65.6646 43.6662 65.8605C43.8941 65.988 44.1516 66.0517 44.4387 66.0517C44.6802 66.0516 44.899 66.0105 45.0949 65.9284C45.2954 65.8418 45.464 65.7233 45.6007 65.5728C45.7419 65.4224 45.8581 65.2583 45.9492 65.0806C46.0448 64.9028 46.1222 64.7045 46.1814 64.4858C46.2679 64.1576 46.3111 63.7907 46.311 63.3851ZM52.3609 63.6296L48.1773 63.5829L48.177 62.6669L52.3606 62.6863L52.3609 63.6296ZM55.5387 60.4227C55.6617 60.2632 55.7984 60.1241 55.9488 60.0056C56.0991 59.8871 56.2791 59.7868 56.4887 59.7047C56.7029 59.6226 56.9262 59.5815 57.1586 59.5815C57.6098 59.5813 58.004 59.6883 58.3413 59.9024C58.6832 60.1165 58.959 60.399 59.1687 60.7499C59.3828 60.3943 59.6607 60.1117 60.0025 59.902C60.3488 59.6877 60.7498 59.5805 61.2055 59.5804C61.5017 59.5803 61.7752 59.6258 62.0258 59.7169C62.2765 59.808 62.4953 59.9355 62.6822 60.0995C62.8691 60.259 63.0286 60.4389 63.1609 60.6394C63.2931 60.8399 63.4048 61.0609 63.496 61.3024C63.6374 61.6852 63.7081 62.1295 63.7083 62.6354L63.7094 66.9694L62.5268 66.9697L62.5257 62.6835C62.5255 62.1093 62.4069 61.6445 62.1698 61.2891C61.9327 60.9291 61.5681 60.7492 61.0759 60.7494C60.5974 60.7495 60.2374 60.925 59.996 61.276C59.7545 61.627 59.6339 62.0805 59.6341 62.6365L59.6352 66.9704L58.4526 66.9708L58.4514 62.6846C58.4513 62.1104 58.3327 61.6456 58.0956 61.2902C57.8585 60.9302 57.4939 60.7503 57.0017 60.7504C56.5186 60.7506 56.1564 60.933 55.9149 61.2976C55.6781 61.6577 55.5597 62.1203 55.5598 62.6854L55.561 66.9715L54.3784 66.9719L54.3764 59.7394L55.4907 59.7391L55.5387 60.4227ZM67.8845 60.6176C67.128 60.6179 66.661 61.0008 66.4834 61.7665L65.3007 61.4455C65.4965 60.8667 65.8177 60.4063 66.2642 60.0644C66.7107 59.7225 67.2781 59.5514 67.9662 59.5512C68.4037 59.5511 68.798 59.6239 69.1489 59.7697C69.5044 59.9108 69.7984 60.1044 70.0309 60.3505C70.2634 60.5919 70.448 60.8813 70.5848 61.2185C70.7399 61.5921 70.8175 62.0342 70.8176 62.5446L70.8188 67.0085L69.6567 67.0088L69.6018 66.2773C69.0597 66.8608 68.3761 67.1527 67.5513 67.1529C66.9771 67.153 66.4826 67.0347 66.0678 66.7978C65.6576 66.5564 65.3567 66.2284 65.1652 65.8137C65.0375 65.5312 64.9736 65.219 64.9735 64.8772C64.9734 64.5628 65.0235 64.2756 65.1237 64.0158C65.2239 63.7515 65.3628 63.5259 65.5405 63.339C65.7182 63.1475 65.9164 62.988 66.1351 62.8603C66.3584 62.7281 66.5999 62.6232 66.8596 62.5457C67.2242 62.4362 67.5978 62.3814 67.9807 62.3813C68.564 62.3811 69.0881 62.4995 69.553 62.7363L69.553 62.5313C69.5528 61.9206 69.416 61.4489 69.1424 61.1163C68.8689 60.7837 68.4496 60.6175 67.8845 60.6176ZM68.0151 63.4477C67.4819 63.4478 67.0536 63.5642 66.7301 63.7967C66.4111 64.0246 66.2517 64.3733 66.2518 64.8427C66.252 65.6539 66.7694 66.0594 67.8039 66.0591C68.205 66.059 68.5444 65.9655 68.8224 65.7785C69.1049 65.587 69.3076 65.3341 69.4306 65.0196C69.5126 64.8054 69.5535 64.5752 69.5534 64.3291L69.5533 63.8369C69.1932 63.5773 68.6805 63.4475 68.0151 63.4477ZM74.7017 67.1373C74.2687 67.1374 73.9018 67.06 73.601 66.9052C73.3002 66.7503 73.07 66.5202 72.9104 66.2149C72.7554 65.9051 72.6778 65.5268 72.6777 65.0802L72.6765 60.883L71.7332 60.8832L71.7329 59.81L72.6763 59.8097L72.6757 57.8546L73.8584 57.8543L73.8589 59.8094L75.7046 59.8089L75.7049 60.8822L73.8592 60.8826L73.8603 65.0799C73.8604 65.3898 73.9584 65.6222 74.1544 65.7771C74.3504 65.932 74.5988 66.0094 74.8996 66.0093C74.9771 66.0093 75.0568 66.0047 75.1389 65.9956C75.2254 65.9819 75.3097 65.9636 75.3918 65.9408C75.4784 65.918 75.5627 65.8907 75.6447 65.8587L75.9868 66.9319C75.5311 67.0687 75.1027 67.1372 74.7017 67.1373Z" fill="#4100CC"/>
    <path d="M30.5155 42.7658L31.0368 44.2181L31.8568 42.9109L34.8074 38.2068L61.9158 36.5168L62.6912 36.4685L62.6156 35.6953L60.0099 9.03864L59.9278 8.19869L59.1033 8.37891L15.2694 17.9602L14.5386 18.1199L14.6965 18.8512L18.9034 38.3309L19.0292 38.9135L19.6252 38.9225L29.1878 39.0671L30.5155 42.7658Z" stroke="#4100CC" stroke-width="1.5"/>
    </svg>
