<svg width="80" height="80" viewBox="0 0 80 80" fill="none" xmlns="http://www.w3.org/2000/svg">
    <path d="M33.9998 30.0034L33.9987 25.8923L40.9121 25.8905M40.9121 25.8905L40.9097 17.0016M40.9121 25.8905L48.9987 25.8883L48.9998 29.9994" stroke="#4100CC" stroke-width="1.5"/>
    <rect x="28.7502" y="30.7547" width="9.5" height="6.5" transform="rotate(-0.0153521 28.7502 30.7547)" stroke="#4100CC" stroke-width="1.5"/>
    <rect x="43.7502" y="30.7508" width="10.5" height="10.5" transform="rotate(-0.0153521 43.7502 30.7508)" stroke="#4100CC" stroke-width="1.5"/>
    <rect x="36.7443" y="9.75273" width="9.5" height="6.5" transform="rotate(-0.0153521 36.7443 9.75273)" stroke="#4100CC" stroke-width="1.5"/>
    <path d="M13.5984 49.0476L15.5556 57.2502L17.5359 49.0466L18.8962 49.0462L20.874 57.2488C21.4294 54.847 22.0416 52.2355 22.7108 49.4143C22.7426 49.2731 22.77 49.15 22.7927 49.0452L24.1667 49.0448C24.0666 49.4094 23.2585 52.4516 21.7424 58.1714C21.665 58.4631 21.5876 58.7457 21.5102 59.0192L20.1977 59.0195L18.6511 52.7719L18.1994 50.7691C18.0128 51.594 17.8102 52.4645 17.5917 53.3806C17.3732 54.2921 17.1251 55.3107 16.8474 56.4364C16.5743 57.5576 16.3649 58.419 16.2192 59.0206L14.9204 59.0209C14.6376 58.0275 14.3593 57.0273 14.0856 56.0202C13.8164 55.0131 13.4743 53.7257 13.0592 52.1581C12.6486 50.586 12.3772 49.5493 12.2449 49.048L13.5984 49.0476ZM28.1599 52.6258C27.4034 52.626 26.9363 53.0089 26.7588 53.7746L25.5761 53.4536C25.7719 52.8748 26.0931 52.4144 26.5396 52.0725C26.9861 51.7306 27.5535 51.5595 28.2416 51.5593C28.6791 51.5592 29.0734 51.632 29.4243 51.7778C29.7798 51.919 30.0738 52.1126 30.3063 52.3586C30.5388 52.6001 30.7234 52.8894 30.8602 53.2266C31.0153 53.6003 31.0929 54.0423 31.093 54.5527L31.0942 59.0166L29.9321 59.0169L29.8772 58.2855C29.3351 58.8689 28.6515 59.1608 27.8267 59.161C27.2525 59.1612 26.758 59.0428 26.3432 58.8059C25.933 58.5645 25.6321 58.2365 25.4406 57.8218C25.3129 57.5393 25.249 57.2271 25.2489 56.8853C25.2488 56.5709 25.2989 56.2838 25.3991 56.024C25.4993 55.7596 25.6382 55.534 25.8159 55.3471C25.9936 55.1557 26.1918 54.9961 26.4105 54.8684C26.6338 54.7362 26.8753 54.6313 27.135 54.5538C27.4996 54.4443 27.8732 54.3895 28.2561 54.3894C28.8394 54.3893 29.3635 54.5076 29.8284 54.7445L29.8284 54.5394C29.8282 53.9287 29.6914 53.4571 29.4178 53.1245C29.1443 52.7919 28.725 52.6256 28.1599 52.6258ZM28.2905 55.4558C27.7573 55.456 27.329 55.5723 27.0055 55.8048C26.6865 56.0327 26.5271 56.3814 26.5272 56.8508C26.5274 57.662 27.0448 58.0675 28.0793 58.0672C28.4803 58.0671 28.8198 57.9736 29.0978 57.7867C29.3803 57.5952 29.583 57.3422 29.706 57.0277C29.788 56.8135 29.8289 56.5833 29.8288 56.3372L29.8287 55.8451C29.4686 55.5854 28.9559 55.4556 28.2905 55.4558ZM36.5205 53.4917C36.2195 52.9768 35.7364 52.7194 35.071 52.7196C34.4102 52.7198 33.9819 52.9022 33.786 53.2668C33.7268 53.3717 33.6972 53.4811 33.6972 53.595C33.6973 53.6816 33.7064 53.7613 33.7247 53.8342C33.7475 53.9072 33.7862 53.9755 33.8409 54.0393C33.9002 54.0985 33.9458 54.1464 33.9777 54.1828C34.0141 54.2147 34.0825 54.2557 34.1828 54.3058C34.2831 54.3513 34.3469 54.381 34.3742 54.3946C34.4016 54.4037 34.4722 54.431 34.5862 54.4766C34.6591 54.5039 34.7639 54.5403 34.9006 54.5859C35.0419 54.6314 35.1354 54.661 35.1809 54.6747L35.3245 54.7225C35.5752 54.8045 35.7734 54.8728 35.9193 54.9274C36.0651 54.9821 36.2452 55.0595 36.4594 55.1597C36.6782 55.2599 36.8536 55.3601 36.9858 55.4603C37.1226 55.5605 37.2571 55.6881 37.3893 55.843C37.5215 55.9934 37.6218 56.1574 37.6902 56.3351C37.7631 56.522 37.7997 56.7316 37.7997 56.964C37.7999 57.5884 37.5197 58.1171 36.9593 58.5502C36.7907 58.6778 36.6016 58.7895 36.392 58.8853C36.187 58.981 35.9546 59.0563 35.6948 59.1111C35.4396 59.1658 35.1753 59.1932 34.9019 59.1933C33.8765 59.1936 33.072 58.8634 32.4885 58.2027C32.3062 57.9932 32.1626 57.7539 32.0577 57.4851L33.2128 56.9242C33.2858 57.2842 33.4704 57.5645 33.7667 57.7649C34.063 57.9608 34.4367 58.0587 34.8879 58.0585C35.2388 58.0584 35.5487 58.0014 35.8175 57.8874C36.0864 57.7734 36.2846 57.6093 36.4121 57.395C36.4941 57.2629 36.5351 57.1193 36.5351 56.9643C36.535 56.8231 36.5008 56.6978 36.4324 56.5884C36.3686 56.4745 36.2934 56.3856 36.2068 56.3219C36.1247 56.2581 36.0199 56.1966 35.8923 56.1374C35.7008 56.0508 35.457 55.962 35.1607 55.871C34.8691 55.7799 34.607 55.7048 34.3746 55.6456C34.1467 55.5819 33.9051 55.493 33.6499 55.3792C33.3946 55.2653 33.1827 55.1401 33.014 55.0034C32.8454 54.8667 32.704 54.6776 32.5901 54.4361C32.4806 54.1946 32.4258 53.9143 32.4258 53.5953C32.4256 53.0621 32.6739 52.6018 33.1705 52.2143C33.6899 51.8131 34.3142 51.6124 35.0434 51.6122C35.6267 51.6121 36.1349 51.7372 36.5679 51.9878C37.0055 52.2383 37.361 52.5777 37.6346 53.006L36.5205 53.4917ZM48.2847 51.7864L49.8311 57.4598L51.2788 51.7856L52.564 51.7852L50.4536 59.0114L49.2094 59.0117L47.7109 53.4545L46.2358 59.0125L44.9917 59.0129L42.8706 51.7878L44.1626 51.7875L45.6133 57.4609L47.1567 51.7867L48.2847 51.7864ZM54.9904 50.6635C54.8355 50.8641 54.6259 50.9644 54.3616 50.9645C54.0973 50.9645 53.8853 50.8643 53.7258 50.6638C53.5708 50.4634 53.4932 50.2218 53.4931 49.9393C53.4931 49.7342 53.5409 49.5496 53.6366 49.3855C53.7322 49.2169 53.8552 49.0915 54.0056 49.0095C54.1104 48.9456 54.2289 48.9137 54.361 48.9137C54.6254 48.9136 54.835 49.0138 54.99 49.2143C55.1496 49.4148 55.2294 49.6563 55.2295 49.9388C55.2295 50.2214 55.1499 50.4629 54.9904 50.6635ZM54.9653 59.0102L53.7827 59.0105L53.7807 51.7849L54.9634 51.7846L54.9653 59.0102ZM60.036 53.1709C59.7671 52.9523 59.4731 52.843 59.1541 52.8431C58.671 52.8432 58.3087 53.0256 58.0673 53.3902C57.8304 53.7503 57.7121 54.2129 57.7122 54.778L57.7133 58.9958L56.5307 58.9961L56.5288 51.7637L57.643 51.7634L57.6911 52.447C57.8141 52.2874 57.9553 52.1461 58.1148 52.023C58.2788 51.8999 58.4679 51.7996 58.6821 51.7221C58.9008 51.6446 59.1264 51.6058 59.3588 51.6057C59.8237 51.6056 60.2658 51.7581 60.6851 52.0633L60.036 53.1709ZM64.8207 51.5564C65.1716 51.5563 65.4998 51.6268 65.8052 51.768C66.1105 51.9047 66.3703 52.0823 66.5846 52.301L66.5837 49.0061L67.7663 49.0058L67.769 59.0068L66.6548 59.0071L66.6067 58.3918C66.256 58.9115 65.7023 59.1714 64.9458 59.1716C64.5676 59.1717 64.2189 59.1148 63.8999 59.001C63.5808 58.8871 63.3051 58.7277 63.0726 58.5227C62.8447 58.3177 62.6486 58.0876 62.4845 57.8324C62.3204 57.5727 62.1881 57.2856 62.0878 56.9712C61.9327 56.5064 61.8551 55.9823 61.855 55.399C61.8547 54.5331 62.0118 53.7902 62.326 53.1703C62.6403 52.5459 63.0868 52.0946 63.6655 51.8165C64.0255 51.6432 64.4106 51.5565 64.8207 51.5564ZM66.5852 54.6799C66.5851 54.2379 66.487 53.8528 66.291 53.5247C66.0995 53.1967 65.8465 52.9575 65.532 52.8072C65.336 52.7115 65.14 52.6637 64.9441 52.6638C64.7071 52.6638 64.4884 52.7072 64.2879 52.7938C64.0919 52.8759 63.9256 52.9944 63.7889 53.1494C63.6522 53.2999 63.5361 53.464 63.4404 53.6417C63.3493 53.8195 63.2742 54.0155 63.215 54.2297C63.1194 54.5715 63.0716 54.9611 63.0718 55.3986C63.0719 55.9911 63.1723 56.5038 63.3729 56.9367C63.5736 57.3695 63.8631 57.6839 64.2414 57.8798C64.4693 57.9936 64.7108 58.0505 64.966 58.0505C65.326 58.0504 65.6314 57.9523 65.882 57.7563C66.1326 57.5557 66.3216 57.2982 66.4491 56.9837C66.5402 56.7467 66.5857 56.4732 66.5856 56.1633L66.5852 54.6799ZM16.6514 64.6171C17.0342 64.617 17.376 64.6921 17.6768 64.8424C17.9776 64.9882 18.217 65.1841 18.3948 65.4301L18.4356 64.7944L19.5499 64.7941L19.5516 71.3566C19.5518 72.2043 19.3925 72.9289 19.0737 73.5306C18.7594 74.1322 18.3106 74.5721 17.7274 74.8502C17.3446 75.0326 16.9185 75.1239 16.4491 75.124C15.1138 75.1244 14.1726 74.4843 13.6254 73.2039L14.7395 72.8686C14.89 73.2241 15.1066 73.5043 15.3892 73.7093C15.6718 73.9143 16.0181 74.0167 16.4283 74.0166C17.08 74.0164 17.5653 73.7862 17.8842 73.3258C18.2076 72.87 18.3692 72.2706 18.369 71.5278L18.369 71.2407C17.9681 71.8241 17.3803 72.116 16.6055 72.1162C15.7579 72.1164 15.0582 71.793 14.5066 71.146C13.9277 70.4672 13.638 69.5603 13.6377 68.4256C13.6375 67.5961 13.7991 66.8738 14.1225 66.2584C14.4505 65.6431 14.897 65.1918 15.462 64.9046C15.8311 64.7131 16.2275 64.6173 16.6514 64.6171ZM18.368 67.5356C18.3679 67.2576 18.3245 67.007 18.2379 66.7837C18.1512 66.5559 18.0304 66.3668 17.8754 66.2164C17.725 66.0615 17.5495 65.9431 17.349 65.8611C17.153 65.7837 16.9525 65.745 16.7474 65.745C16.5104 65.7451 16.2917 65.7862 16.0912 65.8683C15.8952 65.9458 15.7289 66.0575 15.5922 66.2034C15.4555 66.3447 15.3394 66.5019 15.2437 66.6751C15.1481 66.8438 15.0684 67.0329 15.0046 67.2426C14.9044 67.5798 14.8544 67.9741 14.8545 68.4252C14.8547 68.9903 14.9551 69.4848 15.1557 69.9086C15.3564 70.3278 15.6367 70.6353 15.9968 70.8312C16.2247 70.9542 16.4685 71.0156 16.7283 71.0156C17.0838 71.0155 17.3868 70.9151 17.6374 70.7145C17.8925 70.5139 18.0884 70.2587 18.2251 69.9487C18.3207 69.7163 18.3685 69.452 18.3684 69.1557L18.368 67.5356ZM27.0298 70.2677C26.7748 70.8602 26.4081 71.3274 25.9296 71.6693C25.4558 72.0113 24.8656 72.1823 24.1593 72.1825C23.7673 72.1826 23.4073 72.1257 23.0791 72.0119C22.751 71.8981 22.4661 71.7386 22.2245 71.5336C21.9875 71.324 21.7846 71.0894 21.6159 70.8297C21.4472 70.5654 21.3104 70.2738 21.2055 69.9548C21.0505 69.49 20.9729 68.975 20.9727 68.4099C20.9725 67.544 21.1318 66.8034 21.4506 66.1881C21.774 65.5682 22.2296 65.1192 22.8174 64.8411C23.1957 64.6632 23.6103 64.5743 24.0615 64.5741C24.4534 64.574 24.8112 64.6355 25.1348 64.7584C25.4584 64.8814 25.7342 65.0545 25.9621 65.2777C26.19 65.4964 26.3815 65.7425 26.5365 66.0159C26.6961 66.2893 26.8283 66.5923 26.9332 66.9249C27.0838 67.4353 27.1591 68.0163 27.1593 68.668L22.1896 68.6694C22.1989 69.3985 22.3677 69.9841 22.6959 70.4261C23.0287 70.8635 23.5232 71.0821 24.1795 71.0819C24.9861 71.0817 25.558 70.6987 25.895 69.933L27.0298 70.2677ZM25.8465 67.5951C25.6959 66.6609 25.3152 66.064 24.7044 65.8044C24.5084 65.7225 24.3011 65.6815 24.0823 65.6816C23.7041 65.6817 23.3805 65.7866 23.1117 65.9963C22.8474 66.2014 22.6402 66.4681 22.4898 66.7962C22.376 67.0332 22.3009 67.2999 22.2645 67.5961L25.8465 67.5951ZM33.502 64.7904L35.0484 70.4638L36.4961 64.7896L37.7813 64.7892L35.6709 72.0154L34.4268 72.0157L32.9282 66.4585L31.4532 72.0165L30.209 72.0168L28.0879 64.7918L29.3799 64.7915L30.8307 70.4649L32.3741 64.7907L33.502 64.7904ZM42.0808 63.5166C42.0807 63.3115 42.1467 63.1337 42.2789 62.9833C42.4155 62.8329 42.5841 62.7577 42.7847 62.7576C42.9897 62.7575 43.1584 62.8304 43.2906 62.9762C43.4228 63.122 43.4889 63.302 43.489 63.5162C43.489 63.7349 43.423 63.9173 43.2909 64.0631C43.1633 64.209 42.9947 64.282 42.7851 64.282C42.5754 64.2821 42.4045 64.2092 42.2723 64.0634C42.1447 63.9176 42.0808 63.7353 42.0808 63.5166ZM39.8249 63.5172C39.8249 63.3121 39.8909 63.1343 40.023 62.9839C40.1597 62.8335 40.3283 62.7583 40.5288 62.7582C40.7339 62.7581 40.9025 62.831 41.0347 62.9768C41.1669 63.1226 41.2331 63.3026 41.2331 63.5168C41.2332 63.7356 41.1671 63.9179 41.035 64.0637C40.9074 64.2096 40.7388 64.2826 40.5292 64.2826C40.3196 64.2827 40.1487 64.2098 40.0165 64.064C39.8888 63.9182 39.825 63.7359 39.8249 63.5172ZM41.6643 65.6222C40.9078 65.6224 40.4408 66.0053 40.2633 66.771L39.0806 66.45C39.2764 65.8712 39.5976 65.4108 40.0441 65.0689C40.4906 64.727 41.0579 64.5559 41.7461 64.5557C42.3978 64.5556 42.9424 64.7035 43.38 64.9996C43.8221 65.2957 44.1504 65.7035 44.3647 66.223C44.5197 66.5967 44.5973 67.0387 44.5975 67.5491L44.5987 72.013L43.4366 72.0133L43.3817 71.2819C42.8395 71.8653 42.156 72.1572 41.3311 72.1574C40.7569 72.1576 40.2624 72.0392 39.8476 71.8023C39.4374 71.5609 39.1365 71.2329 38.945 70.8182C38.8173 70.5357 38.7535 70.2235 38.7534 69.8817C38.7533 69.5673 38.8033 69.2801 38.9035 69.0204C39.0037 68.756 39.1427 68.5304 39.3203 68.3435C39.498 68.152 39.6962 67.9925 39.9149 67.8648C40.1382 67.7326 40.3797 67.6277 40.6395 67.5502C41.004 67.4407 41.3777 67.3859 41.7605 67.3858C42.3438 67.3856 42.868 67.504 43.3329 67.7408L43.3328 67.5358C43.3327 66.9251 43.1958 66.4535 42.9223 66.1208C42.6488 65.7882 42.2294 65.622 41.6643 65.6222ZM41.795 68.4522C41.2618 68.4523 40.8334 68.5687 40.5099 68.8012C40.191 69.0291 40.0316 69.3778 40.0317 69.8472C40.0319 70.6584 40.5493 71.0639 41.5838 71.0636C41.9848 71.0635 42.3243 70.97 42.6022 70.783C42.8847 70.5916 43.0875 70.3386 43.2104 70.0241C43.2924 69.8099 43.3334 69.5797 43.3333 69.3336L43.3332 68.8414C42.9731 68.5818 42.4603 68.452 41.795 68.4522ZM47.1535 65.3814C47.6046 64.8344 48.2288 64.5608 49.0264 64.5606C49.6644 64.5604 50.1999 64.7084 50.6329 65.0045C51.0659 65.2961 51.3896 65.697 51.6039 66.2074C51.7681 66.5947 51.8503 67.0641 51.8504 67.6155L51.8516 72.0042L50.6621 72.0045L50.661 67.65C50.6608 67.0576 50.508 66.5837 50.2026 66.2283C49.8972 65.8729 49.4687 65.6953 48.9173 65.6954C48.5162 65.6955 48.179 65.7936 47.9056 65.9896C47.6323 66.1857 47.4318 66.45 47.3043 66.7828C47.2041 67.0289 47.1541 67.3183 47.1541 67.651L47.1553 72.0054L45.9727 72.0058L45.97 62.0116L47.1526 62.0113L47.1535 65.3814ZM53.3828 72.0106L53.3802 62.0438L54.5628 62.0435L54.5655 72.0103L53.3828 72.0106ZM58.4893 72.1391C58.0564 72.1392 57.6895 72.0619 57.3887 71.907C57.0879 71.7521 56.8577 71.5221 56.6981 71.2168C56.543 70.9069 56.4655 70.5287 56.4653 70.0821L56.4642 65.8848L55.5209 65.885L55.5206 64.8118L56.4639 64.8115L56.4634 62.8565L57.646 62.8562L57.6465 64.8112L59.4922 64.8107L59.4925 65.884L57.6468 65.8845L57.648 70.0817C57.648 70.3916 57.7461 70.624 57.9421 70.7789C58.1381 70.9338 58.3865 71.0112 58.6873 71.0111C58.7647 71.0111 58.8445 71.0065 58.9265 70.9974C59.0131 70.9837 59.0974 70.9655 59.1794 70.9427C59.266 70.9198 59.3503 70.8925 59.4323 70.8606L59.7744 71.9337C59.3187 72.0705 58.8904 72.139 58.4893 72.1391ZM63.5478 71.8643C63.393 72.0603 63.1833 72.1584 62.919 72.1585C62.6547 72.1585 62.4428 72.0606 62.2832 71.8647C62.1282 71.6642 62.0507 71.4227 62.0506 71.1401C62.0505 70.9351 62.0983 70.7505 62.194 70.5864C62.2896 70.4177 62.4127 70.2924 62.563 70.2103C62.6678 70.1465 62.7863 70.1145 62.9185 70.1145C63.1828 70.1144 63.3925 70.2146 63.5475 70.4151C63.707 70.6156 63.7868 70.8571 63.7869 71.1397C63.787 71.4222 63.7073 71.6638 63.5478 71.8643ZM63.465 68.9044C63.465 68.991 63.4696 69.1118 63.4788 69.2667C63.4879 69.4216 63.4925 69.5424 63.4926 69.629L62.2074 69.6704C62.1891 69.3787 62.1799 69.1258 62.1799 68.9116C62.1796 67.9226 62.5235 67.1934 63.2115 66.7238C63.4211 66.5779 63.8198 66.3454 64.4076 66.0262C64.5625 65.9396 64.6947 65.853 64.804 65.7663C64.9179 65.6752 65.025 65.568 65.1252 65.445C65.23 65.3173 65.3074 65.1692 65.3575 65.0006C65.4122 64.8319 65.4395 64.6451 65.4394 64.44C65.4393 63.9706 65.2865 63.6106 64.9811 63.36C64.6803 63.1095 64.2815 62.9843 63.7847 62.9844C63.2606 62.9845 62.8391 63.1305 62.5202 63.4222C62.2058 63.714 61.9986 64.106 61.8984 64.5982L60.6884 64.1747C60.866 63.6414 61.1324 63.1902 61.4878 62.8209C61.8432 62.4517 62.2783 62.1895 62.7933 62.0345C63.1214 61.9296 63.4723 61.8771 63.846 61.877C64.4657 61.8768 65.0035 62.0179 65.4593 62.3003C65.9152 62.5828 66.257 62.9564 66.485 63.4212C66.6492 63.7492 66.7313 64.1184 66.7314 64.5285C66.7315 64.7108 66.7179 64.8817 66.6906 65.0412C66.6678 65.2007 66.6268 65.3466 66.5676 65.4788C66.513 65.6109 66.4538 65.7294 66.39 65.8343C66.3308 65.9391 66.251 66.0394 66.1508 66.1351C66.0506 66.2309 65.9572 66.3129 65.8706 66.3813C65.7886 66.4497 65.6815 66.5226 65.5494 66.6001C65.4218 66.6776 65.3101 66.7437 65.2145 66.7985C65.1188 66.8486 64.998 66.9125 64.8522 66.99C64.7064 67.0675 64.5879 67.1336 64.4968 67.1883C64.1733 67.3707 63.9204 67.5963 63.7382 67.8653C63.556 68.1342 63.4649 68.4806 63.465 68.9044Z" fill="#4100CC"/>
    </svg>
