<svg width="80" height="80" viewBox="0 0 80 80" fill="none" xmlns="http://www.w3.org/2000/svg">
    <path d="M11.3972 50.0487L13.3545 58.2513L15.3347 50.0476L16.6951 50.0473L18.6728 58.2498C19.2282 55.848 19.8404 53.2365 20.5096 50.4154C20.5415 50.2741 20.5688 50.151 20.5915 50.0462L21.9656 50.0458C21.8654 50.4105 21.0573 53.4527 19.5412 59.1725C19.4639 59.4642 19.3865 59.7467 19.3091 60.0202L17.9966 60.0205L16.45 53.7729L15.9982 51.7701C15.8116 52.595 15.6091 53.4655 15.3906 54.3816C15.172 55.2931 14.9239 56.3117 14.6463 57.4375C14.3731 58.5586 14.1637 59.42 14.018 60.0216L12.7192 60.022C12.4364 59.0285 12.1581 58.0283 11.8844 57.0212C11.6153 56.0141 11.2731 54.7268 10.858 53.1592C10.4474 51.587 10.176 50.5503 10.0437 50.049L11.3972 50.0487ZM29.1933 58.2675C28.9383 58.8601 28.5716 59.3273 28.0931 59.6692C27.6193 60.0111 27.0291 60.1822 26.3228 60.1824C25.9308 60.1825 25.5708 60.1256 25.2426 60.0118C24.9145 59.8979 24.6296 59.7385 24.388 59.5335C24.151 59.3239 23.9481 59.0893 23.7794 58.8295C23.6107 58.5653 23.474 58.2736 23.369 57.9546C23.214 57.4898 23.1364 56.9749 23.1362 56.4098C23.136 55.5439 23.2953 54.8033 23.6141 54.188C23.9375 53.5681 24.3931 53.1191 24.981 52.8409C25.3592 52.6631 25.7739 52.5741 26.225 52.574C26.617 52.5739 26.9747 52.6353 27.2983 52.7583C27.6219 52.8812 27.8977 53.0543 28.1256 53.2776C28.3535 53.4963 28.545 53.7423 28.7 54.0157C28.8596 54.2891 28.9918 54.5921 29.0968 54.9248C29.2473 55.4352 29.3226 56.0162 29.3228 56.6679L24.3531 56.6692C24.3624 57.3984 24.5312 57.984 24.8594 58.4259C25.1922 58.8633 25.6867 59.082 26.343 59.0818C27.1496 59.0816 27.7215 58.6986 28.0585 57.9329L29.1933 58.2675ZM28.01 55.595C27.8594 54.6608 27.4787 54.0639 26.8679 53.8043C26.6719 53.7223 26.4646 53.6814 26.2458 53.6814C25.8676 53.6815 25.544 53.7864 25.2752 53.9961C25.0109 54.2013 24.8037 54.4679 24.6534 54.7961C24.5395 55.0331 24.4644 55.2997 24.428 55.596L28.01 55.595ZM34.1551 54.1783C33.8862 53.9596 33.5922 53.8503 33.2732 53.8504C32.7901 53.8506 32.4279 54.0329 32.1865 54.3976C31.9496 54.7577 31.8312 55.2203 31.8314 55.7854L31.8325 60.0032L30.6499 60.0035L30.6479 52.7711L31.7622 52.7708L31.8102 53.4543C31.9332 53.2948 32.0745 53.1535 32.2339 53.0304C32.398 52.9073 32.5871 52.807 32.8012 52.7295C33.02 52.6519 33.2455 52.6131 33.478 52.6131C33.9428 52.6129 34.3849 52.7655 34.8043 53.0707L34.1551 54.1783ZM44.1084 54.4901C43.8074 53.9752 43.3243 53.7179 42.6589 53.718C41.9981 53.7182 41.5698 53.9006 41.3739 54.2653C41.3147 54.3701 41.2851 54.4795 41.2851 54.5934C41.2852 54.68 41.2943 54.7597 41.3125 54.8327C41.3354 54.9056 41.3741 54.9739 41.4288 55.0377C41.4881 55.0969 41.5337 55.1448 41.5656 55.1812C41.602 55.2131 41.6704 55.2541 41.7707 55.3042C41.871 55.3498 41.9348 55.3794 41.9621 55.393C41.9895 55.4021 42.0601 55.4295 42.174 55.475C42.247 55.5023 42.3518 55.5388 42.4885 55.5843C42.6298 55.6298 42.7232 55.6594 42.7688 55.6731L42.9124 55.7209C43.1631 55.8029 43.3613 55.8712 43.5072 55.9258C43.653 55.9805 43.8331 56.0579 44.0473 56.1581C44.2661 56.2583 44.4415 56.3585 44.5737 56.4587C44.7105 56.559 44.8449 56.6865 44.9771 56.8414C45.1093 56.9918 45.2097 57.1558 45.2781 57.3335C45.351 57.5204 45.3875 57.73 45.3876 57.9624C45.3878 58.5868 45.1076 59.1155 44.5472 59.5486C44.3786 59.6762 44.1895 59.7879 43.9799 59.8837C43.7749 59.9795 43.5425 60.0547 43.2827 60.1095C43.0275 60.1642 42.7632 60.1916 42.4898 60.1917C41.4644 60.192 40.6599 59.8618 40.0764 59.2011C39.8941 58.9916 39.7504 58.7523 39.6456 58.4835L40.8007 57.9226C40.8737 58.2826 41.0583 58.5629 41.3546 58.7633C41.6509 58.9592 42.0246 59.0571 42.4758 59.0569C42.8267 59.0569 43.1366 58.9998 43.4054 58.8858C43.6743 58.7718 43.8725 58.6077 44 58.3935C44.082 58.2613 44.123 58.1177 44.123 57.9628C44.1229 57.8215 44.0887 57.6962 44.0203 57.5868C43.9565 57.4729 43.8813 57.384 43.7947 57.3203C43.7126 57.2565 43.6078 57.195 43.4802 57.1358C43.2887 57.0492 43.0449 56.9604 42.7486 56.8694C42.4569 56.7783 42.1949 56.7032 41.9624 56.644C41.7346 56.5803 41.493 56.4915 41.2378 56.3776C40.9825 56.2637 40.7706 56.1385 40.6019 56.0018C40.4333 55.8651 40.2919 55.676 40.1779 55.4345C40.0685 55.193 40.0137 54.9128 40.0137 54.5937C40.0135 54.0605 40.2618 53.6002 40.7584 53.2127C41.2778 52.8115 41.9021 52.6108 42.6313 52.6106C43.2146 52.6105 43.7228 52.7357 44.1558 52.9862C44.5934 53.2367 44.9489 53.5761 45.2225 54.0045L44.1084 54.4901ZM49.2642 60.142C48.8312 60.1422 48.4643 60.0648 48.1635 59.9099C47.8627 59.755 47.6325 59.525 47.4729 59.2197C47.3179 58.9098 47.2403 58.5316 47.2402 58.085L47.2391 53.8877L46.2957 53.888L46.2954 52.8147L47.2388 52.8145L47.2382 50.8594L48.4209 50.8591L48.4214 52.8141L50.2671 52.8136L50.2674 53.8869L48.4217 53.8874L48.4228 58.0847C48.4229 58.3945 48.5209 58.6269 48.7169 58.7818C48.9129 58.9367 49.1613 59.0141 49.4621 59.0141C49.5396 59.014 49.6193 59.0095 49.7014 59.0003C49.7879 58.9866 49.8722 58.9684 49.9543 58.9456C50.0409 58.9228 50.1252 58.8954 50.2072 58.8635L50.5493 59.9366C50.0936 60.0735 49.6652 60.1419 49.2642 60.142ZM57.7129 58.2599C57.4578 58.8524 57.0911 59.3196 56.6127 59.6616C56.1388 60.0035 55.5487 60.1745 54.8423 60.1747C54.4504 60.1748 54.0903 60.118 53.7622 60.0041C53.434 59.8903 53.1491 59.7308 52.9076 59.5258C52.6705 59.3163 52.4677 59.0816 52.299 58.8219C52.1303 58.5576 51.9935 58.266 51.8886 57.947C51.7335 57.4822 51.6559 56.9672 51.6557 56.4021C51.6555 55.5363 51.8148 54.7957 52.1337 54.1803C52.4571 53.5605 52.9127 53.1114 53.5005 52.8333C53.8787 52.6555 54.2934 52.5665 54.7446 52.5664C55.1365 52.5663 55.4942 52.6277 55.8178 52.7506C56.1414 52.8736 56.4172 53.0467 56.6451 53.2699C56.8731 53.4886 57.0645 53.7347 57.2196 54.0081C57.3791 54.2815 57.5114 54.5845 57.6163 54.9171C57.7668 55.4275 57.8422 56.0086 57.8423 56.6603L52.8726 56.6616C52.8819 57.3907 53.0507 57.9763 53.3789 58.4183C53.7117 58.8557 54.2063 59.0743 54.8625 59.0741C55.6692 59.0739 56.241 58.691 56.578 57.9252L57.7129 58.2599ZM56.5295 55.5874C56.3789 54.6532 55.9982 54.0563 55.3875 53.7967C55.1915 53.7147 54.9841 53.6737 54.7654 53.6738C54.3871 53.6739 54.0636 53.7788 53.7947 53.9885C53.5305 54.1936 53.3232 54.4603 53.1729 54.7885C53.059 55.0255 52.9839 55.2921 52.9475 55.5883L56.5295 55.5874ZM60.3502 53.3783C60.8013 52.8313 61.4255 52.5577 62.2231 52.5575C62.8611 52.5573 63.3966 52.7053 63.8296 53.0014C64.2627 53.293 64.5863 53.6939 64.8007 54.2043C64.9648 54.5916 65.047 55.061 65.0471 55.6124L65.0483 60.0011L63.8589 60.0014L63.8577 55.6469C63.8575 55.0545 63.7047 54.5806 63.3993 54.2252C63.0939 53.8698 62.6654 53.6922 62.114 53.6923C61.713 53.6924 61.3757 53.7905 61.1024 53.9865C60.829 54.1826 60.6285 54.4469 60.501 54.7797C60.4008 55.0258 60.3508 55.3152 60.3509 55.6479L60.352 60.0024L59.1694 60.0027L59.1667 50.0085L60.3493 50.0082L60.3502 53.3783ZM68.9517 60.1368C68.5187 60.1369 68.1518 60.0595 67.851 59.9046C67.5502 59.7498 67.32 59.5197 67.1604 59.2144C67.0054 58.9045 66.9278 58.5263 66.9277 58.0797L66.9265 53.8824L65.9832 53.8827L65.9829 52.8094L66.9263 52.8092L66.9257 50.8541L68.1084 50.8538L68.1089 52.8089L69.9546 52.8084L69.9549 53.8816L68.1092 53.8821L68.1103 58.0794C68.1104 58.3893 68.2084 58.6217 68.4044 58.7766C68.6004 58.9315 68.8488 59.0089 69.1496 59.0088C69.2271 59.0088 69.3068 59.0042 69.3889 58.995C69.4754 58.9814 69.5597 58.9631 69.6418 58.9403C69.7284 58.9175 69.8127 58.8901 69.8947 58.8582L70.2368 59.9313C69.7811 60.0682 69.3527 60.1367 68.9517 60.1368ZM10.8685 66.8086L10.8682 65.7969L16.0362 65.7955L16.0364 66.6568L11.9978 72.0173L15.9422 72.0162L15.9424 73.0211L10.5215 73.0225L10.5213 72.1407L14.5394 66.8076L10.8685 66.8086ZM22.1561 72.3427C21.7005 72.9033 21.0694 73.1838 20.2628 73.184C19.6293 73.1842 19.0961 73.0385 18.663 72.7469C18.23 72.4554 17.9064 72.0544 17.692 71.5441C17.5279 71.1567 17.4457 70.6851 17.4456 70.1291L17.4444 65.7814L18.627 65.7811L18.6282 70.0672C18.6283 70.6551 18.7811 71.1268 19.0865 71.4822C19.3965 71.8375 19.8272 72.0152 20.3787 72.015C20.7797 72.0149 21.1146 71.9168 21.3835 71.7208C21.6523 71.5248 21.855 71.2627 21.9917 70.9345C22.0873 70.6884 22.1351 70.399 22.135 70.0663L22.1338 65.7802L23.3233 65.7799L23.3252 73.0191L22.211 73.0194L22.1561 72.3427ZM28.2114 67.1799C27.9424 66.9612 27.6484 66.8519 27.3294 66.852C26.8464 66.8522 26.4841 67.0345 26.2427 67.3992C26.0058 67.7593 25.8874 68.2219 25.8876 68.787L25.8887 73.0048L24.7061 73.0051L24.7041 65.7726L25.8184 65.7723L25.8664 66.4559C25.9894 66.2964 26.1307 66.1551 26.2902 66.032C26.4542 65.9089 26.6433 65.8086 26.8575 65.7311C27.0762 65.6535 27.3018 65.6147 27.5342 65.6147C27.999 65.6145 28.4411 65.7671 28.8605 66.0723L28.2114 67.1799ZM35.1214 63.0423L37.0787 71.2449L39.0589 63.0413L40.4192 63.0409L42.397 71.2435C42.9524 68.8417 43.5646 66.2302 44.2338 63.409C44.2657 63.2677 44.293 63.1447 44.3157 63.0399L45.6897 63.0395C45.5896 63.4041 44.7815 66.4463 43.2654 72.1661C43.188 72.4578 43.1106 72.7404 43.0332 73.0138L41.7207 73.0142L40.1741 66.7665L39.7224 64.7637C39.5358 65.5887 39.3332 66.4592 39.1147 67.3752C38.8962 68.2867 38.6481 69.3054 38.3704 70.4311C38.0973 71.5523 37.8879 72.4136 37.7422 73.0152L36.4434 73.0156C36.1606 72.0222 35.8823 71.0219 35.6086 70.0148C35.3395 69.0078 34.9973 67.7204 34.5822 66.1528C34.1716 64.5807 33.9002 63.5439 33.7679 63.0427L35.1214 63.0423ZM49.6829 66.6204C48.9264 66.6206 48.4594 67.0036 48.2818 67.7693L47.0991 67.4483C47.2949 66.8695 47.6161 66.4091 48.0626 66.0672C48.5092 65.7253 49.0765 65.5542 49.7646 65.554C50.2021 65.5539 50.5964 65.6267 50.9473 65.7725C51.3028 65.9136 51.5968 66.1072 51.8293 66.3533C52.0618 66.5947 52.2464 66.8841 52.3832 67.2213C52.5383 67.5949 52.6159 68.037 52.616 68.5474L52.6172 73.0113L51.4551 73.0116L51.4002 72.2801C50.8581 72.8636 50.1746 73.1555 49.3497 73.1557C48.7755 73.1558 48.281 73.0375 47.8662 72.8006C47.456 72.5592 47.1551 72.2312 46.9636 71.8165C46.8359 71.534 46.772 71.2218 46.7719 70.88C46.7718 70.5656 46.8219 70.2784 46.9221 70.0186C47.0223 69.7543 47.1612 69.5287 47.3389 69.3418C47.5166 69.1503 47.7148 68.9908 47.9335 68.8631C48.1568 68.7309 48.3983 68.626 48.658 68.5485C49.0226 68.439 49.3963 68.3842 49.7791 68.3841C50.3624 68.3839 50.8865 68.5023 51.3514 68.7391L51.3514 68.5341C51.3512 67.9234 51.2144 67.4517 50.9408 67.1191C50.6673 66.7865 50.248 66.6203 49.6829 66.6204ZM49.8135 69.4505C49.2803 69.4506 48.852 69.567 48.5285 69.7995C48.2095 70.0274 48.0501 70.3761 48.0502 70.8455C48.0505 71.6567 48.5678 72.0622 49.6023 72.0619C50.0034 72.0618 50.3429 71.9683 50.6208 71.7813C50.9033 71.5898 51.106 71.3369 51.229 71.0224C51.311 70.8082 51.3519 70.578 51.3519 70.3319L51.3517 69.8397C50.9916 69.5801 50.4789 69.4503 49.8135 69.4505ZM55.1721 66.3797C55.6231 65.8327 56.2474 65.5591 57.0449 65.5589C57.6829 65.5587 58.2185 65.7067 58.6515 66.0028C59.0845 66.2944 59.4082 66.6953 59.6225 67.2057C59.7867 67.593 59.8688 68.0624 59.869 68.6138L59.8701 73.0025L58.6807 73.0028L58.6795 68.6483C58.6794 68.0559 58.5266 67.5819 58.2211 67.2266C57.9157 66.8712 57.4873 66.6936 56.9358 66.6937C56.5348 66.6938 56.1976 66.7919 55.9242 66.9879C55.6508 67.184 55.4504 67.4483 55.3229 67.781C55.2227 68.0272 55.1726 68.3166 55.1727 68.6492L55.1739 73.0037L53.9912 73.0041L53.9886 63.0099L55.1712 63.0096L55.1721 66.3797ZM61.4014 73.0089L61.3987 63.0421L62.5813 63.0418L62.584 73.0086L61.4014 73.0089ZM66.6445 72.8639C66.4896 73.06 66.28 73.158 66.0157 73.1581C65.7514 73.1581 65.5394 73.0602 65.3799 72.8643C65.2249 72.6638 65.1473 72.4223 65.1473 72.1397C65.1472 71.9347 65.195 71.7501 65.2907 71.586C65.3863 71.4173 65.5093 71.292 65.6597 71.2099C65.7645 71.1461 65.883 71.1142 66.0152 71.1141C66.2795 71.114 66.4891 71.2143 66.6441 71.4147C66.8037 71.6152 66.8835 71.8567 66.8836 72.1393C66.8837 72.4218 66.804 72.6634 66.6445 72.8639ZM66.5617 69.904C66.5617 69.9906 66.5663 70.1114 66.5755 70.2663C66.5846 70.4213 66.5892 70.542 66.5892 70.6286L65.3041 70.67C65.2858 70.3783 65.2766 70.1254 65.2765 69.9112C65.2763 68.9223 65.6202 68.193 66.3082 67.7234C66.5178 67.5775 66.9165 67.345 67.5043 67.0258C67.6592 66.9392 67.7914 66.8526 67.9007 66.766C68.0146 66.6748 68.1217 66.5677 68.2219 66.4446C68.3267 66.3169 68.4041 66.1688 68.4542 66.0002C68.5089 65.8315 68.5361 65.6447 68.5361 65.4396C68.536 64.9702 68.3832 64.6102 68.0778 64.3597C67.7769 64.1091 67.3781 63.9839 66.8814 63.984C66.3573 63.9841 65.9358 64.1301 65.6169 64.4218C65.3025 64.7136 65.0952 65.1056 64.9951 65.5978L63.785 65.1743C63.9626 64.641 64.2291 64.1898 64.5845 63.8206C64.9399 63.4513 65.375 63.1892 65.8899 63.0341C66.218 62.9292 66.5689 62.8767 66.9426 62.8766C67.5624 62.8764 68.1002 63.0175 68.556 63.3C69.0118 63.5824 69.3537 63.956 69.5817 64.4208C69.7459 64.7489 69.828 65.118 69.8281 65.5281C69.8282 65.7104 69.8145 65.8813 69.7872 66.0408C69.7645 66.2004 69.7235 66.3462 69.6643 66.4784C69.6096 66.6106 69.5504 66.7291 69.4867 66.8339C69.4274 66.9387 69.3477 67.039 69.2475 67.1347C69.1472 67.2305 69.0538 67.3125 68.9673 67.3809C68.8853 67.4493 68.7782 67.5222 68.646 67.5997C68.5185 67.6772 68.4068 67.7434 68.3111 67.7981C68.2154 67.8482 68.0947 67.9121 67.9489 67.9896C67.8031 68.0671 67.6846 68.1332 67.5935 68.1879C67.27 68.3703 67.0171 68.5959 66.8349 68.8649C66.6526 69.1338 66.5616 69.4802 66.5617 69.904Z" fill="#2E0091"/>
    <rect x="26.7502" y="8.75761" width="27.1333" height="32.5021" transform="rotate(-0.0153521 26.7502 8.75761)" stroke="#2E0091" stroke-width="1.5"/>
    <path d="M30.4774 21.2051C32.2648 21.1819 33.6714 21.1044 35.4431 21.2913C36.1675 21.3676 37.0667 21.3519 37.7584 21.1969C38.4763 21.0359 39.7641 20.4889 40.5071 20.5336C41.5967 20.5992 42.478 21.2786 43.601 21.4016C44.3507 21.4837 45.3038 21.3458 45.8966 21.0322C46.5194 20.7027 49.2729 20.975 50.1627 20.9748" stroke="#2E0091" stroke-linecap="round" stroke-linejoin="round"/>
    <path d="M30.4806 33.7319C32.2681 33.7088 33.6747 33.6313 35.4464 33.8181C36.1708 33.8945 37.07 33.8788 37.7617 33.7237C38.4795 33.5628 39.7674 33.0158 40.5104 33.0605C41.6 33.126 42.4813 33.8054 43.6043 33.9284C44.354 34.0105 45.3071 33.8726 45.8999 33.559C46.5227 33.2296 49.2762 33.5019 50.166 33.5016" stroke="#2E0091" stroke-linecap="round" stroke-linejoin="round"/>
    <path d="M31.3715 18.5205C33.0777 18.4974 34.4204 18.4199 36.1115 18.6067C36.803 18.6831 37.6614 18.6674 38.3216 18.5124C39.0068 18.3515 40.2361 17.8045 40.9453 17.8492C41.9854 17.9147 42.8267 18.5941 43.8987 18.7172C44.6143 18.7993 45.524 18.6614 46.0899 18.3478C46.6844 18.0183 49.3127 18.2907 50.1621 18.2905" stroke="#2E0091" stroke-linecap="round" stroke-linejoin="round"/>
    <path d="M31.3748 31.0474C33.081 31.0242 34.4237 30.9467 36.1148 31.1336C36.8063 31.21 37.6647 31.1943 38.3249 31.0392C39.0101 30.8783 40.2394 30.3313 40.9486 30.376C41.9887 30.4416 42.8299 31.121 43.902 31.244C44.6176 31.3261 45.5273 31.1882 46.0932 30.8747C46.6877 30.5452 49.316 30.8175 50.1654 30.8173" stroke="#2E0091" stroke-linecap="round" stroke-linejoin="round"/>
    <path d="M31.3701 13.9371C32.6566 14.0477 33.8141 14.1115 35.0718 13.8224C35.3784 13.7519 35.9896 13.5135 36.2929 13.5134C38.7512 13.5127 40.9075 14.8869 43.4197 13.9258C43.5741 13.8667 44.3436 13.3386 44.5262 13.3731C45.0258 13.4675 45.4679 13.8133 46.0052 13.9007C46.8974 14.0459 47.5202 13.6404 48.3711 13.6401" stroke="#2E0091" stroke-linecap="round" stroke-linejoin="round"/>
    <path d="M31.3734 26.4645C32.6599 26.575 33.8173 26.6389 35.0751 26.3497C35.3817 26.2793 35.9929 26.0408 36.2962 26.0407C38.7545 26.0401 40.9108 27.4143 43.423 26.4531C43.5774 26.394 44.3469 25.8659 44.5295 25.9004C45.0291 25.9948 45.4712 26.3406 46.0085 26.428C46.9007 26.5733 47.5235 26.1677 48.3744 26.1675" stroke="#2E0091" stroke-linecap="round" stroke-linejoin="round"/>
    <path d="M32.2655 16.0591C33.3635 16.0588 34.4561 16.0585 35.5616 16.0582C36.4129 16.058 37.4869 16.0577 38.3373 16.0575C38.9219 16.0573 39.3586 16.0572 39.8986 16.057C40.7577 16.0568 41.739 16.0565 42.6743 16.0563C43.5565 16.0561 44.2372 16.0559 44.9103 16.0557C45.1891 16.0556 45.5078 16.0555 45.9319 16.0554C46.787 16.0552 48.3245 16.0548 49.2665 16.0545" stroke="#2E0091" stroke-linecap="round" stroke-linejoin="round"/>
    <path d="M32.2689 28.5859C33.3669 28.5856 34.4595 28.5854 35.565 28.5851C36.4163 28.5848 37.4903 28.5845 38.3407 28.5843C38.9253 28.5842 39.362 28.584 39.902 28.5839C40.7611 28.5837 41.7425 28.5834 42.6777 28.5831C43.5599 28.5829 44.2406 28.5827 44.9137 28.5825C45.1926 28.5825 45.5113 28.5824 45.9353 28.5823C46.7904 28.582 48.3279 28.5816 49.27 28.5814" stroke="#2E0091" stroke-linecap="round" stroke-linejoin="round"/>
    <path d="M32.2675 23.3319C33.3655 23.4031 34.4581 23.4589 35.5636 23.4068C36.4149 23.3667 37.4888 23.1375 38.3393 23.2435C38.9239 23.3164 39.3607 23.72 39.9008 23.8716C40.7599 24.1129 41.7412 24.1095 42.6765 24.1093C43.5587 24.109 44.2393 24.0682 44.9124 23.724C45.1912 23.5814 45.5098 23.3279 45.9339 23.4691C46.7891 23.7537 48.3266 23.6991 49.2686 23.5224" stroke="#2E0091" stroke-linecap="round" stroke-linejoin="round"/>
    <path d="M32.271 35.8592C33.369 35.9305 34.4616 35.9863 35.5672 35.9342C36.4184 35.8941 37.4923 35.6649 38.3428 35.7709C38.9274 35.8438 39.3642 36.2473 39.9043 36.399C40.7634 36.6402 41.7448 36.6369 42.68 36.6366C43.5622 36.6364 44.2429 36.5955 44.9159 36.2513C45.1947 36.1087 45.5134 35.8553 45.9374 35.9964C46.7926 36.281 48.3302 36.2265 49.2721 36.0497" stroke="#2E0091" stroke-linecap="round" stroke-linejoin="round"/>
    </svg>
