<?xml version="1.0" standalone="no"?>
<!DOCTYPE svg PUBLIC "-//W3C//DTD SVG 20010904//EN"
 "http://www.w3.org/TR/2001/REC-SVG-20010904/DTD/svg10.dtd">
<svg version="1.0" xmlns="http://www.w3.org/2000/svg"
 width="823.000000pt" height="823.000000pt" viewBox="0 0 823.000000 823.000000"
 preserveAspectRatio="xMidYMid meet">
<metadata>
Created by potrace 1.14, written by Peter Selinger 2001-2017
</metadata>
<g transform="translate(0.000000,823.000000) scale(0.100000,-0.100000)"
fill="#000000" stroke="none">
<path d="M1540 7244 c-322 -18 -785 -44 -1028 -58 -244 -13 -446 -27 -448 -29
-18 -17 47 -725 257 -2812 132 -1309 243 -2391 247 -2405 l7 -24 710 -92 c391
-51 711 -93 712 -93 2 -1 4 -175 5 -387 l3 -386 400 282 c220 155 419 295 442
311 l42 29 2323 -160 c1278 -88 2346 -161 2373 -162 l50 -3 7 80 c5 44 46 499
93 1010 80 871 109 1182 235 2558 27 298 83 910 125 1360 41 450 75 825 75
833 0 14 -12 15 -82 10 -46 -4 -688 -36 -1428 -71 -740 -36 -1437 -70 -1550
-76 -892 -44 -2835 -137 -2837 -135 -1 1 -7 90 -13 197 -16 281 -9 259 -78
258 -31 -1 -320 -17 -642 -35z m626 -22 c8 -4 15 -63 19 -159 7 -149 7 -153
-12 -153 -23 0 -28 23 -39 192 -8 118 -2 142 32 120z m-910 -69 c-2 -10 -28
-103 -57 -206 -52 -184 -54 -188 -78 -185 -23 3 -34 22 -103 188 -42 102 -77
191 -78 198 0 6 10 12 23 12 21 0 30 -17 87 -166 34 -91 66 -161 70 -157 4 4
19 58 34 118 50 204 54 215 82 215 19 0 24 -4 20 -17z m430 -31 c6 -36 7 -38
40 -34 31 4 34 2 34 -22 0 -23 -4 -26 -36 -26 l-36 0 8 -92 c3 -51 8 -96 11
-100 2 -5 19 -8 38 -8 35 0 56 -27 33 -42 -23 -14 -75 -9 -99 11 -20 16 -24
31 -30 122 -4 57 -8 105 -8 107 -1 1 -10 2 -21 2 -13 0 -20 7 -20 20 0 13 7
20 20 20 17 0 20 7 20 40 0 33 3 40 20 40 15 0 21 -9 26 -38z m-1353 -6 c18
-7 46 -28 61 -47 l28 -33 -22 -10 c-18 -8 -25 -5 -47 22 -21 27 -31 32 -69 32
-80 0 -112 -58 -102 -185 7 -77 31 -121 75 -136 65 -21 123 19 123 87 l0 43
-47 3 c-35 2 -48 7 -48 18 0 11 17 16 69 20 41 3 70 1 72 -5 1 -5 5 -52 7
-103 4 -77 2 -95 -10 -99 -9 -4 -20 1 -25 10 -8 15 -12 15 -41 -3 -70 -43
-160 -14 -201 65 -25 48 -34 166 -16 219 31 93 112 136 193 102z m1689 -33
c25 -22 43 -58 52 -100 l7 -31 -100 -7 c-113 -8 -123 -18 -78 -71 30 -34 77
-37 110 -6 24 23 57 29 57 11 0 -38 -59 -79 -115 -79 -71 0 -125 69 -125 160
0 62 20 104 63 131 38 24 98 20 129 -8z m-516 -22 c41 -25 64 -77 64 -144 0
-70 -29 -116 -85 -136 -77 -26 -146 29 -161 127 -18 121 88 210 182 153z
m-832 -52 c39 -31 56 -71 56 -134 0 -94 -44 -145 -123 -145 -114 0 -168 197
-75 275 38 32 104 34 142 4z m7376 -23 c0 -4 -65 -709 -255 -2781 -46 -506
-124 -1347 -171 -1870 -48 -522 -90 -953 -93 -957 -3 -4 -1057 65 -2341 154
l-2335 161 -370 -261 -370 -261 -3 328 -2 329 -38 6 c-35 6 -1096 142 -1302
168 -52 6 -97 13 -99 14 -4 4 -470 4588 -466 4592 2 2 520 28 2360 117 286 14
655 32 820 40 505 25 3358 164 3910 190 286 14 540 26 565 28 74 6 190 7 190
3z m-5849 -122 c9 -11 10 -20 2 -32 -13 -22 -43 -22 -56 -1 -24 38 25 68 54
33z"/>
<path d="M1906 7045 c-16 -17 -31 -54 -23 -61 2 -3 34 -2 71 2 72 7 81 19 46
54 -24 24 -72 26 -94 5z"/>
<path d="M1419 7026 c-36 -18 -51 -54 -45 -110 6 -57 37 -96 75 -96 49 0 71
34 71 108 0 78 -48 125 -101 98z"/>
<path d="M561 6971 c-46 -46 -32 -161 22 -191 24 -13 30 -13 55 0 37 21 55 78
42 133 -15 70 -77 100 -119 58z"/>
<path d="M2435 6138 c-2 -7 -5 -178 -7 -381 l-3 -367 48 0 47 0 0 175 0 175
170 0 170 0 0 -175 0 -175 44 0 43 0 8 369 c4 204 4 375 0 380 -3 6 -24 11
-46 11 l-39 0 0 -82 c0 -46 -3 -120 -7 -165 l-6 -83 -153 0 c-84 0 -160 3
-169 6 -14 6 -15 24 -9 165 l7 159 -47 0 c-28 0 -48 -5 -51 -12z"/>
<path d="M4180 5963 c0 -98 -3 -269 -7 -380 l-6 -203 45 0 45 0 7 187 c8 208
17 243 70 270 35 18 104 20 135 4 50 -27 56 -52 61 -266 l5 -200 40 0 40 0 3
195 c3 212 -2 250 -45 301 -59 70 -180 91 -260 44 l-43 -24 0 125 0 124 -45 0
-45 0 0 -177z"/>
<path d="M5787 6024 c-4 -59 -7 -230 -7 -381 l0 -273 45 0 45 0 0 175 c0 194
10 239 60 275 42 30 120 27 159 -6 45 -38 54 -84 50 -279 l-4 -170 41 -3 41
-3 7 47 c12 91 7 328 -9 381 -17 59 -71 114 -130 133 -52 17 -139 8 -175 -18
-16 -12 -31 -22 -33 -22 -2 0 -3 55 -3 123 l1 122 -41 3 -41 3 -6 -107z"/>
<path d="M6906 6108 c-2 -7 -7 -178 -10 -380 l-5 -368 43 0 44 0 7 193 c3 105
5 275 3 377 l-3 185 -38 3 c-24 2 -39 -1 -41 -10z"/>
<path d="M3226 5938 c-57 -15 -127 -89 -149 -157 -21 -66 -22 -171 -1 -240 23
-78 91 -145 165 -161 110 -24 205 27 258 140 35 76 37 210 3 285 -32 70 -77
113 -136 130 -56 17 -84 17 -140 3z m135 -95 c47 -28 69 -86 69 -179 -1 -130
-49 -204 -134 -204 -95 0 -141 66 -141 200 1 134 46 199 138 200 22 0 52 -8
68 -17z"/>
<path d="M3825 5941 c-123 -31 -189 -136 -188 -297 0 -65 5 -92 25 -135 46
-99 105 -139 206 -139 42 0 71 7 103 23 43 23 116 104 104 116 -4 3 -23 11
-43 16 -34 10 -37 8 -72 -28 -45 -49 -106 -60 -157 -28 -47 30 -66 74 -71 167
-4 72 -1 89 21 137 29 64 63 87 128 87 36 0 48 -6 81 -41 35 -37 43 -40 73
-35 19 4 37 11 40 16 10 17 -47 91 -89 115 -46 26 -116 38 -161 26z"/>
<path d="M4885 5930 c-91 -14 -155 -74 -155 -146 0 -90 28 -115 184 -169 103
-35 134 -63 117 -108 -14 -36 -60 -57 -125 -57 -44 0 -60 5 -85 26 -17 14 -31
33 -31 41 0 8 -3 13 -7 11 -5 -2 -25 -10 -45 -18 -21 -8 -38 -20 -38 -28 0 -8
19 -34 43 -57 51 -52 106 -69 194 -62 151 12 239 135 170 237 -28 42 -67 65
-176 105 -94 33 -118 58 -99 100 27 59 149 59 197 2 10 -13 17 -13 51 0 45 18
46 20 22 49 -47 57 -132 86 -217 74z"/>
<path d="M5382 5913 c-86 -42 -132 -123 -140 -248 -8 -138 38 -239 131 -286
60 -31 169 -24 223 13 43 30 89 92 80 106 -3 6 -22 13 -42 16 -30 6 -38 4 -55
-19 -64 -80 -169 -71 -220 19 -45 80 -26 248 35 305 53 50 152 35 189 -29 16
-26 19 -27 57 -18 44 11 46 17 26 56 -18 34 -51 65 -93 86 -42 21 -147 21
-191 -1z"/>
<path d="M6337 5803 c-16 -254 -4 -333 59 -396 20 -20 52 -41 71 -48 52 -17
147 -7 183 19 36 27 40 27 40 2 0 -17 7 -20 45 -20 l45 0 0 275 0 275 -44 0
-44 0 -4 -192 c-3 -181 -4 -195 -25 -224 -12 -17 -36 -37 -53 -44 -43 -18
-116 -8 -146 21 -39 37 -46 83 -38 270 l7 169 -45 0 -45 0 -6 -107z"/>
<path d="M2587 4448 c69 -271 127 -503 130 -515 5 -21 11 -23 73 -23 l69 0 15
53 c8 28 56 215 107 415 51 200 96 357 99 350 4 -7 12 -40 19 -73 28 -137 163
-712 171 -732 9 -21 17 -23 74 -23 l64 0 78 278 c43 152 107 383 144 512 l66
235 -65 8 c-36 4 -68 4 -71 0 -4 -5 -54 -195 -110 -423 -57 -228 -106 -408
-109 -400 -2 8 -46 197 -96 420 l-92 405 -71 3 -71 3 -10 -38 c-5 -21 -53
-207 -106 -413 -83 -325 -104 -399 -105 -379 -1 2 -42 189 -93 414 l-92 410
-72 3 -71 3 125 -493z"/>
<path d="M4556 4758 c-3 -95 -7 -327 -10 -515 l-4 -343 64 0 64 0 0 233 c0
270 8 316 65 366 89 78 226 57 274 -43 20 -39 21 -60 21 -304 l0 -262 59 0 59
0 7 166 c11 256 4 377 -27 444 -48 104 -119 152 -237 158 -85 5 -137 -8 -181
-44 l-30 -26 0 171 0 171 -59 0 -59 0 -6 -172z"/>
<path d="M5326 4908 c-3 -7 -7 -239 -10 -515 l-6 -503 59 0 59 0 6 103 c3 56
8 288 10 515 l5 412 -60 0 c-39 0 -61 -4 -63 -12z"/>
<path d="M4012 4656 c-23 -8 -59 -26 -78 -41 -35 -27 -94 -108 -94 -130 0 -6
26 -18 59 -26 l58 -16 21 42 c27 56 75 80 149 72 62 -6 104 -33 126 -79 19
-42 32 -128 18 -128 -5 0 -38 7 -73 16 -104 27 -229 3 -311 -60 -78 -60 -110
-191 -68 -281 65 -140 261 -186 405 -95 26 17 49 30 51 30 3 0 5 -13 5 -30 0
-30 0 -30 59 -30 l58 0 7 243 c7 246 2 317 -28 376 -48 93 -131 143 -246 148
-46 2 -92 -3 -118 -11z m226 -412 l34 -14 -4 -64 c-7 -108 -70 -166 -183 -166
-74 0 -123 23 -141 66 -38 90 7 168 111 195 40 10 140 1 183 -17z"/>
<path d="M5841 4650 c-57 -12 -120 -50 -161 -97 -129 -146 -129 -440 0 -587
103 -116 315 -129 433 -26 45 40 87 97 87 118 0 6 -24 18 -52 26 -52 16 -53
15 -68 -7 -71 -106 -220 -126 -305 -41 -35 35 -65 112 -65 166 l0 28 255 0
255 0 0 50 c0 162 -94 324 -208 358 -58 18 -121 22 -171 12z m132 -124 c55
-23 91 -76 111 -160 l7 -29 -180 5 c-99 2 -183 7 -187 10 -10 10 15 73 45 115
48 67 130 91 204 59z"/>
<path d="M6589 4637 c-21 -8 -49 -24 -64 -35 -32 -25 -45 -21 -45 14 0 22 -3
24 -54 24 l-53 0 -6 -67 c-4 -38 -7 -209 -7 -380 l0 -313 59 0 59 0 4 253 c5
281 8 299 71 354 41 36 88 48 149 40 75 -10 131 -72 143 -158 4 -28 4 -149 0
-270 l-8 -219 67 0 67 0 -3 283 c-3 263 -4 285 -24 327 -26 55 -74 105 -128
132 -52 27 -174 34 -227 15z"/>
<path d="M1680 3420 c-38 -38 -18 -90 35 -90 54 0 76 64 33 94 -30 21 -44 20
-68 -4z"/>
<path d="M1837 3422 c-20 -22 -22 -63 -5 -80 30 -30 98 -1 98 41 0 23 -35 57
-58 57 -11 0 -26 -8 -35 -18z"/>
<path d="M1996 3427 c-36 -26 -16 -97 26 -97 38 0 58 19 58 55 0 49 -44 71
-84 42z"/>
<path d="M1162 3418 c-18 -18 -14 -63 8 -83 45 -41 110 18 76 70 -18 27 -63
34 -84 13z"/>
<path d="M1362 3418 c-21 -21 -14 -66 13 -84 51 -33 104 21 71 71 -18 27 -63
34 -84 13z"/>
<path d="M1515 3406 c-19 -28 -9 -58 26 -76 45 -25 94 51 57 88 -21 21 -66 14
-83 -12z"/>
<path d="M1974 3262 c-24 -16 -33 -48 -21 -73 10 -18 21 -24 47 -24 26 0 37 6
47 24 17 36 -9 81 -47 81 -8 0 -20 -4 -26 -8z"/>
<path d="M4915 3257 c-87 -29 -143 -75 -181 -148 -18 -36 -20 -32 30 -53 48
-20 66 -20 66 -1 0 22 61 86 97 101 71 30 159 11 206 -45 72 -86 52 -226 -42
-295 -18 -13 -80 -43 -137 -66 -173 -70 -232 -144 -242 -302 l-5 -78 287 0
287 0 -3 48 -3 47 -222 3 c-220 2 -223 3 -223 24 0 12 11 40 25 64 26 44 44
55 188 114 156 64 225 135 246 253 25 144 -31 257 -158 322 -44 22 -164 29
-216 12z"/>
<path d="M1786 3244 c-22 -21 -20 -50 4 -74 24 -24 38 -25 68 -4 24 16 28 44
12 75 -13 23 -62 26 -84 3z"/>
<path d="M5595 3241 c-47 -21 -115 -92 -145 -151 -78 -154 -80 -421 -4 -574
53 -107 136 -165 234 -166 83 0 124 16 183 70 89 81 137 218 137 390 0 205
-79 378 -195 431 -54 25 -157 25 -210 0z m177 -97 c34 -17 75 -86 94 -156 20
-73 19 -276 0 -351 -30 -110 -79 -175 -147 -190 -40 -10 -101 12 -136 50 -61
65 -93 230 -73 386 28 230 128 329 262 261z"/>
<path d="M6300 3251 c-54 -17 -108 -51 -138 -86 -31 -35 -67 -94 -60 -100 5
-5 80 -35 88 -35 4 0 20 20 35 44 76 120 248 115 313 -9 23 -44 20 -133 -7
-187 -27 -56 -65 -83 -199 -138 -174 -72 -230 -141 -240 -296 l-5 -84 287 0
287 0 -3 48 -3 47 -222 3 c-218 2 -223 3 -223 23 0 34 30 88 61 110 16 11 73
38 126 59 207 83 275 165 274 331 0 117 -50 197 -154 251 -44 22 -173 34 -217
19z"/>
<path d="M1627 3232 c-34 -37 -11 -92 38 -92 24 0 55 33 55 57 0 19 -37 53
-58 53 -11 0 -26 -8 -35 -18z"/>
<path d="M6810 3210 l-75 -28 -3 -51 c-3 -58 0 -60 68 -36 47 17 74 19 66 7
-3 -5 -6 -175 -7 -378 l-1 -369 51 -3 c35 -2 52 1 55 10 3 7 7 208 11 446 l6
432 -48 -1 c-26 0 -82 -13 -123 -29z"/>
<path d="M1462 3074 c-24 -17 -30 -62 -10 -82 30 -30 98 -1 98 41 0 20 -34 57
-53 57 -7 0 -23 -7 -35 -16z"/>
<path d="M1622 3083 c-7 -3 -18 -16 -23 -30 -13 -36 12 -73 49 -73 35 0 52 17
52 51 0 45 -36 69 -78 52z"/>
<path d="M1800 3060 c-24 -24 -25 -38 -4 -68 28 -41 94 -22 94 28 0 55 -52 78
-90 40z"/>
<path d="M1957 3062 c-33 -36 -8 -92 40 -92 25 0 53 30 53 57 0 46 -62 69 -93
35z"/>
<path d="M2112 3068 c-19 -19 -14 -63 8 -83 46 -41 116 29 75 75 -20 22 -64
27 -83 8z"/>
<path d="M2275 3036 c-19 -28 -9 -58 26 -76 45 -25 94 51 57 88 -21 21 -66 14
-83 -12z"/>
<path d="M1265 3016 c-35 -53 34 -115 79 -70 19 18 21 65 4 82 -21 21 -66 14
-83 -12z"/>
<path d="M2086 2904 c-23 -22 -20 -71 3 -84 31 -16 59 -12 75 12 21 30 20 44
-4 68 -24 24 -53 26 -74 4z"/>
<path d="M2392 2898 c-37 -37 12 -113 57 -88 35 18 45 48 26 76 -17 26 -62 33
-83 12z"/>
<path d="M2545 2890 c-41 -45 18 -110 70 -76 27 18 34 63 13 84 -18 18 -63 14
-83 -8z"/>
<path d="M2706 2894 c-31 -31 -7 -94 35 -94 26 0 59 30 59 54 0 47 -62 73 -94
40z"/>
<path d="M2868 2899 c-23 -13 -23 -62 -2 -84 24 -23 66 -15 83 16 13 24 13 29
-2 53 -18 27 -49 33 -79 15z"/>
<path d="M1773 2880 c-31 -13 -40 -55 -18 -80 20 -22 65 -26 83 -8 20 20 14
65 -10 82 -25 18 -25 18 -55 6z"/>
<path d="M2214 2865 c-34 -52 31 -111 76 -70 22 20 26 65 8 83 -21 21 -66 14
-84 -13z"/>
<path d="M1446 2864 c-41 -40 7 -109 59 -86 14 6 27 23 31 37 13 50 -53 86
-90 49z"/>
<path d="M1602 2868 c-37 -37 12 -113 57 -88 35 18 45 48 26 76 -17 26 -62 33
-83 12z"/>
<path d="M1920 2850 c-24 -24 -25 -38 -4 -68 17 -24 62 -30 82 -10 20 20 14
65 -10 82 -30 21 -44 20 -68 -4z"/>
<path d="M3012 2749 c-42 -16 -37 -90 7 -102 31 -8 66 15 69 46 6 46 -30 73
-76 56z"/>
<path d="M2355 2730 c-41 -46 29 -116 75 -75 24 22 26 58 4 79 -21 22 -57 20
-79 -4z"/>
<path d="M2516 2734 c-34 -33 -7 -94 42 -94 22 0 52 34 52 61 0 41 -64 63 -94
33z"/>
<path d="M2707 2722 c-33 -37 -11 -92 37 -92 26 0 56 29 56 53 0 23 -35 57
-58 57 -11 0 -26 -8 -35 -18z"/>
<path d="M2878 2729 c-52 -30 -37 -99 21 -99 51 0 72 50 36 86 -27 27 -32 28
-57 13z"/>
<path d="M1732 2674 c-24 -17 -30 -62 -10 -82 20 -20 65 -14 82 10 21 30 20
44 -4 68 -24 24 -38 25 -68 4z"/>
<path d="M1880 2670 c-24 -24 -25 -38 -4 -68 17 -24 62 -30 82 -10 17 17 15
64 -4 82 -21 22 -50 20 -74 -4z"/>
<path d="M2037 2672 c-33 -36 -8 -92 40 -92 25 0 53 30 53 57 0 46 -62 69 -93
35z"/>
<path d="M2196 2674 c-22 -21 -20 -57 4 -79 46 -41 116 29 75 75 -22 24 -58
26 -79 4z"/>
<path d="M1563 2654 c-15 -24 -15 -29 -2 -53 27 -49 99 -32 99 23 0 28 -29 56
-58 56 -12 0 -29 -11 -39 -26z"/>
<path d="M2510 2560 c-38 -38 -18 -90 35 -90 54 0 76 64 33 94 -30 21 -44 20
-68 -4z"/>
<path d="M2344 2545 c-19 -30 -14 -48 20 -71 24 -15 28 -15 51 0 27 18 34 63
13 84 -21 21 -66 14 -84 -13z"/>
<path d="M2702 2554 c-41 -29 -19 -94 33 -94 52 0 74 65 33 94 -12 9 -27 16
-33 16 -6 0 -21 -7 -33 -16z"/>
<path d="M2856 2554 c-23 -22 -20 -71 3 -84 31 -16 59 -12 75 12 21 30 20 44
-4 68 -24 24 -53 26 -74 4z"/>
<path d="M3004 2545 c-32 -49 23 -104 75 -75 28 15 29 75 2 90 -32 17 -60 11
-77 -15z"/>
<path d="M2008 2509 c-10 -5 -23 -19 -29 -30 -24 -45 52 -94 89 -57 20 20 14
65 -10 82 -26 19 -27 19 -50 5z"/>
<path d="M2150 2500 c-11 -11 -20 -28 -20 -38 0 -24 31 -52 58 -52 47 0 69 61
34 93 -25 22 -48 21 -72 -3z"/>
<path d="M1676 2494 c-22 -21 -20 -50 4 -74 24 -24 38 -25 68 -4 41 29 19 94
-33 94 -13 0 -31 -7 -39 -16z"/>
<path d="M1832 2498 c-21 -21 -14 -66 12 -83 53 -35 115 34 70 79 -18 19 -65
21 -82 4z"/>
<path d="M2832 2394 c-24 -17 -30 -62 -10 -82 37 -37 113 12 88 57 -9 17 -39
41 -52 41 -2 0 -14 -7 -26 -16z"/>
<path d="M2980 2390 c-24 -24 -25 -38 -4 -68 17 -24 62 -30 82 -10 18 18 14
63 -6 81 -25 22 -48 21 -72 -3z"/>
<path d="M2358 2388 c-29 -22 -27 -72 3 -88 52 -28 106 28 74 76 -17 26 -52
31 -77 12z"/>
<path d="M2505 2380 c-15 -16 -17 -26 -9 -48 13 -37 57 -52 84 -27 22 20 27
64 8 83 -19 19 -63 14 -83 -8z"/>
<path d="M2660 2381 c-16 -31 -12 -59 12 -75 30 -21 44 -20 68 4 24 24 26 53
4 74 -22 23 -71 20 -84 -3z"/>
</g>
</svg>
